<svg id="Слой_1" data-name="Слой 1" xmlns="http://www.w3.org/2000/svg" viewBox="0 0 74.87 74.87"><title>18-10-stainless-steel</title><path d="M36.87,60.24A2.31,2.31,0,0,1,38,61.63c-.18,1.28-.5,1.93-1,1.93h-1q-.7-.16-1.18-1.66a1.89,1.89,0,0,1,1.93-1.66m26.2-4.54h.48q1,0,1.44,4.06-.43,3.58-1.23,3.58h-.91q-.8,0-1-3.1V58.8q0-2.73,1.18-3.1m-26.69-.27q1,0,1.39,1.23,0,1.17-.7,1.39h-1q-.48-.11-1-1.18c0-.68.41-1.16,1.23-1.44m22.14,2.41v2.83q0,5.3,4.81,5.29,5,0,5-6.2,0-6.47-4.76-6.47-5,0-5,4.55m-6.42-4.55Q51.58,55,48,56.87v2.41h.27a7.21,7.21,0,0,0,3.1-1.44v7.38l.48.48h2.62l.43-.48V53.77l-.43-.48Zm-10,12.19.48.48h.91q.43-.05,3.37-12.41H46.6l-.22-.27h-1q-.59,0-3.32,12.19m-10.05-9.3v1Q32.38,59,33.5,59v.27q-1.45,0-1.87,2.83,0,3.85,5,3.85,4.76-.48,4.76-3.37v-1a2.41,2.41,0,0,0-1.66-2.35,6.38,6.38,0,0,0,1.44-2.41q0-3.58-4.76-3.58-4.33.43-4.33,2.89m-7.59-1.44L21.1,56.87V59l.27.27a7.07,7.07,0,0,0,3.32-1.44v7.38l.48.48h2.41l.48-.48V53.77l-.48-.48H25.64ZM40.67,44v.27h.7q3.1,0,7.44-7.65Q67.13,11.15,67.14,9.92V9.44L66.66,9H65.21ZM52.81,16.34q-18.56,25.78-18.56,27v.48l.43.48h4.06L63.34,9.44V9H60q-3.05,0-7.17,7.38M22.06,44v.27h1.18q3.1,0,7.44-7.65Q49,11.15,49,9.92V9.44L48.53,9H46.87q-1.34,1-24.81,35M18,44v.27h2.19L44.73,9.44V9H42.81Q41.52,10,18,44M28.53,9.44Q26.39,11.15,14.89,28,4.84,42.11,4.68,43.29v.22l.7.75H15.64q1.71-1.71,24.81-35.08V9H30.19ZM11.79,1.58h50.8q9.09,0,10.75,8.56V65.69q-2.78,7.65-9.09,7.65H10.13L8,72.86Q1.58,70.29,1.58,62.59V11.79q0-9.14,10.22-10.22M8.48.35Q.13,3.61.13,10.62v53.9l.22,1.87Q3.29,75,11.36,75H63.07a12.05,12.05,0,0,0,5.24-1Q75,70.77,75,63.07V11.37L74.78,9Q71.68.14,64.52.13H10.62Z" transform="translate(-0.13 -0.13)"/></svg>