<svg id="Слой_1" data-name="Слой 1" xmlns="http://www.w3.org/2000/svg" viewBox="0 0 75 74.87"><title>3-layer capsule base</title><path d="M29.36,68.26q3.27-27.81,6.54-27.81H73.5v23l-.27,2q-1.93,8-9.75,8H29.09Zm4.77-31.55H73.5v1.71H35.63q-5.84,0-8.52,34.81v.27H25.34q3.32-36.79,8.79-36.79M73.5,32.17H37.61V18.64H73.5ZM7.5,17.67q0,.75,5.79,1.23.48-2.73,2.25-2.73,2.25,0,2.25,2v.27a3,3,0,0,1-1,2c-1.68.14-2.52.39-2.52.75v1.76L14,24.68l.27.27,1.23-.27h.75q2.52,0,2.52,3-.27,3-2.52,3H15.8q-1.82,0-2.78-3-5.73.48-5.73,1,1.61,5.72,8,5.72h2q7.55-1,7.55-6.26v-1.5q-.91-4.22-3.8-4.22,2.78-2.14,2.78-4.28v-.48q0-5.29-8-5.29h-.27q-6.05,0-8,5.29m4.29-16H64.45q9.05,2,9.05,9.78v3H33.59l-.48.48V34.68q-2.3,0-5.25,8Q23.3,64.84,23.3,73.5h-12L8.3,73q-6.8-2.73-6.8-9.78V11.9q0-9.25,10.29-10.27M9.27.13Q0,3.13,0,10.67v53.8l.27,2q3,8.5,10,8.5H65.95Q75,72,75,64.73V9.17q-3.05-9-10.55-9Z" transform="translate(0 -0.13)"/></svg>