<svg id="Слой_1" data-name="Слой 1" xmlns="http://www.w3.org/2000/svg" viewBox="0 0 74.87 74.87"><title>4-layer capsule base</title><path d="M35.43,39.92H73.23V65.54q-2.72,7.7-9.2,7.7H28.48q2.67-30.75,7-33.32M26.5,57.83q2.83-19.52,6.74-21.66h40v2.25H35.7q-5.89,0-8.45,34.07c0,.5-.16.75-.48.75H25q0-3.64,1.5-15.4M17.78,19v6.47H12.33ZM73,31.74H37.19V17.57H73ZM6.87,25.27V30l.48.48H17.78V34l.53.48h4.44l.53-.48V30.45h2.19L26,30V26l-.53-.54H23.29V12.59l-.53-.53H18Zm-5-15.94Q4,1.63,12.59,1.63H63.07l2.25.27Q73.24,4,73.23,11.1v2H64l-.48.48v2.51H61.31V13.56l-.48-.48H33.23l-.53.48v9.73l.53.48H35.7v8.71l.48.48H73.23v1.76H33.45q-6.8,0-9.95,38.5H10.56Q1.63,71.58,1.63,63.08V12.59ZM9.81.13Q.13,2.81.13,10.56V64.3l.48,3q3,7.7,11.71,7.7H62.54l4.28-.48Q75,71.69,75,62.54V12.33a11.43,11.43,0,0,0-.48-4Q71.52.13,64.3.13Z" transform="translate(-0.13 -0.13)"/></svg>