<svg id="Слой_1" data-name="Слой 1" xmlns="http://www.w3.org/2000/svg" viewBox="0 0 74.87 74.87"><title>4-layer sandwich base</title><path d="M29.7,61.1q2.67-19.46,6-21.39H73.23V65.54q-2.72,7.7-9.2,7.7H28.74Zm-2.19-9.25Q30.83,36,33.45,36H73.23v2.46H34.95l-1,.75q-4.33,4.17-6.74,34.07H25q1-11.71,2.51-21.39M17.78,19H18v6.26H12.59ZM6.87,25.27v4.44l.48.54H18v3.48l.48.48h4.22l.53-.48V30.24h2.19l.53-.54v-4l-.53-.48H23.29V12.59l-.53-.53H18q-1.23,1-11.18,13.21m-5-15.94Q4,1.63,12.59,1.63H63.07l2.25.27Q73.24,4,73.23,11.1v2H64l-.48.48v3.26l.48.48h9.2V30.72h-36V17.3H60.56l.54-.48V13.56l-.54-.48H33.23l-.53.48V34.73q-2.14,0-5.19,9.95-2.25,9.63-4,28.56H9.81Q1.63,71,1.63,63.08V12.59ZM9.81.13Q.13,2.81.13,10.56V64.3l.48,3q3,7.7,11.71,7.7H62.54A11.84,11.84,0,0,0,68,74q7-3,7-11.44V12.33a11.43,11.43,0,0,0-.48-4Q71.52.13,64.3.13Z" transform="translate(-0.13 -0.13)"/></svg>