<svg id="Слой_1" data-name="Слой 1" xmlns="http://www.w3.org/2000/svg" viewBox="0 0 75 75"><title>5-ply</title><path d="M29.52,22q-.05,13.77.11,16.66a7.66,7.66,0,0,0,3.54,6.64,9.27,9.27,0,0,0,5,1.45h2.89q2.68-.05,4.45-.05h7.07v-3q-3.91.06-7.93,0-3.43,0-5.2.05a9,9,0,0,1-4.61-.91A3.53,3.53,0,0,1,33,40.4a46.25,46.25,0,0,1-.27-10.88l.05-20.68H29.68q-.11,4.07-.16,13.18m-4.5.11Q25,35.9,25.07,38.79q.32,7.83,6.32,11a10.42,10.42,0,0,0,2.14.91,41.13,41.13,0,0,0,8.52.54h3.54q6.27,0,7.29-.11V48.22q-3.22.05-7,.05-2.15,0-4.18.11-6.43.32-10-2a6.1,6.1,0,0,1-2.89-4,66.79,66.79,0,0,1-.59-12.7L28.23,9H25.13q-.06,4.07-.11,13.12m-5,2.63q.05,14.14.05,14,.32,8,5,12.37a16,16,0,0,0,6.11,3.32,20.25,20.25,0,0,0,6.21,1.07H40.5q2.94.05,4.77.05,6.27,0,7.34-.11l-.05-2.95q-1.39,0-7.07.11-10.93.11-13-.75a15.42,15.42,0,0,1-6.64-4.82Q23,43.45,23.2,36.16V9H20q0,7,.05,15.75m-4.5-.05q.05,14.09.05,14,1,11,8.31,16.88a18.19,18.19,0,0,0,7.77,3.54A46.88,46.88,0,0,0,38,60q6.27.27,14.57,0V56.95q-4.18.06-6,.11-1.56.05-2.63.05-8.52.11-11.47-.8-5.95-1.82-7.66-3.75-3.69-4-4.66-6.86-1.66-4.55-1.5-6.85V8.95H15.43q.05,7,.11,15.75M10.66,9.05q-.16,15.75.16,29.79a25.71,25.71,0,0,0,5,15.32,24.53,24.53,0,0,0,12.32,8.68q7,2.3,24.43,1.5l-.05-2.89q-4.07-.05-9.06-.05H37.55a29.29,29.29,0,0,1-8.73-1.5,20.29,20.29,0,0,1-9.37-6.11A24.39,24.39,0,0,1,14.73,44a23.38,23.38,0,0,1-.8-5.09V9.05ZM43.34,26.15A6.82,6.82,0,0,0,45.7,30.7a7.87,7.87,0,0,0,5.25,1.72,7.34,7.34,0,0,0,6.21-3,8.35,8.35,0,0,0,1.66-5.09,7.76,7.76,0,0,0-2-5.57,6.76,6.76,0,0,0-8-1.39l.7-3.91h8.36V9.32H46.12l-2.25,12,3.54.48a4.62,4.62,0,0,1,3.43-1.66,3.17,3.17,0,0,1,2.46,1.07,4.58,4.58,0,0,1,1,3.16,5,5,0,0,1-1,3.38,3,3,0,0,1-2.36,1.13A3.16,3.16,0,0,1,48.8,28a3.67,3.67,0,0,1-1.07-2.36ZM1.77,9.22Q3.91,1.5,12.48,1.5H64.55Q73.23,3.7,73.23,11V63.8q0,8-9.43,9.43H10.45Q1.5,71.57,1.5,63.05V12.48ZM9.7,0Q0,2.68,0,10.45V64.29L.75,68Q3.8,75,13,75H61.29Q75,75,75,62V13l-.27-4Q71.79,0,64.28,0Z" transform="translate(0 0)"/></svg>