<svg id="Слой_1" data-name="Слой 1" xmlns="http://www.w3.org/2000/svg" viewBox="0 0 75 75"><title>aluminium</title><path d="M51.64,52.82l2.19,6.11v.27H49.18l2.2-6.37Zm11.2-4.13V66l.48.48h2.89L66.7,66V48.7l-.48-.48H63.32ZM42.59,66.21v.27h3.7q.48,0,1.66-4.13h7.34q1.18,4.13,1.93,4.13h3.43l.22-.27q-6.64-17.14-7.55-18H49.93q-.75,0-7.34,18M40.66,44.09v.22h.48a4.4,4.4,0,0,0,2.68-1q2-1.88,23.41-32.89v-1l-.75-.7h-1q-1.66,1.61-24.86,35.3M58,9.48Q56.09,11,43.13,29.95q-9.05,12.48-9.06,13.66l.75.7h3.91L63.53,9h-.21l-.27-.21H60.37a4.87,4.87,0,0,0-2.41.7M21.91,43.82l.48.48h1q3,0,10-11.68Q49.18,11,49.18,9.48q0-.59-1.44-.7h-1Zm-3.91,0v.48h2q2-2.3,24.8-35V8.79H42.86q-2.09,2.3-24.86,35M28.5,9.27q-2.31,2-11.47,15.8Q4.61,42.05,4.61,43.34v.27l.75.7H15.59l24.86-35V8.79H30.7ZM1.93,8.3Q4.61,1.45,12.64,1.45H63.8q9.75,1.5,9.75,10.23V64.77q-2.14,8.79-10.23,8.78H12.43L8.3,73.07Q1.45,70.55,1.45,62.36V12.64ZM9.27,0Q0,3.05,0,10.45V64.55l.27,1.93Q3.26,75,10.45,75H66q9-3.1,9-10.23V9Q71.84,0,64.55,0Z"/></svg>