<svg id="Слой_1" data-name="Слой 1" xmlns="http://www.w3.org/2000/svg" viewBox="0 0 75 74.86"><title>bamboo</title><path d="M45.7,11.11H32.57V36.93H45.7Zm0,15.81a33.11,33.11,0,0,0,6.43-9.52q8-7.26,15.11-6.35,1.13.11-.21,1.56a16.52,16.52,0,0,1-4,2.85q-7,4-10.61,2.42L45.7,33.05ZM32.57,69.35H45.7V42.09H32.57Zm31.18,4.2a9.72,9.72,0,0,0,9.75-9.79V11.38a9.39,9.39,0,0,0-2.84-6.88,9.5,9.5,0,0,0-6.91-2.85H11.25A9.5,9.5,0,0,0,4.34,4.49a9.3,9.3,0,0,0-2.89,6.88V63.76A9.37,9.37,0,0,0,4.34,70.7a9.5,9.5,0,0,0,6.91,2.85h52.5V75H11.25a10.77,10.77,0,0,1-7.93-3.28,10.77,10.77,0,0,1-3.32-8V11.38a10.76,10.76,0,0,1,3.32-8A10.77,10.77,0,0,1,11.25.14h52.5a10.78,10.78,0,0,1,7.93,3.28,10.77,10.77,0,0,1,3.32,8V63.76A11.26,11.26,0,0,1,63.75,75ZM14.36,51.18q5.73,1.08,9.05-1.24a5.76,5.76,0,0,0,2.2-2.42c0-.57-.11-.88-.32-.92a12.88,12.88,0,0,0-8.2,2.1,11,11,0,0,0-2.73,2.47M12.75,41.6a60.57,60.57,0,0,0,6.65.92q2.09.05,5.79,3.17l7.28,5.54q0,1.56.11,1.24-5.68-5-7.71-6.4.8,0-1.18.21a12.05,12.05,0,0,1-8.09-2.1,10.68,10.68,0,0,1-2.84-2.58m34.18-2a2.56,2.56,0,0,0-.32-1.34,1.11,1.11,0,0,0-1-.59H32.36a1,1,0,0,0-.91.59,2.29,2.29,0,0,0-.38,1.34,2.57,2.57,0,0,0,.38,1.4,1,1,0,0,0,.91.54H45.64a1.13,1.13,0,0,0,1-.54,2.88,2.88,0,0,0,.32-1.4M52.72,19.5q5.46,4.52,10.55,5a7.36,7.36,0,0,0,3.91-.32,11,11,0,0,0-1.23-2.1q-2-2.85-7.77-3a26.85,26.85,0,0,0-5.46.43M52,16.27c.07.25.53.07,1.39-.54a8.28,8.28,0,0,0,1.66-1.51q3.32-4.3,3.21-11.51-5.62,5.81-6.16,7.15a9.8,9.8,0,0,0-.11,6.4" transform="translate(0 -0.14)"/></svg>