<svg id="Слой_1" data-name="Слой 1" xmlns="http://www.w3.org/2000/svg" viewBox="0 0 75 75"><title>carbon steel</title><path d="M21,58.25v1.41a.43.43,0,0,0,.48.49h4a.43.43,0,0,0,.48-.49V58.25c0-.25-.16-.41-.48-.49h-4c-.25,0-.41.16-.48.49m33.76-1.19h1.18q.43,0,.92,1.41H53.76c.32-.94.64-1.41,1-1.41m-8.76,0h1.18c.5.26.75.49.75.71v.71H45.05A1.53,1.53,0,0,1,46,57.06m5.21,2.12v1.19q0,2.93,4,3.52h.92q3.06-.16,3.06-.92V61.56L59,61.08a7.33,7.33,0,0,1-2.37,1q-2.85,0-2.85-1.9H59l.43-.27q0-4.71-4-4.71-4.25.7-4.25,4m-8.71,0v1.19q0,3,4,3.52h1q3.07-.16,3.06-.92V61.56l-.27-.49a6.94,6.94,0,0,1-2.31,1q-2.85,0-2.85-1.9h5.16l.48-.27q0-4.71-4-4.71-4.25.65-4.25,4M37,53.76v1.68c-.65,0-1,.15-1,.43v1c0,.33.32.49,1,.49v3.74a2.48,2.48,0,0,0,2.79,2.82h1.45c.46-.22.7-.45.7-.71v-.92l-.27-.49A1.72,1.72,0,0,0,41,62a1.24,1.24,0,0,1-1.4-1.41V57.33H41.5a.43.43,0,0,0,.48-.49v-1c0-.25-.16-.4-.48-.43H39.62V53.76c0-.25-.16-.4-.48-.43H37.53a.44.44,0,0,0-.48.43m-9.95,2.6A3.39,3.39,0,0,0,28.76,59Q33,60,33,60.86a1.6,1.6,0,0,1-1.67.92q-2.9,0-3.76-1.41c-.25,0-.41.16-.48.49v1.9q0,.71,3.12,1.14h1.4a4,4,0,0,0,4.25-3.25Q35.48,58,34.68,58l-4.73-1.9c0-.87.56-1.33,1.67-1.41a5.47,5.47,0,0,1,3.28,1.14c.32,0,.48-.14.48-.43V53.76q-.21-.87-3.76-1.14-4.52.6-4.52,3.74M10.86,58.25v.22q.59,5.42,4.73,5.42h.7q3.5-.27,3.49-1.14v-1.9l-.21-.49A4.59,4.59,0,0,1,17,61.78q-3.34,0-3.33-3.53.48-3.52,3.06-3.52a11.15,11.15,0,0,1,2.85,1.41h.21V53.76a5,5,0,0,0-3.49-1.14q-4.84,0-5.43,5.63m49.73,4.93a.43.43,0,0,0,.49.49h1.67a.43.43,0,0,0,.48-.49V52.84c0-.25-.16-.42-.48-.49H60.59ZM65.32,8.73Q40.86,43.89,40.59,43.9a.38.38,0,0,0,.43.43,8.56,8.56,0,0,0,2.64-.71q1.77-1.52,9.62-13.44Q67.2,10.95,67.2,9.92V9.43q0-.49-1.4-.71Zm-7,.49Q56.4,10.68,46.93,24.55,34.19,42.49,34.19,43.41v.22c.25.47.49.71.7.71h3.76Q41.5,40.81,63.44,9.21c0-.29-.16-.45-.49-.49h-1.4a12.42,12.42,0,0,0-3.28.49m-14.19,3Q23.76,41.78,21.94,43.9c0,.29.16.43.48.43h.48a8.59,8.59,0,0,0,2.58-.71q2-1.95,9.41-13Q49,10.9,49,9.92V9.43q-.11-.71-1.88-.71h-.22ZM17.9,44.11l.49.22h1.67l16-22.38q7.47-11.27,9-12.74c0-.29-.16-.45-.48-.49H42.9q-2.1,2.39-25,35.38M30.64,8.73q-3.06,0-7.74,8Q6.08,40.37,4.46,43.14c0,.47.32.87,1,1.19H15.59l.43-.22Q38,12.47,40.59,9.21c0-.29-.16-.45-.48-.49ZM4,4.93Q5.81,1.41,14.84,1.41h46q2.1,0,4.73.22,8,2,8,10.62v50.5a17.41,17.41,0,0,1-.27,3q-2,7.8-10.59,7.8h-50a13,13,0,0,1-8-2.38q-3.06-3.69-3.06-6.12V10.62A7.58,7.58,0,0,1,4,4.93M8.49.22Q0,3.52,0,10.84V63.89a13.94,13.94,0,0,0,.22,2.38Q3.33,75,10.38,75H65.81Q75,71.91,75,64.65V9.21Q71.93,0,64.41,0H10.59a13.14,13.14,0,0,0-2.1.22"/></svg>