<svg id="Слой_1" data-name="Слой 1" xmlns="http://www.w3.org/2000/svg" viewBox="0 0 74.87 75"><title>cast iron</title><path d="M69.07,42.54a10.87,10.87,0,0,0,.16-1.88,8.92,8.92,0,0,0-1.39-5.14,5.32,5.32,0,0,0-4.71-2.36,6.14,6.14,0,0,0-5.19,2.57,9,9,0,0,0-1.66,5.46,8,8,0,0,0,1.87,5.63,7,7,0,0,0,5.4,2.09,11.61,11.61,0,0,0,4.92-1l-.59-3.16a10.58,10.58,0,0,1-3.74.64,4.71,4.71,0,0,1-2.62-.69,2.85,2.85,0,0,1-1.23-2.2Zm-8.77-3.21a3.88,3.88,0,0,1,.7-2,2.18,2.18,0,0,1,1.93-1.07,2.08,2.08,0,0,1,1.93,1.13,4.06,4.06,0,0,1,.43,1.93ZM55.85,28.18V32H48.64v4.71h6.74v3.86H48.64V49H44.41V28.18Zm-22,36.48H26.71v.22q0,.75,4.92,1,8.77,0,13.1-4v-.27l-.27-.21Q38,64.66,33.88,64.66M29.17,44.14v2.73q0,7-1.23,9.11,0,2.52-7.86,4.23v.48q.43,1.18,5.4,1.71h2l2.46-.21v-.75H27.46l-2.94-.54V60.7q1.39-.27,1.5-.75,4.39,0,4.38-12.32l-.48-4.93c-.39,0-.64.48-.75,1.45m5.45.27.48,6.64q0,8.63,4,8.62h.7l.27-.21-1.71-2q-1.87,0-2.94-16.29c-.39,0-.64,1.07-.75,3.22M26.5,21.48l-.27.22q5.61,4.82,6.68,6.91,1,5.79,1.71,6.7h.22l.27-.27-.27-3.48q0-5.89-7.86-10.07Zm-2-3.21v.48l2.19,1.72q8.18,5.2,8.88,7.93,2.94,21.86,3.48,22.66A8.13,8.13,0,0,0,43,58.23q7.65,2,7.65,3.22,0,3.54-13.8,7.12v.48h3.48Q56,67.23,56,61.93q0-2.84-7.38-4.93-4.6-1.6-5.88-3.48-2.89-5.68-4.92-26.89-8.18-8.84-12.35-8.84H25Zm19-7.39,4.92-9.16H64.14l3,.48Q73.5,4.77,73.5,13.34V61.66q0,11.84-11.82,11.84H13.45Q1.63,73.5,1.63,62.41V17h.21L21,28.39l2.51-1Q25,29.41,25,33.8q0,12.11-2,17.73Q21.1,56,15.16,56q-7.7,0-8.61,3.21v.48q0,1.72,6.15,6.43,0,4.07,11.55,4.71,5.46-.43,5.46-1.23v-.27l-.27-.27q-11.23,0-12.57-2.47v-.21l1.5-1q1.45,0,1.44-.48v-.48l-.22-.27q-10.37-3-10.37-3.91v-.75A3.76,3.76,0,0,1,12.43,58h.75l4.17,1a9.45,9.45,0,0,0,5.45-1.77q2.56,0,5.13-25.39V30.59q0-3.16-4.38-3.7Q20.83,25.55,20.83,22A31.84,31.84,0,0,1,23,11.36q1.82,0,6.69,3.43A14.44,14.44,0,0,1,34.14,22q2.62,0,9.36-11.09M1.84,9.11Q4.62,1.72,11,1.71H24.25Q18.37,14.14,18.37,22l.22,1.71v.27q-16.84-9.49-17-10.12V12.59ZM8.26.48Q.13,3.59.13,10.61V64.39l.27,2Q3.23,75,11.2,75H63.93l2.19-.27Q75,72,75,63.91V11.09l-.27-2Q72.17,0,63.66,0H11.47A8.41,8.41,0,0,0,8.26.48" transform="translate(-0.13)"/></svg>