<svg id="Слой_1" data-name="Слой 1" xmlns="http://www.w3.org/2000/svg" viewBox="0 0 74.87 74.86"><title>cast zinc alloy</title><path d="M57.19,48.48H61V40.88a3.51,3.51,0,0,1,.11-1,2.05,2.05,0,0,1,2-1.55q1.87,0,1.87,2.84v7.33h3.8V40.67a6.59,6.59,0,0,0-1.23-4.28,3.81,3.81,0,0,0-3.1-1.44A4.19,4.19,0,0,0,62,35.7a4.48,4.48,0,0,0-1.34,1.39h-.05l-.16-1.82H57.09q.1,2.46.11,4.22ZM56,30.3V32.7L48.21,45v.11h7.91v3.42h-13V46.34l8-12.56v-.06H43.82V30.3ZM33.88,64.68H26.71v.21q0,.75,4.92,1,8.77,0,13.1-4l-.54-.48H44a20,20,0,0,1-10.11,3.21M29.17,44.2v2.73Q29.17,55.22,27,58q-6.9,2.14-6.9,2.46v.27q.43,1.18,5.4,1.71h2l2.46-.22v-.75H27.46l-2.94-.53v-.22q1.39-.27,1.5-.75,4.39,0,4.38-12.3l-.48-4.92c-.39,0-.64.48-.75,1.44m5.45.27.48,6.63q0,8.61,4,8.61h.7l.27-.22-1.71-2q-1.87,0-2.94-16.26-.59,0-.75,3.21M26.5,21.58l-.27.21q5.61,4.82,6.68,6.9,1,5.78,1.71,6.69h.22l.27-.27-.27-3.48q0-5.88-7.86-10.05Zm-2-3.21v.48q8.56,6,10.11,7.86.91,0,3.91,21.71,0,7,4.44,9.84,7.65,2,7.65,3.21,0,3.53-13.8,7.11v.48H40Q56,67.25,56,62q0-1.71-2.67-3.21Q43,55.11,43,53.83q-3-5.08-5.13-27.11-8.18-8.82-12.35-8.82H25ZM43.5,11l4.92-9.14H64.14l3,.48Q73.5,4.89,73.5,13.45V61.69q0,11.82-11.82,11.82H13.45q-11.82,0-11.82-11.07V17.14h.21L21,28.48l2.51-1Q25,29.6,25,33.88,25,46,23,51.58,21.1,56,15.16,56q-7.7,0-8.61,3.21v.48q0,1.71,6.15,6.42,0,4.07,11.55,4.71,5.45-.43,5.45-1.23v-.27l-.27-.27q-11.23,0-12.57-2.46v-.22l1.5-1q1.45,0,1.44-.48v-.48l-.22-.27q-10.37-3-10.37-3.9v-.75A3.77,3.77,0,0,1,12.43,58h.75l4.17,1a9.47,9.47,0,0,0,5.45-1.77q2.56,0,5.13-25.35v-1q0-3.58-4.38-4-2.73-1.28-2.73-4.92v-.27A30.86,30.86,0,0,1,23,11.47q1.82,0,6.69,3.42a14.41,14.41,0,0,1,4.44,7.16q2.62,0,9.36-11.07M1.84,9.23Q4.62,1.85,11,1.85H24.25q-5.88,12.41-5.88,20.21l.22,1.71V24q-16.84-9.46-17-10.11V12.7ZM9,.4Q.13,3.29.13,10.72V64.41l.27,2Q3.23,75,11.2,75H63.93l2.19-.27Q75,72,75,63.93V11.21l-.27-2Q72.17.14,63.66.14H11.47Z" transform="translate(-0.13 -0.14)"/></svg>