<svg id="Слой_1" data-name="Слой 1" xmlns="http://www.w3.org/2000/svg" viewBox="0 0 75 75"><title>cast aluminium</title><path d="M33.8,64.66H26.63v.22q0,.75,4.93,1,8.78,0,13.13-4v-.27l-.27-.21q-6.48,3.21-10.61,3.21M29.09,44.14v2.73q0,7-1.23,9.11,0,2.52-7.87,4.23v.48q.43,1.18,5.41,1.71h2l2.46-.21v-.75H27.38l-2.95-.54V60.7q1.39-.27,1.5-.75,4.39,0,4.39-12.32l-.48-4.93c-.39,0-.64.48-.75,1.45m5.46.27L35,51.05q0,8.63,4,8.62h.7l.27-.21-1.71-2q-1.88,0-2.95-16.29c-.39,0-.64,1.07-.75,3.22m20.73-8.14v.27H50.57l2.25-6.43q.48,0,2.46,6.16m9.11-10.34V43.45l.48.48h2.94l.54-.48V25.93l-.54-.54H64.88ZM43.93,43.66v.27h3.69q.48,0,1.72-4.23h7.39q1.18,4.23,2,4.23H62.2l.21-.27Q55.66,26.3,54.75,25.39H51.32q-.7,0-7.39,18.27M26.41,21.48l-.27.22q5.62,4.82,6.7,6.91,1,5.79,1.71,6.7h.22L35,35l-.27-3.48q0-5.89-7.87-10.07Zm-2-3.21v.48l2.2,1.72q8.2,5.2,8.89,7.93Q38.46,50.25,39,51.05a8.13,8.13,0,0,0,3.91,7.18q7.66,2,7.66,3.22,0,3.54-13.82,7.12v.48h3.48Q56,67.23,56,61.93q0-2.84-7.39-4.93Q44,55.4,42.7,53.52q-2.89-5.68-4.93-26.89-8.2-8.84-12.37-8.84h-.48Zm19-7.39,4.93-9.16H64.13l3,.48Q73.5,4.77,73.5,13.34V61.66q0,11.84-11.84,11.84H13.34Q1.5,73.5,1.5,62.41V17h.21L20.95,28.39l2.52-1q1.44,2,1.44,6.43,0,12.11-2,17.73Q21,56,15.05,56,7.34,56,6.43,59.2v.48q0,1.72,6.16,6.43,0,4.07,11.57,4.71,5.47-.43,5.47-1.23v-.27l-.27-.27q-11.25,0-12.59-2.47v-.21l1.5-1c1,0,1.45-.16,1.45-.48v-.48l-.22-.27q-10.39-3-10.39-3.91v-.75A3.77,3.77,0,0,1,12.32,58h.75l4.18,1a9.48,9.48,0,0,0,5.46-1.77q2.57,0,5.14-25.39V30.59q0-3.16-4.39-3.7Q20.73,25.55,20.73,22a31.79,31.79,0,0,1,2.19-10.61q1.82,0,6.7,3.43A14.44,14.44,0,0,1,34.07,22q2.63,0,9.37-11.09M1.71,9.11Q4.5,1.72,10.87,1.71H24.16Q18.27,14.14,18.27,22l.22,1.71v.27Q1.61,14.46,1.5,13.82V12.59ZM8.14.48Q0,3.59,0,10.61V64.39l.27,2Q3.11,75,11.09,75H63.91l2.2-.27Q75,72,75,63.91V11.09l-.27-2Q72.16,0,63.64,0H11.36A8.44,8.44,0,0,0,8.14.48"/></svg>