<svg id="Слой_1" data-name="Слой 1" xmlns="http://www.w3.org/2000/svg" viewBox="0 0 75 75"><title>cold-grip-system</title><path d="M27.64,13.23h-.21l-1.5-1.5-4.77,3.21v.27l.54,2.25v.22H16.18l-.48.53v4.45l.48.54h9q.91.91,6.48,10.71H19.45l-4.5-8.52-5.46,3,2,5.73H9.7l-.48.54v5.46l.48.48h1.77l-2.25,5q.43.75,5.46,3.27l4.5-8.52H31.39q-5.78,10.72-6.48,11H16.72l-.54.48v4.77q0,.75,3.27.75H21.7v.21l-1.28,2q.32.59,5.25,3.21h.75l.48-1.71h.27q.65.27,3.48,4.45,1.07,0,5-3.22l-4.5-8,5.73-10a96,96,0,0,1,6.27,9.48l-4.5,8.46,5,3,3.48-4.5,1.5,1.5h.48l4.77-2.73-1-2.79h5.25l.48-.48v-5l-.48-.48H49.34a96.8,96.8,0,0,1-5.73-10.23v-.27H55.34l4.23,7.77h.21q2.09-.32,5.52-3l-2.52-4.5q2,0,2-.48v-6c0-.32-.75-.48-2.25-.48l3.27-5v-.27q0-.48-5.73-3-.86,0-4.72,8H43.12v-.21l6.21-9.75h8.73l.48-.48V17.46q0-.75-5-.75H53.3l.54-2-5-2.95h-.27l-1.23,1.72L43.88,8.73l-5.25,2.73v.27q0,1.13,5,8.2L37.39,30.16q-1.28-1.44-6-10.5l4.5-7.72L31.12,8.73h-.21a15.1,15.1,0,0,0-3.27,4.5m-25.88-4Q3.91,1.5,12.48,1.5H64.56Q73.23,3.7,73.23,11V63.81q0,8-9.43,9.43H10.45Q1.5,71.58,1.5,63.05V12.48ZM9.7,0Q0,2.68,0,10.45V64.29L.75,68Q3.8,75,13,75H61.29Q75,75,75,61.29V13l-.27-4Q71.79,0,64.29,0Z"/></svg>