<svg id="Слой_1" data-name="Слой 1" xmlns="http://www.w3.org/2000/svg" viewBox="0 0 74.87 74.84"><title>copper base</title><path d="M40.67,35v4.49a1.61,1.61,0,0,0,1,1.71h.22q1.28,0,1.5-.75V35h2.51v8H43.66l-.48-.48-2,.75H40.4q-2.2,0-2.19-3.74V35Zm-7.43-3q3.69.59,3.69,1.28v2.19L34,34.21h-.75q-2.51,0-2.51,3.47.43,3.48,2.73,3.47H34a4.15,4.15,0,0,0,2.46-1.23h.48v2q0,.86-2.94,1.28H32.7q-4.07,0-4.71-5v-1q0-4.38,5.24-5.24M33,24.54q-12.46,6.52-12.46,15.4l.75,4Q25.16,51.11,34,51.1a24,24,0,0,0,8.66-2q12.46-6.2,12.46-15.4l-.48-3q-3.26-8-12.94-8A26.63,26.63,0,0,0,33,24.54m-17.91,4Q27.94,14.32,44.68,14.32a39.72,39.72,0,0,1,7.43,1q14.71,4.38,14.71,16.89v.48q0,5.88-4.28,12.72Q49.7,61.32,31.47,61.32a27.61,27.61,0,0,1-8.71-1.23q-13.42-5-13.42-15.93V42.44q0-6.31,5.72-14M19.76,22Q7.83,32.24,7.83,43.19a26,26,0,0,0,1.23,6.68Q15.37,62.55,30,62.55h3q8,0,17.65-5,17.65-11,17.65-25.34a20.35,20.35,0,0,0-1.44-6.74q-6-12.4-22.14-12.4-13.1,0-24.92,8.93M1.89,9.35Q4,1.66,12.59,1.65h52q8.66,2.19,8.66,9.46V63.83q0,8-9.41,9.41H10.56Q1.63,71.58,1.63,63.08V12.61ZM9.81.16Q.13,2.83.13,10.58V64.31l.75,3.74q3,7,12.19,6.95H61.31Q75,75,75,62.06v-49l-.27-4Q71.79.16,64.3.16Z" transform="translate(-0.13 -0.16)"/></svg>