<svg id="Слой_1" data-name="Слой 1" xmlns="http://www.w3.org/2000/svg" viewBox="0 0 75 75"><defs><style>.cls-1{fill:#050505;}</style></defs><title>dishwasher_safe</title><path id="dishwasher_safe" data-name="dishwasher safe" class="cls-1" d="M33.38,61.77H14.95l-1.23-1h-5l-.54.48v4.5l.54.48H66.27l.54-.48v-5l-.54-.48h-4l-1.77,1.45H43.34q0-.7-1.5-2H34.66a3,3,0,0,0-1.28,2m5.52-3.7h-.54V57.8h.54Zm-7.77-.54h.27v.54h-1.5V57.8Zm17.2-.21h.27v.75H46.82V57.8Zm-10.93-.27v1h-5V56.78a3,3,0,0,0,2-1.23Zm-17.47.75v.27h-5V55.34q4,2.47,5,2.46m46.13-3.75v4H63.27l.27-1.29V54.05Zm-3.54,0v3.27l-1.23.21h-.21V54.05Zm-2.2,0v3.48h-2l-1.23-.21V54.05Zm-4.23,0v2.52l.48,1.5h-1v-4Zm-3.75,0h2.25v4h-5V56.78Zm-1.5,0-1.23,1.29V54.05Zm-2.25,0v1.77q0,1-4.23,1.71h-.27V54.05Zm-5.47,0v3.48l-.27.27-4.5-1V54.05Zm-6,0h.27v2L35.63,54.8c0-.39.5-.64,1.5-.75m-2.25,0a6.37,6.37,0,0,1-2.46,1.77V54.05Zm-3.48,0v2.52l-4.71,1V54.05Zm-5.73,0V57.8l-4.72-.48V54.05Zm-5.73,0v2.73a9.91,9.91,0,0,1-4.71-2.73Zm-6,4h-5v-4h5Zm26.68-5.25v.27H37.39l1-1.5Zm17.95-4.72h2a1.75,1.75,0,0,1,2,2v3H57.05V49.61a3.06,3.06,0,0,1,1.5-1.5M41.09,44.84q0-3.21,1.77-3.21,5.73,1,5.73,5.46-1,5.47-5.25,5.47h-.48a7.3,7.3,0,0,1-3.75-1.5q2-4.87,2-6.21m-2.46-3.75h.48V37.88h-.48Zm28.18-4-.27,2.52H67l.27-2.52v-.48h-.48ZM12.48,39.86H13l-.27-3.21h-.48Zm49.82-.48.21.27q.59,0,1-3.27h-.48Zm-20.2-3,.27.27h.21l.27-.27,2,.27q1.45,0,2.25,3h.27l.21-.27-1-2.25q7,3,7,10v.27a8.49,8.49,0,0,1-2,5.73h-6v-.27q3.75-1.56,3.75-5V46.61q0-4.44-5.73-5.73-.48-3.27-1-3.27h-.21l.75,3.27h-1.5l-.27.21-1-4.45Zm15.43,1v.21h.54l1.23-2.73L59,34.66Zm-7.71-3.27-.21.27,1.72,2.73h.27l.21-.27-1.72-2.73Zm-25.18.27h.54l-.75,1.23v.27h.21l1.29-1.5a7.4,7.4,0,0,1,4,1.5l-1.23,2.73v.27h.27q.32,0,1.45-2.52a7.32,7.32,0,0,1,3,6q-1.13,8.47-8.2,8.46-6.64,0-8.25-8.25a8.16,8.16,0,0,1,4-7l.21.75h.27l.27-.27v-.21l-.27-.27v-.48Zm10,1.71h.21q.48,0,1-2.95h-.27q-.54,0-1,2.95m-8.73-2.46-.27-.27a11.36,11.36,0,0,0-5,1.29l-.75-1.29h-.27l-.21.27.75,1.23-2,2h-.27q-.59-1.5-1-1.5h-.21l.75,2a13.78,13.78,0,0,0-1.29,4.72v2q2.2,7.5,8.73,7.5h.75q4.77,0,8-5.25l1.23-8.94h-.48q-.27,2-.75,2,0-1.5-3.75-4.71-3.21-1-3.21-1.5h-.27Zm27.37,1v.48q2.25-1.82,2.25-2.52v-.21h-.21Zm-44.36.69h.54V32.41H8.95Zm57.86-.21h.48v-3h-.48Zm-22.45-3-.27.27,1.28,3.21h.21l.27-.27-1.23-3.21Zm18.91,2.73.27.27c.32,0,.66-1.09,1-3.27h-.27q-.43,0-1,3m-32.63-.21.27.21a4.93,4.93,0,0,0,1.5-3h-.54Zm-14.46-.27h.27l.27-.27-1.29-2.73h-.48Zm43.4-.75h.48l1.23-2.73-.21-.27a4.8,4.8,0,0,0-1.5,3M47.09,30.91l1.77,2.46h.21l.27-.21a9.23,9.23,0,0,0-2.25-2.78ZM27.43,32.14v.27h.21l2-2.52-.21-.27ZM17.2,29.63l-.27.27,1.77,2.73h.21l.27-.21-1.71-2.78Zm38.9,1.77v.27h.21l2.25-2.25v-.27l-.27-.21Zm-17.47.48h.48l-.21-2.95h-.54Zm2.25-3.48-.27.27c.39,2,.73,3,1,3h.21l-.75-3.27Zm2-.75-.27.27q1,3,1.5,3h.27l-1.23-3.27ZM8.95,28.93l.27,1.72H9.7l-.21-2.47v-.54H8.95Zm57.86-.27-.27,1.72H67l.27-1.72V27.43h-.48ZM11.73,30.91v-.27q0-3.21-.75-3.21,0,3.48.75,3.48m52.55-.75v.21h.48l.54-3.21h-.54Zm-52.07,4q4.88-7.23,13-7.23l5.2,1v.27l-.21.21v.27h.21l.54-.48,2,1-.27,1.23v.27c.5,0,.75-.34.75-1h.27a17.88,17.88,0,0,1,4.71,5,3.07,3.07,0,0,0,.54,2.2h.21l.27-.21a17.84,17.84,0,0,1,1,5.2v1a13.61,13.61,0,0,1-4.45,10.23H14.2A13.54,13.54,0,0,1,9.7,42.86v-1a18.37,18.37,0,0,1,1.77-7h.27v.48h.48Zm32.63-7.71-.21.27,1.71,2.73h.27l.21-.27-1.72-2.73Zm16.45,2.73v.27h.27q.43,0,1.71-3l-.21-.27q-.43,0-1.77,3M14.68,25.66l-.21.27,1.71,2.73-1.23,1h-.27l-1.23-2.95h-.21l-.27.21,1.5,3.27q-2.25,1.77-2.25,2.46h-.27l-.21-.21h-.27a7.75,7.75,0,0,1-1.5,3.7q-.8.7-1.23,6.27a17,17,0,0,0,4,10.71H8.46L8,53.57v5l.48.48H66.54l.48-.48v-5l-.48-.48h-3V49.82q0-2.25-3.21-2.73V41.36H62l.27-.27-.54-.48H57.32l-.27.27.48.48h1.77v5.73q-3.21.48-3.21,3v3H52.82a12.12,12.12,0,0,0,1.77-6l-.27-2.25q-2.95-9.21-10.45-9.22h-1c-.5,0-.75-.82-.75-2.46h-.48l.21,2.46-2,.27q-.54-2.41-3.75-5.25l.54-2.25h-.54l-.21,1.23v.27l-2-1,.48-1v-.27h-.27l-.48.54v.21l-2-.75c.32-.75.64-1.16,1-1.23v-.27l-.21-.21q-1,.48-1,1.23a28.56,28.56,0,0,0-6.21-1,16.33,16.33,0,0,0-8.47,2.25l-1.77-2.73Zm44.36,2v.27h.27l2.25-2.25v-.27l-.27-.21q-.64.21-2.25,2.46M33.16,17.2H9.21l-.48.48v1.77l-.27,1a20.6,20.6,0,0,1,.48,5.73v.27h.54V23.68H9.7q.7,0,1,2.46h.48L11,24.43v-.75h.75q.43,2,1,2H13l-1-2.46.54-.54,1.23,2.25h.21l.27-.27-2-2.95v-1H34.87l-.48,1.23.27,1.29-1.77,1.71v.27l.27.21,1.71-2h.27l.21.27h.27l-1.23,2.73.27.27c.32,0,.8-.91,1.45-2.73l.75.21-.48,3h.48l.54-3h1v3.27h.54V24.16h1c.21,2.18.55,3.27,1,3.27l-.54-3,.54-.48h.21q1,2.94,1.5,2.95v-.21l-1-2.73.48-.75q.43,0,1.77,2.46h.21l.27-.27a8,8,0,0,1-2-4.45h.21l.27-.27H63.8v1L62,23.95v.48h.48q0-.8,1.5-1.77l.27.75-1,1.77.27.21c.32,0,.66-.57,1-1.71h1L65,25.93h.48q.37-2.52,1-2.52h.27v2.52h.48V17.68l-.48-.48H44.63q-2.14-3.27-5-3.27H38.36q-5.2.59-5.2,3.27M9.21,9.7v2.25l.48.54H66.27l.54-.54V9.7l-.54-.48H9.7ZM1.77,9.21Q3.91,1.5,12.48,1.5H64.55Q73.23,3.7,73.23,11V63.8q0,8-9.43,9.43H10.45Q1.5,71.57,1.5,63.05V12.48ZM9.7,0Q0,2.68,0,10.45V64.29L.75,68Q3.8,75,13,75H61.29Q75,75,75,62V13l-.27-4Q71.79,0,64.29,0Z"/></svg>