<svg id="Слой_1" data-name="Слой 1" xmlns="http://www.w3.org/2000/svg" viewBox="0 0 74.87 75"><title>double wall</title><path d="M71,51.8q.8,0,2.19,5.52H67.3L65.8,51.8Zm-16.42-.48q.59,0,1,6a27.68,27.68,0,0,1-6.69-1l.48-5.95a19.49,19.49,0,0,0,5.24,1m-14-4.71-2.25,5.73-5.19-3.27,2.94-5.46ZM27,32.89h.27q0,.7,2.46,4v.27l-4,4.23a19,19,0,0,1-3.48-5ZM22.54,21.16l1.5,4.5q-.59.7-5.24,2.52l-1.23-5.52Zm31.82-9.7q-7.49.48-7.49,6.21,0,.8,5.51,1h.22q1.17-3.26,2.51-3.27,3,.38,3,2.25l-.75,2q-11,8.25-11,12.75l.48.48H63.56l.48-.48V28.66l-.48-.48H55.37v-.27l1.23-1.23q7.43-4.6,7.44-9,0-6.48-8.66-6.48ZM22.27,7v5.52L17,13V7ZM8.1,2.25V14.46q0,11.14,2,16.66,5.61,17.94,19.14,26.68,11.13,8.46,31.87,8.46H72.75q-2.35,7-8.93,7H10.56Q1.63,71.57,1.63,63.05V12.48q0-7.93,6.47-10.23M64.57,1.5Q73.24,3.7,73.23,11V47.09H61.58a36.39,36.39,0,0,1-18.93-5.25Q27.73,30.32,27.73,14.68V1.5ZM26.5,1.5V14.2a31.07,31.07,0,0,0,1.77,10.45q9.15,23.68,33.8,23.68H73.23v2.25H61.58q-12.51,0-21.66-5.73Q23.5,32.47,23.5,15.7V1.5Zm-15.93,0H15.8V17.19q0,10.08,5.72,20.68,14.17,20.68,35.3,20.68H73.23v5.73H59.33q-11.12,0-18.39-2.73Q10.08,48.86,10.08,14.95V2ZM9.81,0Q.13,2.68.13,10.45V64.28L.88,68q3,7,12.19,7H61.31Q75,75,75,61.29V13l-.27-4Q71.79,0,64.3,0Z" transform="translate(-0.13)"/></svg>