<svg id="Слой_1" data-name="Слой 1" xmlns="http://www.w3.org/2000/svg" viewBox="0 0 74.87 74.87"><title>specIcons</title><path d="M32.48,48.9h7v-.53h-7Zm2.73-1.5h3.21v-.53H35.21Zm4.71.75v.48a51.2,51.2,0,0,0,11-1.77v-.48a51.15,51.15,0,0,1-11,1.76M31,36.71q0,2.19,5.45,2.46h.48q5.5-.37,5.51-2.46-1.07-2.25-4.76-2.24h-2Q31,34.89,31,36.71m5.72-3.48q6.58.37,7.7,3.48-.91,3.69-7,3.69H36q-7-.8-7-3.21,1-4,7.7-4M31,27.73q-16.69,2.46-16.68,9l.27,1.5q5,7.7,21.39,7.7H39.7q19.36-2.13,19.36-9.2l-.21-1.5q-5.08-7.7-21.39-7.7H36ZM14.3,34.2Q20.93,27,36.44,27l5.72.27q17.92,2.83,17.92,9.46v.48a4.33,4.33,0,0,1-1,2.73q-7.22,6.73-18.88,6.74H39.7v.48a48.12,48.12,0,0,0,8.45-1q12.19-3.69,12.19-7.92h.21v.22q0,1.23-2,3.74v.27h.27a6.17,6.17,0,0,0,2-3.26h.27v.27l-.75,2.46q-7.22,7.76-23.42,7.75a56.57,56.57,0,0,1-17.38-3q-5.78-2.67-7-6v-.75h.22q0,.86,2.51,3.48,8.34,5.24,16.42,5.24H32v-.48q-4.76,0-12.41-2.73-6.73-3.9-6.74-6.74v-.75h.27l.48,1.76q7.17,7.44,20.16,7.44H34v-.48h-1.5q-19.15-2.56-19.15-9.73Zm3.48-3.48q-3.85,1.44-7,8.72v1.23a4.32,4.32,0,0,0,1,2.73q7.17,8,23.85,8h2l5-.27Q62.8,48.26,62.81,40.19q0-1.87-3.48-6.74-7-6.95-22.41-7-12,0-19.15,4.22M1.89,9.33Q4,1.63,12.59,1.63h52q8.66,2.19,8.66,9.47V63.82q0,8-9.41,9.41H10.56Q1.63,71.58,1.63,63.07V12.59ZM9.81.13Q.13,2.81.13,10.56V64.3L.88,68q3,7,12.19,7H61.31Q75,75,75,62.06v-49l-.27-4Q71.79.13,64.3.13Z" transform="translate(-0.13 -0.13)"/></svg>