<svg id="Слой_1" data-name="Слой 1" xmlns="http://www.w3.org/2000/svg" viewBox="0 0 75 75"><title>energy-saving</title><path d="M42.11,16.45l3.75,1Q60.32,24.7,60.32,38.63a24.58,24.58,0,0,1-1.5,8.46Q51.86,62,37.12,62h-.27a29.37,29.37,0,0,1-7.44-1.23Q13.93,53.68,13.93,38.89q0-5.73,3.75-12.75h.54L36.86,38.36h.54l4.45-21.91Zm-17.95,2Q13.44,26.84,13.45,37.88v2a21.74,21.74,0,0,0,3.27,11.19q7.82,11.73,20.14,11.73a26.86,26.86,0,0,0,9.22-1.71q15-7.45,15-22.18a26.6,26.6,0,0,0-2-9.48q-7.56-14.2-20.89-14.2h-2a26.49,26.49,0,0,0-11.95,3.21M12.21,27.91q8.73-16.44,24.64-16.45a28.18,28.18,0,0,1,13.5,3.48q13.93,8.89,13.93,23.41a33.87,33.87,0,0,1-2.73,12.21Q52.39,65.52,38.14,65.52h-1.5a26,26,0,0,1-13.23-3.75Q10.23,52.88,10.23,39.64V37.39a29.17,29.17,0,0,1,2-9.48M29.63,11.73Q9.48,19.45,9.48,38.89a26.72,26.72,0,0,0,2.25,10.71q8.63,16.66,25.39,16.66a29.83,29.83,0,0,0,13.72-3.48q13.93-9.37,13.93-22.93V37.61a26.74,26.74,0,0,0-3.7-13.18Q51.81,11,38.63,11h-3ZM1.77,9.21Q3.91,1.5,12.48,1.5H63.05q8.78,0,10.18,9.49V63.81q0,8-9.43,9.43H10.45Q1.5,71.58,1.5,63.05V12.48ZM9.7,0Q0,2.68,0,10.45V64.29L.75,68Q3.8,75,13,75H61.29Q75,75,75,61.29V13l-.27-4Q71.79,0,64.29,0Z"/></svg>