<svg id="Слой_1" data-name="Слой 1" xmlns="http://www.w3.org/2000/svg" viewBox="0 0 75 75"><title>forged</title><path d="M20.19,56.73c1.14-.68,1.72-1.16,1.72-1.45a32.46,32.46,0,0,1,17.3-6.8q2.68,0,6.32,3.65Q48.37,57.21,65,73.28H11.46a8.9,8.9,0,0,1-4.39-1q-5.63-2.84-5.62-9.48V37.5Q17.84,56.73,20.19,56.73M55.77,42.11q-.59,1.77-9,9.27-4.45-4.13-7.34-4.12a23.1,23.1,0,0,0-7,1.44h-.27Q46.39,35,47,32.89a67.75,67.75,0,0,1,8.79,9.21M62.36,1.45A10.54,10.54,0,0,1,67,2.2q6.32,2.68,6.32,9.27v44.3h-.21l-12.7-11.2Q38,22.07,18.27,1.45ZM1.93,8.52Q4.34,1.45,12.64,1.45h2.68q1.5,0,5.35,4.39Q45.8,31.66,45.81,32.14q0,1.82-16.07,17a29.66,29.66,0,0,0-9.54,6.11q-1,0-2.41-2Q2.41,37.72,1.45,34.55V12.64ZM8.52.27Q0,3.32,0,10.45V64.28l.48,3.16Q3.64,75,12.64,75H62.57a15.66,15.66,0,0,0,5.63-1Q75,70.77,75,62.57V12.64l-.27-3.86Q71.52,0,64.29,0H10.45Z"/></svg>