<svg id="Слой_1" data-name="Слой 1" xmlns="http://www.w3.org/2000/svg" viewBox="0 0 74.87 75"><title>gas</title><path d="M40.19,51.59v1.5h-3V51.8h.48ZM30,51.05l3.48.53v1.23l-3.74-.48.27-1Zm16.68-.22.22,1.23-2.94.48V51.32Zm-20.43-.75v1.23L24,50.57v-.22l.48-.75Zm25.13-.75.48.48v.27c0,.32-.48.57-1.44.75l-.27-1.23ZM21,47.57l.22.27-.22.75h-.75v-.75Zm38.29,1.77v.27a2.78,2.78,0,0,1-.75,1.72q-5.93,5.73-20.64,5.73-17.59,0-21.87-7a3.67,3.67,0,0,1,1.23-3q4.6,7.5,19.63,7.5,16.79,0,20.91-7.77a3,3,0,0,1,1.5,2.52m-4-2.52.48.53-1,1h-.21l-.54-.48c.07-.36.5-.7,1.29-1M37.46,34.13h2q15.94,1.93,15.94,7.71,0,7.13-17.7,8.25l-4.22-.27Q20,47.57,20,42.37q0-7,17.43-8.25M23,36.64a13.18,13.18,0,0,0-5.72,8.46q-2.73,2.41-2.73,4v1a4.15,4.15,0,0,0,1,2.25q6.63,6.22,22.14,6.21l8.23-.48q15.19-3,15.19-8v-1l-.54-1.72a9.76,9.76,0,0,1-3.74-5.25q-3.1-8.25-18.88-8.95A31.22,31.22,0,0,0,23,36.64m-14-6,1.5,2q0,7.23,6.26,7.23h1.71v-.48q-3.48-2.84-3.48-3.75l.27-1h.75q2,0,4.22,2.2h.22q0-6-7.17-7.23a7.58,7.58,0,0,0-4.28,1m50.54-.75q-4.23,2.52-4.22,6.48h.21q3.1-2.47,4.49-2.47l.75.22v1q0,1.07-3.26,3.75v.22l.75.27q5.29,0,6.74-3.49,0-4.07,1.77-6,0-.75-3.26-.75h-.75a5.92,5.92,0,0,0-3.21.75m-37.06-8-.27.27.27,1v.48l-1.5,5v.75q0,3.32,4.71,5.25H26l-1.28-4v-.27a2.77,2.77,0,0,1,.75-1.71l1.76,1L29,33.16h.22L30,29.62l-.75-3.21q-1.45-3-6.47-4.5Zm23.59,6.75v1q.21,3.27,1,3.27h.27q1.17-4.5,3-4.5.37,0,1,1.5l-1.5,4.23.27.27q5-2.09,5-5.47a20.07,20.07,0,0,0-1.5-5V21.7q-7.49,1.88-7.49,7m-9.68-7q-3.21,3.65-3.21,5v1.23q0,2.09,2.73,5h.22l.27-.27-.27-2.46v-.27q0-2.25,1.5-2.73,1.44,0,1.76,4.23l-.27,1,.27.22q1.17,0,2.46-4.71V26.14q0-3.38-4.44-6.48c-.25,0-.59.68-1,2M1.89,9.21Q4,1.5,12.59,1.5h52Q73.24,3.7,73.23,11V63.8q0,8-9.41,9.43H10.56Q1.63,71.57,1.63,63.05V12.48ZM9.81,0Q.13,2.68.13,10.45V64.29L.88,68q3,7,12.19,7H61.31Q75,75,75,61.29V13l-.27-4Q71.79,0,64.3,0Z" transform="translate(-0.13)"/></svg>