<svg id="Слой_1" data-name="Слой 1" xmlns="http://www.w3.org/2000/svg" viewBox="0 0 74.87 74.87"><title>halogen</title><path d="M31,52.86l-.27.27q0,1.12,6.2,1.71h2a13.93,13.93,0,0,0,6.2-1.5v-.22l-.27-.27a26.84,26.84,0,0,1-7,1.49q-5.08-.48-6.74-1.49Zm-9.46-1.23L24,53.88l-2,2a18.21,18.21,0,0,1-3.69-4.22Zm26.36-4.22V51.1l.48.53h2.24l.48-.53V47.41l-.48-.53H48.37Zm-5,0V51.1l.48.53h2.24l.48-.53V47.41l-.48-.53H43.4Zm-5,0V51.1l.48.53h2.24l.48-.53V47.41l-.48-.53H38.42Zm-5,0V51.1l.48.53H36l.48-.53V47.41L36,46.87H33.45Zm-4.71,0V51.1l.48.53H31l.48-.53V47.41L31,46.87H28.74Zm-5,0V51.1l.48.53H26l.48-.53V47.41L26,46.87H23.77Zm9.2-4.22v.22A4.09,4.09,0,0,0,31,45.91h.22l2.51-2.73h23.1l-1.23,3.69H53.13l-.53.53v4q-6.47,7.22-14.92,7.22A25.16,25.16,0,0,1,28,56.12q-6.47-4.54-6.47-6.47V47.41c0-.36-.41-.53-1.23-.53s-1.51-1.23-2-3.69ZM47.89,27v3.74l.48.48h2.24l.48-.48V27l-.48-.48H48.37Zm-5,0v3.74l.48.48h2.24l.48-.48V27l-.48-.48H43.4Zm-5,0v3.74l.48.48h2.24l.48-.48V27l-.48-.48H38.42Zm-5,0v3.74l.48.48H36l.48-.48V27L36,26.5H33.45Zm-4.71,0v3.74l.48.48H31l.48-.48V27L31,26.5H28.74Zm-5,0v3.74l.48.48H26l.48-.48V27L26,26.5H23.77ZM52.38,21q5.19,4.65,5.19,6.68v3l.53.48h1.5a47.84,47.84,0,0,1,1.23,7.49,40.23,40.23,0,0,1-1.5,8.18H58.1l-.53.53v3Q49.92,61.79,38.21,61.79H36.92a20.86,20.86,0,0,1-14.17-5.45l1.5-1.71h.27a20.74,20.74,0,0,0,12.41,4.44h1.28q8.5,0,14.92-7.22,3-.22,3-.75V48.15l1.44-5.24-.48-.48H34.2l7-8.23H57.08l.27-.22-1.23-4.28V27q0-.48-1.5-.48-.91,0-4-3.74Zm-30.86,6.2Q27.78,19,36.92,19h1.76a17.16,17.16,0,0,1,10.7,4l-1.5,2q-5.56-3-9.46-3H37.19a14.39,14.39,0,0,0-8.93,3.26v.21l.22.27q5.13-3.21,9.46-3.21a20.15,20.15,0,0,1,9.47,3.21h.48l2.25-2.25L52.86,26l-.27,1.71v3l.53.48h2.73l.75,2.25v.27H41.68v-.27l.75-1V32h-.27q-1.6,1.76-2.46,1.77H18.53l.75-2.51q2.25,0,2.25-.48Zm-7,9.68q0-5.72,1.71-5.72a9.66,9.66,0,0,1,2.25-5.72Q26,15.54,37.19,15.53h.75a21.1,21.1,0,0,1,13.69,5l-1.5,2a20.71,20.71,0,0,0-12.67-4.22h-.27q-9.25,0-16.15,8.18H18.79l-.48.48V31.2l.22.27A4.11,4.11,0,0,0,17.78,34v.22H39.92l-6.69,8.23H17.78l-.22.22a13.39,13.39,0,0,0,1.23,4.22l-.48.53v4a5.67,5.67,0,0,1-1.76-3.74,16.34,16.34,0,0,1-2.25-8.93Zm-2.73-8.45Q20.77,11.1,37.46,11.1a36.38,36.38,0,0,1,8.93,1.49q18.66,8,18.66,26.36v.22A29.46,29.46,0,0,1,62.54,50.4q-9,15.88-24.87,15.88-15.4,0-24.33-14.44v-.22h2.73c.32,0,.48-.41.48-1.23q8.23,12.14,20.37,12.14,12.94,0,20.91-10.91h2.51l.48-.53V47.41l-.48-.53h-.27a27.74,27.74,0,0,0,1.23-7.7V37.94a25.71,25.71,0,0,0-1-6.47l.48-.75V27l-.48-.48H57.83v-.27q-7.7-11.44-20.37-11.44a28.53,28.53,0,0,0-8.23,1.5q-9.25,3.9-12.41,11h-.27c0-.5-.16-.75-.48-.75H13.82l-.48.48v3.74c0,.32.48.48,1.44.48a25.62,25.62,0,0,0-1,5.72v3a22.71,22.71,0,0,0,1.23,7H13.82l-.48.53v4a21.93,21.93,0,0,1-3.26-11.93v-1.5a31.07,31.07,0,0,1,1.76-9.47m13.64-15.4Q9.33,22.22,9.33,38.42a28.82,28.82,0,0,0,3.48,14Q22.22,66.82,36,66.82h3.21a27.12,27.12,0,0,0,11-2.78Q65.8,54.73,65.8,39a28.38,28.38,0,0,0-5-16.2q-9.2-12.19-22.41-12.19H36.71a28.85,28.85,0,0,0-11.23,2.51M1.89,9.33Q4,1.63,12.59,1.63H63.07q8.77,0,10.16,9.47V63.82q0,8-9.41,9.41H10.56Q1.63,71.58,1.63,63.07V12.59ZM9.81.13Q.13,2.81.13,10.56V64.3L.88,68q3,7,12.19,7H61.31Q75,75,75,62.06v-49l-.27-4Q71.79.13,64.3.13Z" transform="translate(-0.13 -0.13)"/></svg>