<svg id="Слой_1" data-name="Слой 1" xmlns="http://www.w3.org/2000/svg" viewBox="0 0 75 75"><title>hand-sharpened knives</title><path d="M53.09,61.13c.28,0,.54.41.75,1.23A3,3,0,0,1,52.34,65H51.16l-1-1v-.48q0-2.41,2.95-2.41M20.19,55h.48q5.73,0,6.59,2.2a4.48,4.48,0,0,1-1.45,2.95q-10.23-1.45-10.23-3.64v-.27q.37-1,4.61-1.23m32.89-1.18q1.5.48,1.72,1.18-.86,3.16-2.95,3.16h-1l-1-.48v-.21q0-2,3.16-3.64m-13.18-1.5.27.27a27.4,27.4,0,0,1,3.91,5.09q4.13,2.31,4.12,4.88l-.27,1.23h-.21L47,63.32a27.71,27.71,0,0,1-7.29-10.5v-.48ZM29.2,50.62q-1,2.46-7.29,2.46H19q-3.92-.16-3.91-1v-.48q0-2,2.89-2.47l5.63.27h.48q2.41-.32,2.41-1,1.34,0,2.68,2.14M28,41.41a2.39,2.39,0,0,1,2.19,1.72v.21q-1.77,4.39-7.82,4.39h-.48q-4.39,0-6.11-3.16A3.55,3.55,0,0,1,19,42.86l1,.27h1.45A29.19,29.19,0,0,0,28,41.41M14.14,43.61q1-3.16,2.89-3.16h.27q0,1.77-2.95,3.16ZM20.68,38l3.7,1.93q0,.86-2.68,1.23h-.75a2.16,2.16,0,0,1-2.19-1.93A2.21,2.21,0,0,1,20.68,38m5.14-10.45H18l-3.86.21L8,29.95H7.55l-.27-.21v.21l-.21.27v3.65h.21q5.57-3.7,6.11-4.66l2.68.54,4.88-.27,1.72,1.44h.48l3.91-1.18v.21q0,3.69-6.59,5.14a6.32,6.32,0,0,1-4.12-1.5l-.75.75a4.61,4.61,0,0,0,.75,2.41Q14.89,40.61,8,45.53v.27L8.3,46l3.86-.21a22.76,22.76,0,0,1,.75,5.36v.7a18.69,18.69,0,0,1-2.68,10l.48.48h.48q1.13-.43,2.68-3.91a35.61,35.61,0,0,0,7.55,2.89,4.43,4.43,0,0,1-3.16,4.39v.48H20L21.91,64q6.59-3.8,6.59-6.54L27.75,55l2-1.72,1.66-8.25h.48Q37,59.63,40.93,61.87v-.53Q34.34,49.07,34.34,45.8v-.75h.21Q41.19,61,45.81,65q3.64.37,3.64,1.18h5.84L55,63.8Q55,60.7,58,57.48V55L55.5,45.27v-.7l.27-1.71H56c.35,0,.53.32.53,1v.27l1.66-.48a1.73,1.73,0,0,1,2,1.93L58.93,47Q57,47,57,44.78h-.48v1.5a1.58,1.58,0,0,0,1,1.66h.21l2.2-.48q1.17,0,2.95,3.7,3.05,13.6,5.84,13.61V58.44q-2,0-3.65-6.11-3.69-5.79-3.7-6.54-.59-5.36-3.64-5.36h-.48q-1.87,0-3.64,3.16a16.45,16.45,0,0,0,1.23,7A21.66,21.66,0,0,1,49.93,49L23.84,37q4.87-4.82,4.88-6.8a4.82,4.82,0,0,0-1.18-2.95ZM58.66,8.79,58.45,9v.48L56.52,26V28.5q.43,5.09,1.45,5.09h.21l.27-.7-.27-7.82A49.61,49.61,0,0,1,61.34,9h-.21l-.27-.21Zm-25.29,0q-2.68,8.3-2.68,13.12v.75h.48c.25-1.14.48-1.71.7-1.71Q33.05,10.66,34.55,9h.27l.27,1.23v1.23l-2,12.91.27.21v.27Q26,22.4,7.55,14.84l-.48.48v2.19l.21.27Q28.72,25.55,68.2,41.14l.48-.48V38.95L55,33.86l-.21-9v-1.5q0-9.21,2.89-14.36V8.79ZM12.64,1.23H62.36l3.16.21q8,2.41,8,9.27v55q-2.84,7.82-9.27,7.82H10.72l-2.95-.48Q1.23,70.44,1.23,62.36V12.64q0-11.41,11.41-11.41M8.52.27Q0,3.27,0,10.45V65.73Q2.95,75,10.72,75H63.81l1.93-.27Q75,72.37,75,63.8V10.72l-.27-2.2Q71.63,0,64.56,0H10.45Z"/></svg>