<?xml version="1.0" encoding="utf-8"?>
<!-- Generator: Adobe Illustrator 21.0.0, SVG Export Plug-In . SVG Version: 6.00 Build 0)  -->
<svg version="1.1" id="Слой_1" xmlns="http://www.w3.org/2000/svg" xmlns:xlink="http://www.w3.org/1999/xlink" x="0px" y="0px"
	 viewBox="0 0 75 75" style="enable-background:new 0 0 75 75;" xml:space="preserve">
<style type="text/css">
	.st0{display:none;fill:#050505;}
	.st1{display:none;}
</style>
<path id="dishwasher_safe" class="st0" d="M33.4,61.8H14.9l-1.2-1h-5l-0.5,0.5v4.5l0.5,0.5h57.5l0.5-0.5v-5l-0.5-0.5h-4l-1.8,1.4
	H43.3c0-0.5-0.5-1.1-1.5-2h-7.2C33.8,60.5,33.4,61.2,33.4,61.8 M38.9,58.1h-0.5v-0.3h0.5V58.1z M31.1,57.5h0.3v0.5h-1.5v-0.3
	L31.1,57.5z M48.3,57.3h0.3v0.8h-1.8v-0.3L48.3,57.3z M37.4,57.1v1h-5v-1.3c0.6,0,1.2-0.4,2-1.2L37.4,57.1z M19.9,57.8v0.3h-5v-2.7
	C17.6,57,19.2,57.8,19.9,57.8 M66.1,54.1v4h-2.8l0.3-1.3v-2.7H66.1z M62.5,54.1v3.3l-1.2,0.2h-0.2v-3.5H62.5z M60.3,54.1v3.5h-2
	l-1.2-0.2v-3.3H60.3z M56.1,54.1v2.5l0.5,1.5h-1v-4H56.1z M52.3,54.1h2.2v4h-5v-1.3L52.3,54.1z M50.8,54.1l-1.2,1.3v-1.3H50.8z
	 M48.6,54.1v1.8c0,0.6-1.4,1.2-4.2,1.7h-0.3v-3.5H48.6z M43.1,54.1v3.5l-0.3,0.3l-4.5-1v-2.7H43.1z M37.1,54.1h0.3v2l-1.8-1.3
	C35.6,54.4,36.1,54.2,37.1,54.1 M34.9,54.1c-0.7,0.8-1.5,1.4-2.5,1.8v-1.8H34.9z M31.4,54.1v2.5l-4.7,1v-3.5H31.4z M25.7,54.1v3.7
	l-4.7-0.5v-3.3H25.7z M19.9,54.1v2.7c-1.4-0.2-3-1.2-4.7-2.7H19.9z M13.9,58.1h-5v-4h5V58.1z M40.6,52.8v0.3h-3.2l1-1.5L40.6,52.8z
	 M58.6,48.1h2c1.3,0,2,0.7,2,2v3h-5.5v-3.5C57.4,48.9,57.9,48.4,58.6,48.1 M41.1,44.8c0-2.1,0.6-3.2,1.8-3.2
	c3.8,0.6,5.7,2.5,5.7,5.5c-0.7,3.6-2.4,5.5-5.3,5.5h-0.5c-1,0-2.2-0.5-3.8-1.5C40.4,47.8,41.1,45.7,41.1,44.8 M38.6,41.1h0.5v-3.2
	h-0.5V41.1z M66.8,37.1l-0.3,2.5H67l0.3-2.5v-0.5h-0.5V37.1z M12.5,39.9H13l-0.3-3.2h-0.5L12.5,39.9z M62.3,39.4l0.2,0.3
	c0.4,0,0.7-1.1,1-3.3h-0.5L62.3,39.4z M42.1,36.4l0.3,0.3h0.2l0.3-0.3l2,0.3c1,0,1.7,1,2.3,3h0.3l0.2-0.3l-1-2.2c4.6,2,7,5.3,7,10
	v0.3c0,2.3-0.7,4.2-2,5.7h-6v-0.3c2.5-1,3.8-2.7,3.8-5v-1.2c0-3-1.9-4.9-5.7-5.7c-0.3-2.2-0.7-3.3-1-3.3h-0.2l0.8,3.3h-1.5l-0.3,0.2
	l-1-4.4L42.1,36.4z M57.5,37.4v0.2h0.5l1.2-2.7L59,34.7L57.5,37.4z M49.8,34.1l-0.2,0.3l1.7,2.7h0.3l0.2-0.3l-1.7-2.7H49.8z
	 M24.6,34.4h0.5l-0.8,1.2v0.3h0.2l1.3-1.5c1.4,0.1,2.7,0.6,4,1.5l-1.2,2.7v0.3h0.3c0.2,0,0.7-0.8,1.4-2.5c2,1.6,3,3.6,3,6
	c-0.8,5.6-3.5,8.5-8.2,8.5c-4.4,0-7.2-2.8-8.3-8.3c0-2.8,1.3-5.1,4-7l0.2,0.8h0.3l0.3-0.3v-0.2l-0.3-0.3v-0.5L24.6,34.4z M34.7,36.1
	h0.2c0.3,0,0.7-1,1-2.9h-0.3C35.3,33.2,34.9,34.1,34.7,36.1 M25.9,33.6l-0.3-0.3c-1.6,0-3.2,0.4-5,1.3l-0.8-1.3h-0.3l-0.2,0.3
	l0.8,1.2l-2,2h-0.3c-0.4-1-0.7-1.5-1-1.5h-0.2l0.8,2c-0.9,2.1-1.3,3.6-1.3,4.7v2c1.5,5,4.4,7.5,8.7,7.5h0.8c3.2,0,5.8-1.8,8-5.3
	l1.2-8.9h-0.5c-0.2,1.3-0.4,2-0.7,2c0-1-1.3-2.6-3.8-4.7c-2.1-0.6-3.2-1.1-3.2-1.5h-0.3L25.9,33.6z M53.3,34.7v0.5
	c1.5-1.2,2.3-2.1,2.3-2.5v-0.2h-0.2L53.3,34.7z M8.9,35.4h0.5v-2.9H8.9V35.4z M66.8,35.1h0.5v-3h-0.5V35.1z M44.4,32.1l-0.3,0.3
	l1.3,3.2h0.2l0.3-0.3l-1.2-3.2H44.4z M63.3,34.9l0.3,0.3c0.3,0,0.7-1.1,1-3.3h-0.3C64,31.9,63.7,32.9,63.3,34.9 M30.6,34.7l0.3,0.2
	c1-1.1,1.5-2.1,1.5-3h-0.5L30.6,34.7z M16.2,34.4h0.3l0.3-0.3l-1.3-2.7h-0.5L16.2,34.4z M59.6,33.6h0.5l1.2-2.7l-0.2-0.3
	C60.1,31.6,59.6,32.6,59.6,33.6 M47.1,30.9l1.8,2.5h0.2l0.3-0.2c-0.9-1.5-1.7-2.4-2.2-2.8V30.9z M27.4,32.1v0.3h0.2l2-2.5l-0.2-0.3
	L27.4,32.1z M17.2,29.6l-0.3,0.3l1.8,2.7h0.2l0.3-0.2l-1.7-2.8H17.2z M56.1,31.4v0.3h0.2l2.3-2.2v-0.3l-0.3-0.2L56.1,31.4z
	 M38.6,31.9h0.5l-0.2-2.9h-0.5L38.6,31.9z M40.9,28.4l-0.3,0.3c0.4,2,0.7,3,1,3h0.2l-0.8-3.3H40.9z M42.9,27.6l-0.3,0.3
	c0.7,2,1.2,3,1.5,3h0.3l-1.2-3.3H42.9z M8.9,28.9l0.3,1.7h0.5l-0.2-2.5v-0.5H8.9V28.9z M66.8,28.7l-0.3,1.7H67l0.3-1.7v-1.2h-0.5
	V28.7z M11.7,30.9v-0.3c0-2.1-0.3-3.2-0.8-3.2C11,29.7,11.2,30.9,11.7,30.9 M64.3,30.2v0.2h0.5l0.5-3.2h-0.5L64.3,30.2z M12.2,34.1
	c3.3-4.8,7.6-7.2,13-7.2l5.2,1v0.3l-0.2,0.2v0.3h0.2l0.5-0.5l2,1l-0.3,1.2v0.3c0.5,0,0.8-0.3,0.8-1h0.3c1.7,1.2,3.3,2.9,4.7,5
	c0,1.1,0.2,1.9,0.5,2.2h0.2l0.3-0.2c0.6,2,1,3.8,1,5.2v1c0,4-1.5,7.4-4.4,10.2H14.2c-3-2.8-4.5-6.2-4.5-10.2v-1c0-1.9,0.6-4.2,1.8-7
	h0.3v0.5h0.5V34.1z M44.8,26.4l-0.2,0.3l1.7,2.7h0.3l0.2-0.3l-1.7-2.7H44.8z M61.3,29.1v0.3h0.3c0.3,0,0.9-1,1.7-3l-0.2-0.3
	C62.8,26.1,62.2,27.1,61.3,29.1 M14.7,25.7l-0.2,0.3l1.7,2.7l-1.2,1h-0.3l-1.2-2.9h-0.2L13,26.9l1.5,3.3c-1.5,1.2-2.3,2-2.3,2.5
	h-0.3l-0.2-0.2h-0.3c0,0.9-0.5,2.1-1.5,3.7c-0.5,0.5-0.9,2.6-1.2,6.3c0,3.8,1.3,7.4,4,10.7H8.5L8,53.6v5L8.5,59h58.1l0.5-0.5v-5
	l-0.5-0.5h-3v-3.3c0-1.5-1.1-2.4-3.2-2.7v-5.7H62l0.3-0.3l-0.5-0.5h-4.4l-0.3,0.3l0.5,0.5h1.8v5.7c-2.1,0.3-3.2,1.3-3.2,3v3h-3.3
	c1.2-2.1,1.8-4.1,1.8-6l-0.3-2.2c-2-6.1-5.4-9.2-10.4-9.2h-1c-0.5,0-0.8-0.8-0.8-2.5h-0.5l0.2,2.5l-2,0.3c-0.4-1.6-1.6-3.4-3.8-5.2
	l0.5-2.3h-0.5l-0.2,1.2v0.3l-2-1l0.5-1v-0.3h-0.3l-0.5,0.5v0.2l-2-0.8c0.3-0.7,0.6-1.2,1-1.2v-0.3l-0.2-0.2c-0.7,0.3-1,0.7-1,1.2
	c-2.8-0.7-4.8-1-6.2-1c-3.1,0-5.9,0.8-8.5,2.2l-1.8-2.7H14.7z M59,27.6v0.3h0.3l2.2-2.2v-0.3l-0.3-0.2C60.9,25.3,60.1,26.1,59,27.6
	 M33.2,17.2H9.2l-0.5,0.5v1.8l-0.3,1c0.3,0.9,0.5,2.8,0.5,5.7v0.3h0.5v-2.7h0.2c0.5,0,0.8,0.8,1,2.5h0.5L11,24.4v-0.7h0.8
	c0.3,1.3,0.6,2,1,2H13l-1-2.5l0.5-0.5l1.2,2.2h0.2l0.3-0.3l-2-2.9v-1h22.7l-0.5,1.2l0.3,1.3l-1.8,1.7v0.3l0.3,0.2l1.7-2h0.3l0.2,0.3
	h0.3l-1.2,2.7l0.3,0.3c0.3,0,0.8-0.9,1.4-2.7l0.8,0.2l-0.5,3h0.5l0.5-3h1v3.3h0.5v-3.3h1c0.2,2.2,0.6,3.3,1,3.3l-0.5-3l0.5-0.5h0.2
	c0.6,2,1.1,2.9,1.5,2.9v-0.2l-1-2.7l0.5-0.8c0.3,0,0.9,0.8,1.8,2.5h0.2l0.3-0.3c-1.3-1.8-2-3.2-2-4.4h0.2l0.3-0.3h20.9v1L62,23.9
	v0.5h0.5c0-0.5,0.5-1.1,1.5-1.8l0.3,0.8l-1,1.8l0.3,0.2c0.3,0,0.7-0.6,1-1.7h1L65,25.9h0.5c0.2-1.7,0.6-2.5,1-2.5h0.3v2.5h0.5v-8.3
	l-0.5-0.5H44.6c-1.4-2.2-3.1-3.3-5-3.3h-1.3C34.9,14.3,33.2,15.4,33.2,17.2 M9.2,9.7v2.3l0.5,0.5h56.6l0.5-0.5V9.7l-0.5-0.5H9.7
	L9.2,9.7z M1.8,9.2c1.4-5.1,5-7.7,10.7-7.7h52.1c5.8,1.5,8.7,4.6,8.7,9.5v52.8c0,5.3-3.1,8.5-9.4,9.4H10.4c-6-1.1-8.9-4.5-8.9-10.2
	V12.5L1.8,9.2z M9.7,0C3.2,1.8,0,5.3,0,10.4v53.8L0.8,68c2,4.6,6.1,7,12.2,7h48.3C70.4,75,75,70.7,75,62V13l-0.3-4
	C72.8,3,69.3,0,64.3,0H9.7z"/>
<path id="handwash_recommended" class="st1" d="M27.6,54.2l-2.8,3.1h-0.3l2.9-3.1H27.6z M29.5,52l-1.2,1.5h-0.2l1.2-1.5H29.5z
	 M21.9,50.2h0.2c1,0.8,2.6,1.4,5,1.9c-4.2,4.7-6.6,7.1-7.3,7.1c-2-0.1-3-0.9-3-2.4v-0.7C16.8,55.2,18.5,53.2,21.9,50.2 M19.3,48
	c-1.8,2.2-3.2,3.3-4,3.3h-0.5c-1.2,0-1.9-0.7-2.1-2.1V49c0-0.8,0.9-2,2.6-3.8C16.4,45.2,17.7,46.1,19.3,48 M23.8,60.6
	c6.2-7,9.9-10.4,11.1-10.4c4-3.6,7.9-5.4,11.5-5.4c2.6,0,4.9,1.1,7.1,3.3v0.3c-3,3.5-6.2,6.9-9.7,10.4c-4.9,5.4-7.9,8.1-8.8,8.1
	h-0.5c-1.2,0-1.9-0.7-2.1-2.2v-0.9l13.7-14.9c0-0.9-0.4-1.5-1.2-1.9h-1L33,57.7c-3.5,4.1-5.8,6.1-6.9,6.1c-1.3,0-2.1-0.9-2.3-2.6
	V60.6z M2.4,46.8v0.7c0.4,0.6,0.7,0.9,1,0.9H4c3.1-2.7,6-4,8.8-4l0.9,0.3c-1.7,1.5-2.6,3-2.6,4.2c0,2.2,1.2,3.5,3.5,4h1
	c0.5,0,1.1-0.2,1.9-0.7c-1.6,1.5-2.3,2.7-2.3,3.5V57c0,2,1.4,3.3,4.2,3.8c1.3-0.2,2.4-0.8,3.3-1.7h0.3c-0.5,0.9-0.7,1.5-0.7,1.9
	c0.5,2.9,1.7,4.3,3.6,4.3h1.4c0.9,0,4.4-3.2,10.4-9.7h0.2l-0.7,1c-4.1,3.5-6.1,6.1-6.1,7.8c0,2.2,1.3,3.6,4,4h0.5
	c1.6,0,8.1-6.4,19.5-19.2c2.7,1.9,5.5,2.8,8.3,2.8c4.4,0,7.6-1.5,9.7-4.5c0-0.8-0.2-1.3-0.7-1.4H71c-1.9,2.2-4.2,3.3-7.1,3.3h-1.2
	c-1.6,0-3.4-0.6-5.4-1.7c-3.7-3.6-7.1-5.4-10.4-5.4h-1.4c-1.7,0-3.9,0.6-6.6,1.7c-4.4,3.6-7.8,5.4-10.4,5.4h-1.2
	c-1.5,0-3.2-0.8-5.2-2.4c-3-3.3-6-5-9-5h-0.9C8.7,42.1,5.4,43.7,2.4,46.8 M33,36.5h0.2l-6.6,6.8h-0.2L33,36.5z M21.5,11.1
	c-3.1,0.3-4.7,1.5-4.7,3.8c0.5,3.2,1.8,4.7,4,4.7c1.3-0.3,4.8-0.6,10.6-0.7c1.7,0,2.7,1.1,3,3.3v0.4l-0.2,1.2c-0.1,0-5,5-14.6,14.9
	c-2.6-1.6-4.8-2.4-6.6-2.4h-1c-3.1,0-6.2,1.5-9.2,4.5v0.5c0,0.3,0.2,0.5,0.5,0.5h0.5c3.5-2.7,6.4-4,8.7-4c1.5,0,3.1,0.6,5,1.7
	c3.9,3.9,7.3,5.9,10.4,5.9h0.5c2.1,0,4.2-0.6,6.4-1.9c4.4-3.6,8.3-5.4,11.6-5.4c1.7,0,3.6,0.6,5.9,1.9c3.6,3.6,7.3,5.4,11.1,5.4
	c4.3,0,7.3-1.3,9.2-4v-0.5c0-0.2-0.1-0.4-0.4-0.4h-0.5c-2.2,2.2-4.7,3.3-7.3,3.3h-1.7c-0.6,0-1.3-0.1-2.1-0.2
	c-0.1,0-0.2-0.1-0.2-0.3c4.8-5.9,8.1-10.1,9.7-12.3c-0.4-0.6-0.7-0.9-1-0.9L58.5,42.6c-0.4,0-1-0.3-1.9-0.9c-3.5-3.3-6.7-5-9.7-5
	h-0.5c-2.6,0-5.1,0.6-7.7,1.9c-4.1,3.5-7.5,5.2-10.1,5.2h-0.3c0.1-0.1,2.2-2.3,6.4-6.6V36c-0.3-0.6-0.7-1-1.4-1.2
	c-1,0-3.9,2.7-8.5,8.1c-0.8,0-2.2-0.9-4.3-2.6l8.1-8.5c5-4.5,7.5-7.5,7.5-9v-1.4c-1.2-2.7-2.6-4-4.3-4c-3.9,0.2-7.7,0.4-11.3,0.7
	c-1.4-0.5-2.1-1.4-2.1-2.6v-0.2c0-1.3,0.9-2.2,2.8-2.6v0.3l13-1.5c9.6-0.6,14.4-1.2,14.4-1.7V9l-0.2-0.5
	C47.9,8.5,38.9,9.4,21.5,11.1 M1.9,9.2C3.4,4,6.8,1.4,12,1.4h50.5c2,0,3.5,0.3,4.5,0.8c4.2,2,6.4,4.7,6.4,8v54.7
	c0,0.3-0.2,1.1-0.5,2.4c-1.9,4.3-5.3,6.4-10.4,6.4h-50c-1,0-2-0.1-3-0.3c-5.2-1.6-7.8-4.9-7.8-9.9V11.6C1.7,10.9,1.7,10.1,1.9,9.2
	 M7.5,0.5C2.5,2.5,0,6.6,0,12.8v49.4c0,1,0.1,2.2,0.2,3.5C2.1,71.9,5.6,75,10.6,75h53.5c1.1,0,1.7-0.1,1.9-0.2c6-1.7,9-5.4,9-11.1
	V11.3c0-1.3-0.2-2.3-0.5-3.1C72.6,2.8,69.2,0,64.4,0H10.6C10,0,9,0.2,7.5,0.5"/>
<path id="induction" d="M60.6,24.6c0.7,2.8,1,5.2,1,7.2v0.8c0,2-0.3,4.4-1,7.2c-0.8-0.6-1.4-3.2-1.7-7.7c0.1-2.7,0.6-5.2,1.2-7.5
	H60.6z M24.3,32.4c-0.4,5-0.9,7.4-1.5,7.4c-0.8-3.4-1.2-6.1-1.2-8c0-2.1,0.4-4.5,1.2-7.2C23.5,25.3,24,27.8,24.3,32.4 M13.8,24.6
	c0.6,3.1,1,5.6,1,7.5v0.5c0,1.9-0.3,4.3-1,7.2c-0.7,0-1.3-2.7-1.8-8c0-1.6,0.4-4,1.3-7.2H13.8z M51.1,24.4c0.9,3.2,1.3,5.8,1.3,7.7
	c0,2.5-0.4,5.1-1.3,7.7h-0.2c-0.8-3-1.2-5.6-1.2-8v-0.2c0-1.9,0.4-4.3,1.2-7.2H51.1z M41.9,24.4c0.7,2.7,1.1,5.3,1.3,8
	c-0.2,2.4-0.6,4.9-1.3,7.7h-0.2c-0.9-3-1.3-5.7-1.3-8v-0.8c0-2.1,0.4-4.4,1.3-7H41.9z M32.5,24.4c0.8,3.2,1.2,5.7,1.2,7.4
	c-0.2,4.8-0.7,7.4-1.5,8c-0.8-3-1.2-5.6-1.2-8c0-2.1,0.4-4.6,1.2-7.4H32.5z M10.6,30.6c0,4.4,0.7,8.7,2.2,13
	c-0.2,2.1-1.7,5.3-4.7,9.7l1,1h0.5l4.2-7.7c1.6,4.2,3,6.8,4.2,7.7h0.3c3-4,4.4-6.7,4.4-8H23c1.5,4.1,3,6.8,4.5,8h0.2
	c2.1-2.2,3.6-4.8,4.5-8h0.3c1.3,3.4,2.6,6.1,4,8h0.5c1-0.7,2-2.1,3.3-4.2l1.7-3.5c1.6,4,3,6.6,4.2,7.7h0.3c2.5-2.9,4-5.5,4.5-7.7
	h0.2c1.8,4.1,3.3,6.7,4.5,7.7h0.5c2.4-3.4,3.8-6,4.2-8h0.2c0,1,1.3,3.6,4,8h0.7l0.5-0.5v-0.5c-1.5-1.9-3-5.1-4.5-9.7
	c1.3-4.4,2-8.3,2-11.5c0-4.5-0.9-8.1-2.7-10.7c-2.1,2.3-3.2,5.6-3.2,10c0,4,0.7,7.9,2.2,11.9c-0.7,3-2,5.7-4,8
	c-1-0.9-2.2-3.4-3.5-7.7c1.3-5,2-8.8,2-11.5c0-4.5-1-8.1-3-10.7c-2.1,2.5-3.2,6-3.2,10.4c0,4.1,0.7,8.1,2.2,11.7
	c0,1.3-1.2,4-3.7,8.2c-1.2-1.3-2.5-4-3.7-8.2c1.4-4.6,2-8.3,2-11.2v-3c0-3.3-1-6-3-8c-2.2,2.8-3.3,6.2-3.3,10.4
	c0,3.9,0.7,7.7,2.2,11.5c0,1.2-1.2,3.9-3.5,8.2h-0.3c-0.7-0.5-2-3.1-3.7-8c1.5-4.5,2.2-8.4,2.2-11.7c0-4.4-1-7.9-2.9-10.4
	c-2.2,2-3.3,5.1-3.3,9.5c0,4.3,0.7,8.5,2.2,12.7c-1.2,3.9-2.5,6.6-3.7,8.2c-0.8-0.1-2-2.8-3.7-7.9c1.3-4.9,2-8.6,2-11v-3
	c0-3.1-1-5.9-3-8.5c-2.2,2.3-3.3,5.5-3.3,9.7c0,4,0.7,8.2,2.2,12.5c0,1.6-1.2,4.4-3.7,8.2c-0.8-0.3-2-3-3.7-8.2
	c1.5-4.9,2.2-8.9,2.2-11.9c0-4.2-1.1-7.6-3.3-10.2C11.6,23.7,10.6,26.8,10.6,30.6 M1.9,9.2c1.4-5.1,5-7.7,10.7-7.7h50.5
	c5.8,0,9.2,3.2,10.2,9.5v52.8c0,5.3-3.1,8.5-9.4,9.4H10.6c-6-1.1-8.9-4.5-8.9-10.2V12.5L1.9,9.2z M9.8,0C3.4,1.8,0.1,5.3,0.1,10.4
	v53.8L0.9,68c2,4.6,6.1,7,12.2,7h48.2C70.4,75,75,70.4,75,61.3V13l-0.3-4C72.8,3,69.3,0,64.3,0H9.8z"/>
<path class="st1" d="M44.6,63.1c-4.2,0.6-6.3,1.1-6.3,1.5v1.2l0.5,0.5c5.6,0,10.9-2.2,15.9-6.5l-1.5-1.5h-0.2
	C50.6,60.3,47.7,61.9,44.6,63.1 M18.9,59.3v0.3c5.6,4.5,10.8,6.7,15.5,6.7l0.5-0.5v-1.2l-0.8-0.8c-4,0-8.5-2-13.7-6L18.9,59.3z
	 M43.6,56.8c-3.5,0.8-5.2,1.3-5.2,1.5v1.8l0.3,0.3c3.6,0,7.5-1.6,11.7-4.8v-0.2l-1.5-1.5C47.9,54.7,46.1,55.6,43.6,56.8 M23.2,54.8
	c3.9,3.5,7.6,5.2,10.9,5.2c0.5,0,0.8-0.2,0.8-0.5v-1.5c-4.4-1.1-7.7-2.6-10-4.5h-0.3L23.2,54.8z M43.3,50.1c-3.3,1-4.9,1.6-5,2v1.8
	l0.3,0.2c2.1,0,4.6-1,7.4-3l-1.4-1.7C43.8,49.4,43.3,49.7,43.3,50.1 M27.6,50.6c2.4,2.2,4.7,3.3,6.7,3.3l0.5-0.5v-1.7
	c-2-0.7-3.9-1.5-5.5-2.5C28.9,49.1,28.3,49.6,27.6,50.6 M38.4,45.6v1.8l0.3,0.2l2.7-0.8v-0.5l-1.5-1.5h-0.8L38.4,45.6z M32.1,46.1
	c0,0.3,0.7,0.7,2,1.3c0.5,0,0.8-0.2,0.8-0.5v-1.7l-1-0.8L32.1,46.1z M61.3,45.1c0,2.1-1.7,5.6-5.2,10.4c0,0.5,0.4,1,1.2,1.5h0.5
	l0.3-0.3c4.3-5.8,6.5-11.1,6.5-15.7h-0.3L64,40.9h-1.5C62.3,40.9,61.9,42.3,61.3,45.1 M56.1,40.9c-0.5,3.5-2,6.9-4.5,10.4l1.5,1.5
	c3.5-4.2,5.2-8.1,5.2-11.7h-0.2l-0.3-0.2H56.1z M49.8,40.9l-0.2,0.2c-0.6,2.3-1.4,4.1-2.5,5.5v0.2l1.5,1.5h0.3
	c2.1-2.8,3.2-5.2,3.2-7.2h-0.3l-0.2-0.2H49.8z M42.6,42.4l1.5,1.5h0.5l1-2.5l-0.5-0.5h-1.8C42.9,40.9,42.7,41.4,42.6,42.4
	 M28.9,40.9l-0.3,0.2c0.3,1.5,0.6,2.3,1,2.3l1.8-1.7v-0.3l-0.5-0.5H28.9z M22.4,40.9l-0.3,0.2c0,2.3,1,4.5,3,6.8l1.5-1.2
	c-1.4-3.6-2.2-5.6-2.5-5.7H22.4z M16.2,40.9L16,41.1c0,3.6,1.6,7.4,4.7,11.2l1.5-1.5v-0.3c-0.8-1-1.8-2.7-3-5.2
	c-0.6-3-1-4.5-1.2-4.5H16.2z M10,40.9l-0.3,0.2c0,5.1,2.2,10.2,6.5,15.5h0.3l1.2-1v-0.5c-2.1-2.9-3.7-5.9-4.7-9
	c-0.5-3.5-0.9-5.2-1.2-5.2H10z M28.7,36.4c0,0.5,0.2,0.8,0.5,0.8h1.8l0.5-0.5v-0.3l-1.8-1.7C29.4,34.7,29.1,35.2,28.7,36.4
	 M42.6,35.6c0,0.8,0.2,1.3,0.8,1.5h2l0.2-0.3c-0.5-1.8-1-2.7-1.5-2.7L42.6,35.6z M32.1,31.9l1.5,1.8c0.8-0.1,1.2-0.4,1.2-0.8v-2
	l-0.2-0.3C33,31.1,32.1,31.5,32.1,31.9 M38.4,30.9v1.5l0.8,0.8h0.8l1.5-1.5c0-0.5-0.8-0.9-2.5-1.3L38.4,30.9z M22.2,36.6l0.5,0.5
	h1.8l2.3-5.3c0-0.5-0.5-1.1-1.5-1.7C23.2,32.5,22.2,34.7,22.2,36.6 M47.1,31.1v0.3l1.8,2.7c0.3,2,0.6,3,1,3h2l0.3-0.3
	c-0.7-3.4-1.8-5.8-3.2-7.2h-0.3L47.1,31.1z M16,36.6l0.5,0.5h1.8c0.8-4.3,2.1-7.5,4-9.7v-0.3l-1.5-1.5C17.5,29.7,16,33.3,16,36.6
	 M51.6,26.4c1.9,3.1,3.2,5.7,4,8c0,1.8,0.3,2.7,0.8,2.7h1.8l0.2-0.3c0-3.6-1.7-7.5-5.2-11.7L51.6,26.4z M27.6,27.4l1.5,1.5h0.5
	l1.3-1c2.6-0.8,3.9-1.4,4-1.8v-1.7l-0.2-0.3C32.5,24.2,30.1,25.3,27.6,27.4 M38.6,24.2l-0.3,0.3v2c2.4,0.5,4.4,1.3,6,2.3l1.7-1.5
	c-2.5-2.1-5-3.2-7.4-3.2V24.2z M9.7,36.6l0.5,0.5h1.7c0.7-5.6,2.6-10.2,5.7-13.9v-0.5l-1.2-1.2h-0.3C11.9,26.8,9.7,31.9,9.7,36.6
	 M56.1,21.9l0.2,0.8c2.3,3.1,3.9,6.2,5,9.5c0.5,3.3,0.9,5,1.2,5h1.8l0.3-0.3l-1-5c-1.4-5-3.4-8.6-6-10.9h-0.2L56.1,21.9z M38.4,19.9
	c4.8,1,8.3,2.4,10.5,4.2l1.5-1.5c-3.5-3.1-7.2-4.7-11.2-4.7h-0.8V19.9z M23.4,22.9v0.3l1,1.2l5.5-3c3.2-0.8,4.9-1.4,5-1.8v-1.4
	l-0.2-0.3C31,17.9,27.2,19.6,23.4,22.9 M38.4,12.2v1.5l0.3,0.2c2.6,0.2,4,0.5,4,0.8c3.2,0.4,6.7,2,10.5,5h0.2l1.5-1.4
	c-5.1-4.3-10.4-6.5-15.9-6.5L38.4,12.2z M31.1,12.2c-4.4,0.8-8.5,3-12.2,6.5l1.5,1.5c2.9-2.3,5.7-3.9,8.5-5c4-0.8,5.9-1.3,5.9-1.8
	v-1.5l-0.2-0.2L31.1,12.2z M1.8,9.2c1.4-5.1,5-7.7,10.7-7.7h50.6c5.9,0,9.2,3.2,10.2,9.5v52.8c0,5.3-3.1,8.5-9.4,9.4H10.4
	c-6-1.1-8.9-4.5-8.9-10.2V12.5L1.8,9.2z M9.7,0C3.2,1.8,0,5.3,0,10.4v53.8L0.8,68c2,4.6,6.1,7,12.2,7h48.3C70.4,75,75,70.4,75,61.3
	V13l-0.3-4C72.8,3,69.3,0,64.3,0H9.7z"/>
<path class="st1" d="M31,52.9l-0.3,0.3c0,0.7,2.1,1.3,6.2,1.7h2c2.1,0,4.2-0.5,6.2-1.5v-0.2l-0.3-0.3c-1.7,0.7-4,1.2-7,1.5
	c-3.4-0.3-5.6-0.8-6.7-1.5H31z M21.5,51.6l2.5,2.2l-2,2c-1.3-1-2.5-2.4-3.7-4.2H21.5z M47.9,47.4v3.7l0.5,0.5h2.2l0.5-0.5v-3.7
	l-0.5-0.5h-2.2L47.9,47.4z M42.9,47.4v3.7l0.5,0.5h2.2l0.5-0.5v-3.7l-0.5-0.5h-2.2L42.9,47.4z M37.9,47.4v3.7l0.5,0.5h2.2l0.5-0.5
	v-3.7l-0.5-0.5h-2.2L37.9,47.4z M33,47.4v3.7l0.5,0.5H36l0.5-0.5v-3.7L36,46.9h-2.5L33,47.4z M28.3,47.4v3.7l0.5,0.5H31l0.5-0.5
	v-3.7L31,46.9h-2.2L28.3,47.4z M23.3,47.4v3.7l0.5,0.5H26l0.5-0.5v-3.7L26,46.9h-2.2L23.3,47.4z M32.5,43.2v0.2
	c-1,1-1.5,1.8-1.5,2.5h0.2l2.5-2.7h23.1l-1.2,3.7h-2.5l-0.5,0.5v4c-4.3,4.8-9.3,7.2-14.9,7.2c-2.7,0-5.9-0.8-9.7-2.5
	c-4.3-3-6.5-5.2-6.5-6.5v-2.2c0-0.4-0.4-0.5-1.2-0.5c-0.9,0-1.5-1.2-2-3.7H32.5z M47.9,27v3.7l0.5,0.5h2.2l0.5-0.5V27l-0.5-0.5h-2.2
	L47.9,27z M42.9,27v3.7l0.5,0.5h2.2l0.5-0.5V27l-0.5-0.5h-2.2L42.9,27z M37.9,27v3.7l0.5,0.5h2.2l0.5-0.5V27l-0.5-0.5h-2.2L37.9,27z
	 M33,27v3.7l0.5,0.5H36l0.5-0.5V27L36,26.5h-2.5L33,27z M28.3,27v3.7l0.5,0.5H31l0.5-0.5V27L31,26.5h-2.2L28.3,27z M23.3,27v3.7
	l0.5,0.5H26l0.5-0.5V27L26,26.5h-2.2L23.3,27z M52.4,21c3.5,3.1,5.2,5.3,5.2,6.7v3l0.5,0.5h1.5c0.6,2.7,1.1,5.2,1.2,7.5
	c-0.2,2.6-0.7,5.3-1.5,8.2h-1.2l-0.5,0.5v3C52.5,58,46,61.8,38.2,61.8h-1.3c-5.3,0-10-1.8-14.2-5.5l1.5-1.7h0.3
	c4,3,8.2,4.4,12.4,4.4h1.3c5.7,0,10.6-2.4,14.9-7.2c2-0.1,3-0.4,3-0.7v-2.9l1.4-5.2l-0.5-0.5H34.2l7-8.2h15.9l0.3-0.2l-1.2-4.3V27
	c0-0.3-0.5-0.5-1.5-0.5c-0.6,0-1.9-1.2-4-3.7L52.4,21z M21.5,27.2c4.2-5.5,9.3-8.2,15.4-8.2h1.8c3.7,0,7.3,1.3,10.7,4l-1.5,2
	c-3.7-2-6.9-3-9.5-3h-1.2c-3.1,0-6.1,1.1-8.9,3.3v0.2l0.2,0.3c3.4-2.1,6.6-3.2,9.5-3.2c3.5,0.3,6.6,1.4,9.5,3.2h0.5l2.2-2.2l2.7,2.5
	l-0.3,1.7v3l0.5,0.5h2.7l0.7,2.2v0.3H41.7v-0.3l0.7-1V32h-0.3c-1.1,1.2-1.9,1.8-2.5,1.8H18.5l0.7-2.5c1.5,0,2.2-0.2,2.2-0.5V27.2z
	 M14.6,36.9c0-3.8,0.6-5.7,1.7-5.7c0-1.8,0.7-3.7,2.2-5.7c5-6.6,11.2-9.9,18.7-9.9h0.7c5.1,0,9.6,1.7,13.7,5l-1.5,2
	c-3.8-2.8-8-4.2-12.7-4.2h-0.3C31,18.3,25.6,21,21,26.5h-2.2L18.3,27v4.2l0.2,0.3c-0.4,0.5-0.7,1.3-0.7,2.5v0.2h22.1l-6.7,8.2H17.8
	l-0.2,0.2c0,0.8,0.4,2.2,1.2,4.2l-0.5,0.5v4c-1.2-1.3-1.8-2.5-1.8-3.7c-1.5-2.4-2.2-5.3-2.2-8.9L14.6,36.9z M11.8,28.5
	c6-11.6,14.5-17.4,25.6-17.4c2.2,0,5.2,0.5,8.9,1.5C58.8,17.9,65.1,26.7,65.1,39v0.2c0,3.5-0.8,7.2-2.5,11.2
	c-6,10.6-14.3,15.9-24.9,15.9c-10.3,0-18.4-4.8-24.3-14.4v-0.2h2.7c0.3,0,0.5-0.4,0.5-1.2c5.5,8.1,12.3,12.1,20.4,12.1
	c8.6,0,15.6-3.6,20.9-10.9h2.5l0.5-0.5v-3.7l-0.5-0.5h-0.3c0.8-2.8,1.2-5.4,1.2-7.7v-1.2c0-1.9-0.3-4-1-6.5l0.5-0.7V27l-0.5-0.5
	h-2.5v-0.3c-5.1-7.6-11.9-11.4-20.4-11.4c-2.5,0-5.2,0.5-8.2,1.5c-6.2,2.6-10.3,6.3-12.4,11h-0.3c0-0.5-0.2-0.7-0.5-0.7h-2.2
	L13.3,27v3.7c0,0.3,0.5,0.5,1.4,0.5c-0.6,2.5-1,4.4-1,5.7v3c0,2.1,0.4,4.4,1.2,7h-1.2l-0.5,0.5v4c-2.2-3.5-3.3-7.4-3.3-11.9v-1.5
	C10.1,35.2,10.7,32.1,11.8,28.5 M25.5,13.1C14.7,19.2,9.3,27.6,9.3,38.4c0,5,1.2,9.7,3.5,14c6.3,9.6,14,14.4,23.2,14.4h3.2
	c3.2,0,6.9-0.9,11-2.8C60.6,57.8,65.8,49.5,65.8,39c0-5.9-1.7-11.3-5-16.2c-6.1-8.1-13.6-12.2-22.4-12.2h-1.7
	C33.2,10.6,29.4,11.4,25.5,13.1 M1.9,9.3c1.4-5.1,5-7.7,10.7-7.7h50.5c5.8,0,9.2,3.2,10.2,9.5v52.7c0,5.3-3.1,8.4-9.4,9.4H10.6
	c-6-1.1-8.9-4.5-8.9-10.2V12.6L1.9,9.3z M9.8,0.1C3.4,1.9,0.1,5.4,0.1,10.6v53.7L0.9,68c2,4.6,6.1,7,12.2,7h48.2
	C70.4,75,75,70.7,75,62.1v-49l-0.3-4c-2-6-5.4-8.9-10.4-8.9H9.8z"/>
<path class="st1" d="M40.2,51.6v1.5h-3v-1.3h0.5L40.2,51.6z M30,51.1l3.5,0.5v1.2l-3.7-0.5l0.3-1V51.1z M46.7,50.8l0.2,1.2l-2.9,0.5
	v-1.2L46.7,50.8z M26.2,50.1v1.2L24,50.6v-0.2l0.5-0.8L26.2,50.1z M51.4,49.3l0.5,0.5v0.3c0,0.3-0.5,0.6-1.4,0.8l-0.3-1.2L51.4,49.3
	z M21,47.6l0.2,0.3L21,48.6h-0.7v-0.8L21,47.6z M59.3,49.3v0.3c0,0.5-0.2,1.1-0.7,1.7c-4,3.8-10.8,5.7-20.6,5.7
	c-11.7,0-19-2.3-21.9-7c0-1.3,0.4-2.3,1.2-3c3.1,5,9.6,7.5,19.6,7.5c11.2,0,18.2-2.6,20.9-7.8C58.8,47.5,59.3,48.3,59.3,49.3
	 M55.4,46.8l0.5,0.5l-1,1h-0.2l-0.5-0.5C54.2,47.5,54.6,47.1,55.4,46.8 M37.5,34.1h2c10.6,1.3,15.9,3.9,15.9,7.7
	c0,4.8-5.9,7.5-17.7,8.2l-4.2-0.3c-9-1.5-13.4-4-13.4-7.4C20,37.7,25.8,34.9,37.5,34.1 M23,36.6c-2.9,1.8-4.8,4.6-5.7,8.5
	c-1.8,1.6-2.7,2.9-2.7,4v1c0,0.6,0.3,1.4,1,2.3c4.4,4.1,11.8,6.2,22.1,6.2l8.2-0.5c10.1-2,15.2-4.7,15.2-8v-1l-0.5-1.7
	c-1.9-1.4-3.1-3.1-3.7-5.2c-2.1-5.5-8.4-8.5-18.9-8.9C32.3,33.2,27.4,34.3,23,36.6 M9.1,30.6l1.5,2c0,4.8,2.1,7.2,6.3,7.2h1.7v-0.5
	c-2.3-1.9-3.5-3.1-3.5-3.8l0.3-1h0.7c1.3,0,2.7,0.7,4.2,2.2h0.2c0-4-2.4-6.4-7.2-7.2C11.5,29.6,10.1,30,9.1,30.6 M59.6,29.9
	c-2.8,1.7-4.2,3.8-4.2,6.5h0.2c2.1-1.6,3.6-2.5,4.5-2.5l0.7,0.2v1c0,0.7-1.1,2-3.3,3.8v0.2l0.7,0.3c3.5,0,5.8-1.2,6.7-3.5
	c0-2.7,0.6-4.7,1.8-6c0-0.5-1.1-0.8-3.3-0.8h-0.7C61.5,29.1,60.4,29.4,59.6,29.9 M22.5,21.9l-0.3,0.3l0.3,1v0.5l-1.5,5v0.8
	c0,2.2,1.6,4,4.7,5.2H26l-1.3-4v-0.3c0-0.5,0.2-1.1,0.7-1.7l1.8,1l1.8,3.5h0.2l0.7-3.5l-0.7-3.2c-1-2-3.1-3.5-6.5-4.5H22.5z
	 M46.1,28.7v1c0.1,2.2,0.5,3.3,1,3.3h0.3c0.8-3,1.8-4.5,3-4.5c0.2,0,0.6,0.5,1,1.5l-1.5,4.2l0.3,0.3c3.3-1.4,5-3.2,5-5.5
	c0-0.7-0.5-2.4-1.5-5v-2.3C48.6,22.9,46.1,25.3,46.1,28.7 M36.4,21.7c-2.1,2.4-3.2,4.1-3.2,5v1.2c0,1.4,0.9,3.1,2.7,5h0.2l0.3-0.3
	l-0.3-2.5v-0.3c0-1.5,0.5-2.4,1.5-2.7c1,0,1.6,1.4,1.8,4.2l-0.3,1l0.3,0.2c0.8,0,1.6-1.6,2.5-4.7v-1.8c0-2.3-1.5-4.4-4.4-6.5
	C37.2,19.7,36.9,20.3,36.4,21.7 M1.9,9.2c1.4-5.1,5-7.7,10.7-7.7h52c5.8,1.5,8.7,4.6,8.7,9.5v52.8c0,5.3-3.1,8.5-9.4,9.4H10.6
	c-6-1.1-8.9-4.5-8.9-10.2V12.5L1.9,9.2z M9.8,0C3.4,1.8,0.1,5.3,0.1,10.4v53.8L0.9,68c2,4.6,6.1,7,12.2,7h48.2
	C70.4,75,75,70.4,75,61.3V13l-0.3-4C72.8,3,69.3,0,64.3,0H9.8z"/>
<path class="st1" d="M32.5,48.9h7v-0.5h-7V48.9z M35.2,47.4h3.2v-0.5h-3.2V47.4z M39.9,48.2v0.5c2.5,0,6.1-0.6,11-1.8v-0.5
	C46,47.6,42.4,48.2,39.9,48.2 M31,36.7c0,1.5,1.8,2.3,5.5,2.5h0.5c3.7-0.2,5.5-1.1,5.5-2.5c-0.7-1.5-2.3-2.2-4.8-2.2h-2
	C32.6,34.8,31,35.5,31,36.7 M36.7,33.2c4.4,0.2,7,1.4,7.7,3.5c-0.6,2.5-2.9,3.7-7,3.7H36c-4.6-0.5-7-1.6-7-3.2
	C29.7,34.6,32.2,33.2,36.7,33.2 M31,27.7c-11.1,1.6-16.7,4.6-16.7,9l0.3,1.5c3.4,5.1,10.5,7.7,21.4,7.7h3.7
	c12.9-1.4,19.4-4.5,19.4-9.2l-0.2-1.5c-3.4-5.1-10.5-7.7-21.4-7.7H36L31,27.7z M14.3,34.2c4.4-4.8,11.8-7.2,22.1-7.2l5.7,0.3
	c11.9,1.9,17.9,5,17.9,9.5v0.5c0,1-0.3,1.9-1,2.7c-4.8,4.5-11.1,6.7-18.9,6.7h-0.5v0.5c2.1,0,4.9-0.3,8.4-1
	c8.1-2.5,12.2-5.1,12.2-7.9h0.2v0.2c0,0.8-0.7,2.1-2,3.7v0.3h0.3c1.2-1.2,1.8-2.3,2-3.3h0.3v0.3l-0.7,2.5
	c-4.8,5.2-12.6,7.8-23.4,7.8c-5.4,0-11.2-1-17.4-3c-3.9-1.8-6.2-3.8-7-6v-0.7h0.2c0,0.6,0.8,1.7,2.5,3.5c5.6,3.5,11,5.2,16.4,5.2H32
	v-0.5c-3.2,0-7.3-0.9-12.4-2.7c-4.5-2.6-6.7-4.8-6.7-6.7v-0.7h0.3l0.5,1.8c4.8,5,11.5,7.4,20.2,7.4H34v-0.5h-1.5
	c-12.8-1.7-19.1-5-19.1-9.7L14.3,34.2z M17.8,30.7c-2.6,1-4.9,3.9-7,8.7v1.2c0,1,0.3,1.9,1,2.7c4.8,5.3,12.7,8,23.9,8h2l5-0.3
	c13.4-1.9,20.2-5.5,20.2-10.9c0-1.2-1.2-3.5-3.5-6.7c-4.7-4.6-12.1-7-22.4-7C28.9,26.5,22.5,27.9,17.8,30.7 M1.9,9.3
	c1.4-5.1,5-7.7,10.7-7.7h52c5.8,1.5,8.7,4.6,8.7,9.5v52.7c0,5.3-3.1,8.4-9.4,9.4H10.6c-6-1.1-8.9-4.5-8.9-10.2V12.6L1.9,9.3z
	 M9.8,0.1C3.4,1.9,0.1,5.4,0.1,10.6v53.7L0.9,68c2,4.6,6.1,7,12.2,7h48.2C70.4,75,75,70.7,75,62.1v-49l-0.3-4c-2-6-5.4-8.9-10.4-8.9
	H9.8z"/>
<path class="st1" d="M36.9,60.2c0.6,0.3,1,0.7,1.2,1.4c-0.2,1.3-0.5,1.9-1,1.9h-1c-0.5-0.1-0.9-0.7-1.2-1.7
	C35.2,60.8,35.9,60.2,36.9,60.2 M63.1,55.7h0.5c0.7,0,1.2,1.4,1.4,4.1c-0.3,2.4-0.7,3.6-1.2,3.6h-0.9c-0.5,0-0.9-1-1-3.1v-1.4
	C61.9,57,62.3,55.9,63.1,55.7 M36.4,55.4c0.7,0,1.1,0.4,1.4,1.2c0,0.8-0.2,1.2-0.7,1.4h-1c-0.3-0.1-0.6-0.5-1-1.2
	C35.2,56.2,35.6,55.7,36.4,55.4 M58.5,57.8v2.8c0,3.5,1.6,5.3,4.8,5.3c3.3,0,5-2.1,5-6.2c0-4.3-1.6-6.5-4.8-6.5
	C60.2,53.3,58.5,54.8,58.5,57.8 M52.1,53.3c-0.4,1.1-1.7,2.3-4.1,3.6v2.4h0.3c0.6,0,1.6-0.5,3.1-1.4v7.4l0.5,0.5h2.6l0.4-0.5V53.8
	l-0.4-0.5H52.1z M42.1,65.5l0.5,0.5h0.9c0.3,0,1.4-4.2,3.4-12.4h-0.3l-0.2-0.3h-1C45,53.3,43.9,57.4,42.1,65.5 M32.1,56.2v1
	c0.2,1.2,0.7,1.9,1.4,1.9v0.3c-1,0-1.6,0.9-1.9,2.8c0,2.6,1.7,3.9,5,3.9c3.2-0.3,4.8-1.4,4.8-3.4v-1c0-1.1-0.6-1.9-1.7-2.4
	c0.7-0.8,1.2-1.6,1.4-2.4c0-2.4-1.6-3.6-4.8-3.6C33.5,53.6,32.1,54.5,32.1,56.2 M24.5,54.7l-3.4,2.1V59l0.3,0.3
	c0.7,0,1.9-0.5,3.3-1.4v7.4l0.5,0.5h2.4l0.5-0.5V53.8l-0.5-0.5h-1.9L24.5,54.7z M40.7,44v0.3h0.7c2.1,0,4.5-2.5,7.4-7.6
	C61,19.6,67.1,10.7,67.1,9.9V9.4L66.7,9h-1.4L40.7,44z M52.8,16.3c-12.4,17.2-18.6,26.2-18.6,27v0.5l0.4,0.5h4.1L63.3,9.4V9H60
	C57.9,9,55.6,11.4,52.8,16.3 M22.1,44v0.3h1.2c2.1,0,4.5-2.5,7.4-7.6C42.9,19.6,49,10.7,49,9.9V9.4L48.5,9h-1.7
	C46,9.6,37.7,21.3,22.1,44 M18,44v0.3h2.2L44.7,9.4V9h-1.9C42,9.6,33.7,21.3,18,44 M28.5,9.4c-1.4,1.1-6,7.3-13.6,18.6
	C8.2,37.4,4.8,42.5,4.7,43.3v0.2l0.7,0.7h10.3c1.1-1.1,9.4-12.8,24.8-35.1V9H30.2L28.5,9.4z M11.8,1.6h50.8c6.1,0,9.6,2.9,10.7,8.6
	v55.6c-1.9,5.1-4.9,7.6-9.1,7.6H10.1L8,72.9c-4.3-1.7-6.4-5.1-6.4-10.3V11.8C1.6,5.7,5,2.3,11.8,1.6 M8.5,0.3
	C2.9,2.5,0.1,5.9,0.1,10.6v53.9l0.2,1.9c2,5.7,5.6,8.6,11,8.6h51.7c2.2,0,3.9-0.3,5.2-1c4.5-2.2,6.7-5.8,6.7-11V11.4L74.8,9
	c-2.1-5.9-5.5-8.8-10.3-8.8H10.6L8.5,0.3z"/>
<path class="st1" d="M51.6,52.8l2.2,6.1v0.3h-4.7l2.2-6.4H51.6z M62.8,48.7V66l0.5,0.5h2.9l0.5-0.5V48.7l-0.5-0.5h-2.9L62.8,48.7z
	 M42.6,66.2v0.3h3.7c0.3,0,0.9-1.4,1.7-4.1h7.3c0.8,2.8,1.4,4.1,1.9,4.1h3.4l0.2-0.3c-4.4-11.4-6.9-17.4-7.6-18h-3.4
	C49.4,48.2,47,54.2,42.6,66.2 M40.7,44.1v0.2h0.5c0.9,0,1.8-0.3,2.7-1c1.3-1.3,9.1-12.2,23.4-32.9v-1l-0.8-0.7h-1
	C64.4,9.9,56.1,21.6,40.7,44.1 M58,9.5c-1.3,1-6.2,7.9-14.8,20.5c-6,8.3-9.1,12.9-9.1,13.7l0.8,0.7h3.9L63.5,9h-0.2l-0.3-0.2h-2.7
	C59.6,8.8,58.8,9,58,9.5 M21.9,43.8l0.5,0.5h1c2,0,5.3-3.9,10-11.7C43.9,18.2,49.2,10.5,49.2,9.5c0-0.4-0.5-0.6-1.4-0.7h-1
	L21.9,43.8z M18,43.8v0.5h2c1.4-1.5,9.6-13.2,24.8-35V8.8h-1.9C41.5,10.3,33.2,22,18,43.8 M28.5,9.3C27,10.6,23.1,15.9,17,25.1
	C8.7,36.4,4.6,42.5,4.6,43.3v0.3l0.8,0.7h10.2l24.9-35V8.8h-9.8L28.5,9.3z M1.9,8.3c1.8-4.6,5.4-6.9,10.7-6.9h51.2
	c6.5,1,9.7,4.4,9.7,10.2v53.1c-1.4,5.9-4.8,8.8-10.2,8.8H12.4l-4.1-0.5c-4.6-1.7-6.9-5.2-6.9-10.7V12.6L1.9,8.3z M9.3,0
	C3.1,2,0,5.5,0,10.4v54.1l0.3,1.9c2,5.7,5.4,8.5,10.2,8.5H66c6-2.1,9-5.5,9-10.2V9c-2.1-6-5.6-9-10.4-9H9.3z"/>
<path class="st1" d="M33.8,64.7h-7.2v0.2c0,0.5,1.6,0.8,4.9,1c5.9,0,10.2-1.3,13.1-4v-0.3l-0.3-0.2C40.1,63.6,36.6,64.7,33.8,64.7
	 M29.1,44.1v2.7c0,4.7-0.4,7.7-1.2,9.1c0,1.7-2.6,3.1-7.9,4.2v0.5c0.3,0.8,2.1,1.4,5.4,1.7h2l2.5-0.2v-0.8h-2.5l-2.9-0.5v-0.2
	c0.9-0.2,1.4-0.4,1.5-0.8c2.9,0,4.4-4.1,4.4-12.3l-0.5-4.9C29.4,42.7,29.2,43.2,29.1,44.1 M34.6,44.4l0.5,6.6c0,5.8,1.3,8.6,4,8.6
	h0.7l0.3-0.2l-1.7-2c-1.3,0-2.2-5.4-2.9-16.3C34.9,41.2,34.7,42.3,34.6,44.4 M55.3,36.3v0.3h-4.7l2.3-6.4
	C53.1,30.1,54,32.2,55.3,36.3 M64.4,25.9v17.5l0.5,0.5h2.9l0.5-0.5V25.9l-0.5-0.5h-2.9L64.4,25.9z M43.9,43.7v0.3h3.7
	c0.3,0,0.9-1.4,1.7-4.2h7.4c0.8,2.8,1.4,4.2,2,4.2h3.5l0.2-0.3c-4.5-11.6-7.1-17.7-7.7-18.3h-3.4C50.9,25.4,48.4,31.5,43.9,43.7
	 M26.4,21.5l-0.3,0.2c3.7,3.2,6,5.5,6.7,6.9c0.7,3.9,1.3,6.1,1.7,6.7h0.2L35,35l-0.3-3.5c0-3.9-2.6-7.3-7.9-10.1H26.4z M24.4,18.3
	v0.5l2.2,1.7c5.5,3.5,8.4,6.1,8.9,7.9c2,14.6,3.1,22.1,3.5,22.7c0,3.1,1.3,5.5,3.9,7.2c5.1,1.4,7.7,2.4,7.7,3.2
	c0,2.4-4.6,4.7-13.8,7.1v0.5h3.5C50.7,67.8,56,65.5,56,61.9c0-1.9-2.5-3.5-7.4-4.9c-3.1-1.1-5-2.2-5.9-3.5
	c-1.9-3.8-3.6-12.8-4.9-26.9c-5.5-5.9-9.6-8.8-12.4-8.8h-0.5L24.4,18.3z M43.4,10.9l4.9-9.2h15.8l3,0.5c4.2,1.7,6.4,5.4,6.4,11.1
	v48.3c0,7.9-3.9,11.8-11.8,11.8H13.3c-7.9,0-11.8-3.7-11.8-11.1V17h0.2l19.2,11.4l2.5-1c1,1.4,1.4,3.5,1.4,6.4c0,8.1-0.7,14-2,17.7
	c-1.3,3-3.9,4.4-7.9,4.4c-5.1,0-8,1.1-8.6,3.2v0.5c0,1.1,2.1,3.3,6.2,6.4c0,2.7,3.9,4.3,11.6,4.7c3.6-0.3,5.5-0.7,5.5-1.2v-0.3
	l-0.3-0.3c-7.5,0-11.7-0.8-12.6-2.5v-0.2l1.5-1c1,0,1.4-0.2,1.4-0.5v-0.5l-0.2-0.3c-6.9-2-10.4-3.3-10.4-3.9v-0.8
	c0.7-1,1.8-1.5,3.2-1.5h0.8l4.2,1c1.9,0,3.7-0.6,5.5-1.8c1.7,0,3.4-8.5,5.1-25.4v-1.2c0-2.1-1.5-3.3-4.4-3.7
	c-1.8-0.9-2.7-2.5-2.7-4.9c0-3,0.7-6.6,2.2-10.6c1.2,0,3.4,1.1,6.7,3.4c2.5,2.4,3.9,4.8,4.4,7.2C35.8,22,38.9,18.3,43.4,10.9
	 M1.7,9.1c1.9-4.9,4.9-7.4,9.2-7.4h13.3c-3.9,8.3-5.9,15-5.9,20.3l0.2,1.7v0.3c-11.2-6.3-16.9-9.7-17-10.1v-1.2L1.7,9.1z M8.1,0.5
	C2.7,2.6,0,5.9,0,10.6v53.8l0.3,2C2.2,72.1,5.8,75,11.1,75h52.8l2.2-0.3C72,72.9,75,69.3,75,63.9V11.1l-0.3-2C73,3,69.3,0,63.6,0
	H11.4C10,0,8.9,0.2,8.1,0.5"/>
<path class="st1" d="M57.2,48.5H61v-7.6c0-0.5,0-0.8,0.1-1c0.4-1,1.1-1.6,2-1.6c1.2,0,1.9,0.9,1.9,2.8v7.3h3.8v-7.8
	c0-1.9-0.4-3.3-1.2-4.3c-0.8-1-1.8-1.4-3.1-1.4c-0.9,0-1.7,0.2-2.5,0.7c-0.6,0.4-1,0.9-1.3,1.4h-0.1l-0.2-1.8h-3.3
	c0.1,1.6,0.1,3,0.1,4.2V48.5z M56,30.3v2.4L48.2,45v0.1h7.9v3.4h-13v-2.2l8-12.6v-0.1h-7.3v-3.4H56z M33.9,64.7h-7.2v0.2
	c0,0.5,1.6,0.8,4.9,1c5.8,0,10.2-1.3,13.1-4l-0.5-0.5H44C40.4,63.6,37,64.7,33.9,64.7 M29.2,44.2v2.7c0,5.5-0.7,9.2-2.2,11.1
	c-4.6,1.4-6.9,2.2-6.9,2.5v0.3c0.3,0.8,2.1,1.4,5.4,1.7h2l2.5-0.2v-0.7h-2.5l-2.9-0.5v-0.2c0.9-0.2,1.4-0.4,1.5-0.7
	c2.9,0,4.4-4.1,4.4-12.3l-0.5-4.9C29.5,42.8,29.3,43.2,29.2,44.2 M34.6,44.5l0.5,6.6c0,5.7,1.3,8.6,4,8.6h0.7l0.3-0.2l-1.7-2
	c-1.2,0-2.2-5.4-2.9-16.3C35,41.3,34.7,42.3,34.6,44.5 M26.5,21.6l-0.3,0.2c3.7,3.2,6,5.5,6.7,6.9c0.7,3.9,1.2,6.1,1.7,6.7h0.2
	l0.3-0.3l-0.3-3.5c0-3.9-2.6-7.3-7.9-10.1H26.5z M24.5,18.4v0.5c5.7,4,9.1,6.6,10.1,7.9c0.6,0,1.9,7.2,3.9,21.7
	c0,4.6,1.5,7.9,4.4,9.8c5.1,1.4,7.6,2.4,7.6,3.2c0,2.4-4.6,4.7-13.8,7.1v0.5H40c10.7-1.2,16-3.6,16-7.1c0-1.1-0.9-2.2-2.7-3.2
	C46.4,56.3,43,54.7,43,53.8c-2-3.4-3.7-12.4-5.1-27.1c-5.5-5.9-9.6-8.8-12.4-8.8H25L24.5,18.4z M43.5,11l4.9-9.1h15.7l3,0.5
	c4.2,1.7,6.4,5.4,6.4,11.1v48.2c0,7.9-3.9,11.8-11.8,11.8H13.5c-7.9,0-11.8-3.7-11.8-11.1V17.1h0.2L21,28.5l2.5-1
	c1,1.4,1.4,3.6,1.4,6.4c0,8.1-0.7,14-2,17.7c-1.3,3-3.9,4.4-7.9,4.4c-5.1,0-8,1.1-8.6,3.2v0.5c0,1.1,2,3.3,6.1,6.4
	c0,2.7,3.9,4.3,11.6,4.7c3.6-0.3,5.5-0.7,5.5-1.2v-0.3l-0.3-0.3c-7.5,0-11.7-0.8-12.6-2.5v-0.2l1.5-1c1,0,1.4-0.2,1.4-0.5v-0.5
	l-0.2-0.3c-6.9-2-10.4-3.3-10.4-3.9v-0.7c0.7-1,1.8-1.5,3.2-1.5h0.7l4.2,1c1.9,0,3.7-0.6,5.5-1.8c1.7,0,3.4-8.4,5.1-25.3v-1
	c0-2.4-1.5-3.7-4.4-4c-1.8-0.9-2.7-2.5-2.7-4.9v-0.3c0-2.9,0.7-6.3,2.2-10.3c1.2,0,3.4,1.1,6.7,3.4c2.5,2.4,3.9,4.8,4.4,7.2
	C35.9,22.1,39,18.4,43.5,11 M1.8,9.2C3.7,4.3,6.7,1.8,11,1.8h13.3c-3.9,8.3-5.9,15-5.9,20.2l0.2,1.7V24c-11.2-6.3-16.9-9.7-17-10.1
	v-1.2L1.8,9.2z M9,0.4C3.1,2.3,0.1,5.8,0.1,10.7v53.7l0.3,2C2.3,72.1,5.9,75,11.2,75h52.7l2.2-0.3C72,72.9,75,69.3,75,63.9V11.2
	l-0.3-2C73,3.2,69.3,0.1,63.7,0.1H11.5L9,0.4z"/>
<path class="st1" d="M69.1,42.5c0.1-0.6,0.2-1.2,0.2-1.9c0-2.1-0.5-3.8-1.4-5.1c-1.1-1.6-2.6-2.4-4.7-2.4c-2.2,0-3.9,0.9-5.2,2.6
	c-1.1,1.5-1.7,3.3-1.7,5.5c0,2.4,0.6,4.3,1.9,5.6c1.3,1.4,3.1,2.1,5.4,2.1c1.9,0,3.5-0.3,4.9-1l-0.6-3.2c-1.1,0.4-2.4,0.6-3.7,0.6
	c-1,0-1.9-0.2-2.6-0.7c-0.7-0.5-1.2-1.3-1.2-2.2H69.1z M60.3,39.3c0.1-0.8,0.3-1.4,0.7-2c0.5-0.7,1.1-1.1,1.9-1.1
	c0.9,0,1.5,0.4,1.9,1.1c0.3,0.5,0.4,1.2,0.4,1.9H60.3z M55.9,28.2V32h-7.2v4.7h6.7v3.9h-6.7V49h-4.2V28.2H55.9z M33.9,64.7h-7.2v0.2
	c0,0.5,1.6,0.8,4.9,1c5.8,0,10.2-1.3,13.1-4v-0.3l-0.3-0.2C40.2,63.6,36.6,64.7,33.9,64.7 M29.2,44.1v2.7c0,4.7-0.4,7.7-1.2,9.1
	c0,1.7-2.6,3.1-7.9,4.2v0.5c0.3,0.8,2.1,1.4,5.4,1.7h2l2.5-0.2v-0.8h-2.5l-2.9-0.5v-0.2c0.9-0.2,1.4-0.4,1.5-0.8
	c2.9,0,4.4-4.1,4.4-12.3l-0.5-4.9C29.5,42.7,29.3,43.2,29.2,44.1 M34.6,44.4l0.5,6.6c0,5.8,1.3,8.6,4,8.6h0.7l0.3-0.2l-1.7-2
	c-1.2,0-2.2-5.4-2.9-16.3C35,41.2,34.7,42.3,34.6,44.4 M26.5,21.5l-0.3,0.2c3.7,3.2,6,5.5,6.7,6.9c0.7,3.9,1.2,6.1,1.7,6.7h0.2
	l0.3-0.3l-0.3-3.5c0-3.9-2.6-7.3-7.9-10.1H26.5z M24.5,18.3v0.5l2.2,1.7c5.5,3.5,8.4,6.1,8.9,7.9c2,14.6,3.1,22.1,3.5,22.7
	c0,3.1,1.3,5.5,3.9,7.2c5.1,1.4,7.6,2.4,7.6,3.2c0,2.4-4.6,4.7-13.8,7.1v0.5h3.5C50.8,67.8,56,65.5,56,61.9c0-1.9-2.5-3.5-7.4-4.9
	c-3.1-1.1-5-2.2-5.9-3.5c-1.9-3.8-3.6-12.8-4.9-26.9c-5.5-5.9-9.6-8.8-12.4-8.8H25L24.5,18.3z M43.5,10.9l4.9-9.2h15.7l3,0.5
	c4.2,1.7,6.4,5.4,6.4,11.1v48.3c0,7.9-3.9,11.8-11.8,11.8H13.4c-7.9,0-11.8-3.7-11.8-11.1V17h0.2L21,28.4l2.5-1
	c1,1.4,1.4,3.5,1.4,6.4c0,8.1-0.7,14-2,17.7c-1.3,3-3.9,4.4-7.9,4.4c-5.1,0-8,1.1-8.6,3.2v0.5c0,1.1,2,3.3,6.1,6.4
	c0,2.7,3.8,4.3,11.5,4.7c3.6-0.3,5.5-0.7,5.5-1.2v-0.3l-0.3-0.3c-7.5,0-11.7-0.8-12.6-2.5v-0.2l1.5-1c1,0,1.4-0.2,1.4-0.5v-0.5
	l-0.2-0.3c-6.9-2-10.4-3.3-10.4-3.9v-0.8c0.7-1,1.8-1.5,3.2-1.5h0.7l4.2,1c1.9,0,3.7-0.6,5.5-1.8c1.7,0,3.4-8.5,5.1-25.4v-1.2
	c0-2.1-1.5-3.3-4.4-3.7c-1.8-0.9-2.7-2.5-2.7-4.9c0-3,0.7-6.6,2.2-10.6c1.2,0,3.4,1.1,6.7,3.4c2.5,2.4,3.9,4.8,4.4,7.2
	C35.9,22,39,18.3,43.5,10.9 M1.8,9.1C3.7,4.2,6.7,1.7,11,1.7h13.3c-3.9,8.3-5.9,15-5.9,20.3l0.2,1.7v0.3c-11.2-6.3-16.9-9.7-17-10.1
	v-1.2L1.8,9.1z M8.3,0.5C2.8,2.6,0.1,5.9,0.1,10.6v53.8l0.3,2C2.3,72.1,5.9,75,11.2,75h52.7l2.2-0.3C72,72.9,75,69.3,75,63.9V11.1
	l-0.3-2C73,3,69.3,0,63.7,0H11.5C10.1,0,9,0.2,8.3,0.5"/>
<path class="st1" d="M21,58.3v1.4c0,0.3,0.2,0.5,0.5,0.5h4c0.3,0,0.5-0.2,0.5-0.5v-1.4c0-0.2-0.2-0.4-0.5-0.5h-4
	C21.2,57.8,21,57.9,21,58.3 M54.7,57.1h1.2c0.3,0,0.6,0.5,0.9,1.4h-3.1C54.1,57.5,54.4,57.1,54.7,57.1 M46,57.1h1.2
	c0.5,0.3,0.8,0.5,0.8,0.7v0.7h-2.9C45.1,57.9,45.4,57.4,46,57.1 M51.2,59.2v1.2c0,2,1.3,3.1,4,3.5h0.9c2-0.1,3.1-0.4,3.1-0.9v-1.4
	L59,61.1c-1.2,0.6-2,1-2.4,1c-1.9,0-2.8-0.6-2.8-1.9H59l0.4-0.3c0-3.1-1.3-4.7-4-4.7C52.6,55.6,51.2,57,51.2,59.2 M42.5,59.2v1.2
	c0,2,1.3,3.2,4,3.5h1c2-0.1,3.1-0.4,3.1-0.9v-1.4l-0.3-0.5c-1.2,0.6-2,1-2.3,1c-1.9,0-2.9-0.6-2.9-1.9h5.2l0.5-0.3
	c0-3.1-1.3-4.7-4-4.7C43.9,55.6,42.5,56.9,42.5,59.2 M37,53.8v1.7c-0.6,0-1,0.1-1,0.4v1c0,0.3,0.3,0.5,1,0.5v3.7
	c0,1.9,0.9,2.8,2.8,2.8h1.5c0.5-0.2,0.7-0.5,0.7-0.7v-0.9l-0.3-0.5c-0.1,0-0.4,0.1-0.7,0.3c-0.9,0-1.4-0.5-1.4-1.4v-3.3h1.9
	c0.3,0,0.5-0.2,0.5-0.5v-1c0-0.2-0.2-0.4-0.5-0.4h-1.9v-1.7c0-0.3-0.2-0.4-0.5-0.4h-1.6C37.2,53.3,37.1,53.5,37,53.8 M27.1,56.4
	c0,0.9,0.6,1.8,1.7,2.6c2.8,0.7,4.2,1.3,4.2,1.9c-0.3,0.6-0.8,0.9-1.7,0.9c-1.9,0-3.2-0.5-3.8-1.4c-0.3,0-0.4,0.2-0.5,0.5v1.9
	c0,0.5,1,0.9,3.1,1.1h1.4c2.3,0,3.7-1.1,4.2-3.3c-0.3-1.7-0.6-2.6-1.2-2.6l-4.7-1.9c0-0.9,0.6-1.3,1.7-1.4c1.1,0,2.2,0.4,3.3,1.1
	c0.3,0,0.5-0.1,0.5-0.4v-1.7c-0.1-0.6-1.4-1-3.8-1.1C28.6,53,27.1,54.3,27.1,56.4 M10.9,58.3v0.2c0.4,3.6,2,5.4,4.7,5.4h0.7
	c2.3-0.2,3.5-0.6,3.5-1.1v-1.9l-0.2-0.5c-1.1,0.9-1.9,1.4-2.6,1.4c-2.2,0-3.3-1.2-3.3-3.5c0.3-2.3,1.3-3.5,3.1-3.5
	c1.1,0.4,2.1,0.9,2.9,1.4h0.2v-2.4c-0.8-0.8-2-1.1-3.5-1.1C13.1,52.6,11.3,54.5,10.9,58.3 M60.6,63.2c0,0.3,0.2,0.5,0.5,0.5h1.7
	c0.3,0,0.5-0.2,0.5-0.5V52.8c0-0.3-0.2-0.4-0.5-0.5h-2.2V63.2z M65.3,8.7C49,32.2,40.8,43.9,40.6,43.9c0,0.3,0.1,0.4,0.4,0.4
	c0.5,0,1.4-0.2,2.6-0.7c1.2-1,4.4-5.5,9.6-13.4c9.3-12.8,13.9-19.6,13.9-20.3V9.4c0-0.3-0.5-0.6-1.4-0.7H65.3z M58.3,9.2
	c-1.3,1-5,6.1-11.3,15.3c-8.5,12-12.7,18.2-12.7,18.9v0.2c0.3,0.5,0.5,0.7,0.7,0.7h3.8C40.6,42,48.8,30.3,63.4,9.2
	c0-0.3-0.2-0.5-0.5-0.5h-1.4C60.6,8.7,59.5,8.9,58.3,9.2 M44.1,12.2C30.5,31.9,23.2,42.5,21.9,43.9c0,0.3,0.2,0.4,0.5,0.4h0.5
	c0.5,0,1.4-0.2,2.6-0.7c1.3-1.3,4.5-5.6,9.4-13C44.3,17.5,49,10.6,49,9.9V9.4C49,9,48.3,8.7,47.2,8.7h-0.2L44.1,12.2z M17.9,44.1
	l0.5,0.2h1.7l16-22.4c5-7.5,8-11.8,9-12.7c0-0.3-0.2-0.5-0.5-0.5h-1.7C41.5,10.3,33.2,22.1,17.9,44.1 M30.6,8.7c-2,0-4.6,2.7-7.7,8
	C11.7,32.5,5.5,41.3,4.5,43.1c0,0.5,0.3,0.9,1,1.2h10.2l0.4-0.2C30.7,23,38.9,11.4,40.6,9.2c0-0.3-0.2-0.5-0.5-0.5H30.6z M4,4.9
	c1.2-2.3,4.8-3.5,10.8-3.5h46c1.4,0,3,0.1,4.7,0.2c5.3,1.3,8,4.9,8,10.6v50.5c0,1-0.1,2-0.3,3c-1.4,5.2-4.9,7.8-10.6,7.8h-50
	c-3.2,0-5.9-0.8-8-2.4c-2-2.5-3.1-4.5-3.1-6.1V10.6C1.7,8.3,2.5,6.5,4,4.9 M8.5,0.2C2.8,2.4,0,6,0,10.8v53.1c0,0.8,0.1,1.6,0.2,2.4
	C2.3,72.1,5.7,75,10.4,75h55.4c6.1-2.1,9.2-5.5,9.2-10.3V9.2C73,3.1,69.4,0,64.4,0H10.6C10.1,0,9.4,0.1,8.5,0.2"/>
<path class="st1" d="M29.5,22c0,9.2,0,14.7,0.1,16.7c0.1,3,1.3,5.2,3.5,6.6c1.5,1,3.2,1.4,5,1.4h2.9c1.8,0,3.3-0.1,4.4-0.1h7.1v-3
	c-2.6,0-5.3,0-7.9,0c-2.3,0-4,0-5.2,0.1c-1.9,0-3.5-0.3-4.6-0.9c-1-0.6-1.7-1.4-1.9-2.5c-0.5-3-0.6-6.7-0.3-10.9l0.1-20.7h-3.1
	C29.6,11.6,29.6,16,29.5,22 M25,22.1c0,9.2,0,14.7,0.1,16.7c0.2,5.2,2.3,8.9,6.3,11c1,0.5,1.7,0.8,2.1,0.9c1.7,0.4,4.6,0.6,8.5,0.5
	H43h2.6c4.2,0,6.6,0,7.3-0.1v-2.9c-2.1,0-4.5,0.1-7,0.1c-1.4,0-2.8,0-4.2,0.1c-4.3,0.2-7.6-0.5-10-2c-1.7-1.1-2.6-2.5-2.9-4
	c-0.5-3-0.7-7.2-0.6-12.7L28.2,9h-3.1C25.1,11.7,25.1,16.1,25,22.1 M20,24.8c0,9.4,0.1,14.1,0.1,14c0.2,5.4,1.9,9.5,5,12.4
	c1.5,1.4,3.5,2.5,6.1,3.3c2.2,0.7,4.3,1.1,6.2,1.1h3.1c2,0,3.6,0.1,4.8,0.1c4.2,0,6.6,0,7.3-0.1l-0.1-2.9c-0.9,0-3.3,0-7.1,0.1
	c-7.3,0.1-11.6-0.2-13-0.8c-2.9-1.2-5.1-2.8-6.6-4.8c-1.9-2.4-2.7-6.1-2.6-10.9V9H20C20,13.6,20,18.9,20,24.8 M15.5,24.7
	c0,9.4,0.1,14.1,0.1,14c0.6,7.4,3.4,13,8.3,16.9c2.2,1.8,4.8,2.9,7.8,3.5c2.6,0.5,4.8,0.8,6.4,0.9c4.2,0.2,9,0.2,14.6,0v-3.1
	c-2.8,0-4.8,0.1-6,0.1c-1,0-1.9,0.1-2.6,0.1c-5.7,0.1-9.5-0.2-11.5-0.8c-4-1.2-6.5-2.5-7.7-3.8c-2.5-2.7-4-5-4.7-6.9
	c-1.1-3-1.6-5.3-1.5-6.9V8.9h-3.3C15.5,13.6,15.5,18.8,15.5,24.7 M10.7,9.1c-0.1,10.5-0.1,20.4,0.2,29.8c0.1,6,1.8,11.1,5,15.3
	c3,4.1,7.1,7,12.3,8.7c4.7,1.5,12.8,2,24.4,1.5l-0.1-2.9c-2.7,0-5.7-0.1-9.1-0.1h-5.9c-3.1-0.1-6-0.6-8.7-1.5
	c-3.9-1.3-7-3.3-9.4-6.1c-2.1-2.6-3.7-5.8-4.7-9.7c-0.5-2-0.8-3.7-0.8-5.1V9.1H10.7z M43.3,26.1c0.3,1.9,1,3.4,2.4,4.6
	c1.4,1.1,3.1,1.7,5.3,1.7c2.6,0,4.7-1,6.2-3c1.1-1.5,1.7-3.2,1.7-5.1c0-2.3-0.7-4.1-2-5.6c-1.4-1.4-3.1-2.1-5-2.1
	c-1,0-2.1,0.3-3.1,0.8l0.7-3.9h8.4V9.3H46.1l-2.3,12l3.5,0.5c1-1.1,2.2-1.7,3.4-1.7c1,0,1.8,0.4,2.5,1.1s1,1.8,1,3.2
	c0,1.5-0.3,2.7-1,3.4c-0.6,0.8-1.4,1.1-2.4,1.1c-0.8,0-1.5-0.3-2.1-0.9c-0.6-0.6-1-1.4-1.1-2.4L43.3,26.1z M1.8,9.2
	c1.4-5.1,5-7.7,10.7-7.7h52.1c5.8,1.5,8.7,4.6,8.7,9.5v52.8c0,5.3-3.1,8.5-9.4,9.4H10.4c-6-1.1-8.9-4.5-8.9-10.2V12.5L1.8,9.2z
	 M9.7,0C3.2,1.8,0,5.3,0,10.4v53.8L0.8,68c2,4.6,6.1,7,12.2,7h48.3C70.4,75,75,70.7,75,62V13l-0.3-4C72.8,3,69.3,0,64.3,0H9.7z"/>
<path class="st1" d="M71,51.8c0.5,0,1.3,1.8,2.2,5.5h-5.9l-1.5-5.5H71z M54.6,51.3c0.4,0,0.7,2,1,6c-1.8,0-4-0.3-6.7-1l0.5-5.9
	C51.6,51,53.3,51.3,54.6,51.3 M40.7,46.6l-2.2,5.7l-5.2-3.3l2.9-5.5L40.7,46.6z M27,32.9h0.3c0,0.5,0.8,1.8,2.5,4v0.3l-4,4.2
	c-1.1-1.1-2.3-2.7-3.5-5L27,32.9z M22.5,21.2l1.5,4.5c-0.4,0.5-2.1,1.3-5.2,2.5l-1.2-5.5L22.5,21.2z M54.4,11.5
	c-5,0.3-7.5,2.4-7.5,6.2c0,0.5,1.8,0.9,5.5,1h0.2c0.8-2.2,1.6-3.3,2.5-3.3c2,0.3,3,1,3,2.3l-0.7,2c-7.3,5.5-11,9.7-11,12.8l0.5,0.5
	h16.7l0.5-0.5v-3.8l-0.5-0.5h-8.2v-0.3l1.2-1.2c5-3.1,7.4-6.1,7.4-9c0-4.3-2.9-6.5-8.7-6.5L54.4,11.5z M22.3,7v5.5L17,13V7H22.3z
	 M8.1,2.3v12.2c0,7.4,0.7,13,2,16.7c3.7,12,10.1,20.9,19.1,26.7c7.4,5.6,18,8.5,31.9,8.5h11.7c-1.6,4.6-4.5,7-8.9,7H10.6
	c-6-1.1-8.9-4.5-8.9-10.2V12.5C1.6,7.2,3.8,3.8,8.1,2.3 M64.6,1.5c5.8,1.5,8.7,4.6,8.7,9.5v36.1H61.6c-6.7,0-13-1.8-18.9-5.3
	c-9.9-7.7-14.9-16.7-14.9-27.2V1.5H64.6z M26.5,1.5v12.7c0,3.6,0.6,7.1,1.8,10.4c6.1,15.8,17.4,23.7,33.8,23.7h11.2v2.3H61.6
	c-8.3,0-15.6-1.9-21.7-5.7c-10.9-8.2-16.4-18-16.4-29.1V1.5H26.5z M10.6,1.5h5.2v15.7c0,6.7,1.9,13.6,5.7,20.7
	C31,51.7,42.7,58.6,56.8,58.6h16.4v5.7H59.3c-7.4,0-13.5-0.9-18.4-2.7c-20.6-8.5-30.9-24-30.9-46.6V2L10.6,1.5z M9.8,0
	C3.4,1.8,0.1,5.3,0.1,10.4v53.8L0.9,68c2,4.6,6.1,7,12.2,7h48.2C70.4,75,75,70.4,75,61.3V13l-0.3-4C72.8,3,69.3,0,64.3,0H9.8z"/>
<path class="st1" d="M45.7,11.1H32.6v25.8h13.1V11.1z M45.7,26.9c2.5-2.5,4.6-5.7,6.4-9.5c5.4-4.8,10.4-7,15.1-6.3
	c0.8,0.1,0.7,0.6-0.2,1.6c-0.9,0.9-2.2,1.9-4,2.8c-4.6,2.7-8.2,3.5-10.6,2.4l-6.7,15.2V26.9z M32.6,69.4h13.1V42.1H32.6V69.4z
	 M63.8,73.6c2.7,0,5-1,6.9-2.9c1.9-1.9,2.8-4.2,2.8-6.9V11.4c0-2.7-0.9-5-2.8-6.9c-1.9-1.9-4.2-2.9-6.9-2.9H11.2c-2.7,0-5,1-6.9,2.9
	c-1.9,1.9-2.9,4.2-2.9,6.9v52.4c0,2.7,1,5,2.9,6.9c1.9,1.9,4.2,2.9,6.9,2.9H63.8V75H11.2c-3.1,0-5.7-1.1-7.9-3.3
	c-2.2-2.2-3.3-4.8-3.3-8V11.4c0-3.1,1.1-5.8,3.3-8c2.2-2.2,4.8-3.3,7.9-3.3h52.5c3.1,0,5.8,1.1,7.9,3.3c2.2,2.2,3.3,4.8,3.3,8v52.4
	c0,3.1-1.1,5.8-3.3,8c-2.2,2.2-4.8,3.3-7.9,3.3V73.6z M14.4,51.2c3.8,0.7,6.8,0.3,9.1-1.2c1.1-0.8,1.8-1.6,2.2-2.4
	c0-0.6-0.1-0.9-0.3-0.9c-3-0.2-5.7,0.5-8.2,2.1C15.9,49.5,15,50.4,14.4,51.2 M12.8,41.6c3,0.5,5.3,0.8,6.6,0.9
	c1.4,0,3.3,1.1,5.8,3.2l7.3,5.5c0,1,0,1.5,0.1,1.2c-3.8-3.3-6.4-5.5-7.7-6.4c0.5,0,0.1,0.1-1.2,0.2c-2.9,0.3-5.6-0.4-8.1-2.1
	C14.3,43.4,13.4,42.5,12.8,41.6 M46.9,39.6c0-0.5-0.1-1-0.3-1.3c-0.3-0.4-0.6-0.6-1-0.6H32.4c-0.4,0-0.7,0.2-0.9,0.6
	c-0.3,0.4-0.4,0.8-0.4,1.3c0,0.5,0.1,1,0.4,1.4c0.2,0.4,0.5,0.5,0.9,0.5h13.3c0.4,0,0.7-0.2,1-0.5C46.8,40.6,46.9,40.1,46.9,39.6
	 M52.7,19.5c3.6,3,7.2,4.7,10.6,5c1.6,0.2,2.9,0.1,3.9-0.3c-0.2-0.5-0.6-1.2-1.2-2.1c-1.3-1.9-3.9-2.9-7.8-3
	C56.3,19,54.4,19.2,52.7,19.5 M52,16.3c0.1,0.3,0.5,0.1,1.4-0.5c0.8-0.6,1.4-1.1,1.7-1.5c2.2-2.9,3.3-6.7,3.2-11.5
	c-3.7,3.9-5.8,6.3-6.2,7.2C51.4,11.9,51.3,14,52,16.3"/>
<path class="st1" d="M40.7,35v4.5c0,0.9,0.3,1.5,1,1.7h0.2c0.9,0,1.4-0.2,1.5-0.7V35h2.5v8h-2.2l-0.5-0.5l-2,0.7h-0.7
	c-1.5,0-2.2-1.2-2.2-3.7V35H40.7z M33.2,32c2.5,0.4,3.7,0.8,3.7,1.3v2.2L34,34.2h-0.7c-1.7,0-2.5,1.2-2.5,3.5
	c0.3,2.3,1.2,3.5,2.7,3.5H34c0.7,0,1.5-0.4,2.5-1.2h0.5v2c0,0.6-1,1-2.9,1.3h-1.3c-2.7,0-4.3-1.7-4.7-5v-1
	C28,34.3,29.7,32.5,33.2,32 M33,24.5c-8.3,4.3-12.5,9.5-12.5,15.4l0.7,4c2.6,4.8,6.8,7.2,12.7,7.2c2.5,0,5.3-0.7,8.7-2
	C51,45,55.1,39.9,55.1,33.7l-0.5-3c-2.2-5.3-6.5-8-12.9-8C39.2,22.8,36.3,23.4,33,24.5 M15.1,28.5c8.6-9.4,18.5-14.2,29.6-14.2
	c3,0.2,5.5,0.5,7.4,1c9.8,2.9,14.7,8.6,14.7,16.9v0.5c0,3.9-1.4,8.2-4.3,12.7C54,56,43.6,61.3,31.5,61.3c-3.4,0-6.3-0.4-8.7-1.2
	c-8.9-3.3-13.4-8.6-13.4-15.9v-1.7C9.3,38.2,11.2,33.6,15.1,28.5 M19.8,22c-8,6.8-11.9,13.9-11.9,21.2c0,1.6,0.4,3.8,1.2,6.7
	c4.2,8.4,11.2,12.7,20.9,12.7h3c5.3,0,11.2-1.7,17.6-5c11.8-7.3,17.6-15.8,17.6-25.3c-0.3-3.1-0.8-5.4-1.4-6.7
	c-4-8.3-11.4-12.4-22.1-12.4C35.9,13.1,27.6,16.1,19.8,22 M1.9,9.4c1.4-5.1,5-7.7,10.7-7.7h52c5.8,1.5,8.7,4.6,8.7,9.5v52.7
	c0,5.3-3.1,8.4-9.4,9.4H10.6c-6-1.1-8.9-4.5-8.9-10.2V12.6L1.9,9.4z M9.8,0.2C3.4,1.9,0.1,5.4,0.1,10.6v53.7l0.7,3.7
	C2.9,72.7,7,75,13.1,75h48.2C70.4,75,75,70.7,75,62.1v-49l-0.3-4c-2-6-5.4-8.9-10.4-8.9H9.8z"/>
<path class="st1" d="M29.4,68.3c2.2-18.5,4.4-27.8,6.5-27.8h37.6v23l-0.3,2c-1.3,5.3-4.5,8-9.8,8H29.1L29.4,68.3z M34.1,36.7h39.4
	v1.7H35.6c-3.9,0-6.7,11.6-8.5,34.8v0.3h-1.8C27.6,49,30.5,36.7,34.1,36.7 M73.5,32.2H37.6V18.6h35.9V32.2z M7.5,17.7
	c0,0.5,1.9,0.9,5.8,1.2c0.3-1.8,1.1-2.7,2.3-2.7c1.5,0,2.3,0.7,2.3,2v0.3c0,0.6-0.3,1.3-1,2c-1.7,0.1-2.5,0.4-2.5,0.7v1.8L14,24.7
	l0.3,0.3l1.2-0.3h0.8c1.7,0,2.5,1,2.5,3c-0.2,2-1,3-2.5,3h-0.5c-1.2,0-2.1-1-2.8-3c-3.8,0.3-5.7,0.7-5.7,1c1.1,3.8,3.8,5.7,8,5.7h2
	c5-0.7,7.6-2.8,7.6-6.3v-1.5c-0.6-2.8-1.9-4.2-3.8-4.2c1.9-1.4,2.8-2.9,2.8-4.3v-0.5c0-3.5-2.7-5.3-8-5.3h-0.3
	C11.5,12.4,8.8,14.1,7.5,17.7 M11.8,1.6h52.7c6,1.3,9.1,4.6,9.1,9.8v3H33.6l-0.5,0.5v19.8c-1.5,0-3.3,2.7-5.3,8
	c-3,14.8-4.6,25-4.6,30.8h-12l-3-0.5c-4.5-1.8-6.8-5.1-6.8-9.8V11.9C1.5,5.7,4.9,2.3,11.8,1.6 M9.3,0.1C3.1,2.1,0,5.6,0,10.7v53.8
	l0.3,2c2,5.7,5.3,8.5,10,8.5h55.7c6-2,9.1-5.4,9.1-10.3V9.2c-2-6-5.6-9-10.6-9H9.3z"/>
<path class="st1" d="M29.7,61.1c1.8-13,3.8-20.1,6-21.4h37.5v25.8c-1.8,5.1-4.9,7.7-9.2,7.7H28.7L29.7,61.1z M27.5,51.8
	C29.7,41.3,31.7,36,33.4,36h39.8v2.5H34.9l-1,0.7c-2.9,2.8-5.1,14.1-6.7,34.1H25C25.7,65.4,26.5,58.3,27.5,51.8 M17.8,19H18v6.3
	h-5.5L17.8,19z M6.9,25.3v4.4l0.5,0.5H18v3.5l0.5,0.5h4.2l0.5-0.5v-3.5h2.2l0.5-0.5v-4l-0.5-0.5h-2.2V12.6l-0.5-0.5H18
	C17.2,12.7,13.5,17.1,6.9,25.3 M1.9,9.3c1.4-5.1,5-7.7,10.7-7.7h50.5l2.2,0.3c5.3,1.4,7.9,4.5,7.9,9.2v2H64l-0.5,0.5v3.3l0.5,0.5
	h9.2v13.4h-36V17.3h23.4l0.5-0.5v-3.3l-0.5-0.5H33.2l-0.5,0.5v21.2c-1.4,0-3.2,3.3-5.2,9.9c-1.5,6.4-2.8,15.9-4,28.6H9.8
	c-5.5-1.5-8.2-4.8-8.2-10.2V12.6L1.9,9.3z M9.8,0.1C3.4,1.9,0.1,5.4,0.1,10.6v53.7l0.5,3c2,5.1,5.9,7.7,11.7,7.7h50.2
	c2.4,0,4.3-0.3,5.5-1c4.6-2,7-5.8,7-11.4V12.3c0-1.9-0.2-3.3-0.5-4c-2-5.5-5.4-8.2-10.2-8.2H9.8z"/>
<path class="st1" d="M29.2,62.3c2.1-14.8,4.1-22.2,6-22.2h38v23.7c0,5.3-3.1,8.5-9.4,9.4H28.3L29.2,62.3z M28.5,45.4
	c1.8-6,3.3-9,4.5-9h40.3v2.5h-39c-3.2,1.9-5.7,13.3-7.4,34.3h-2.2C25.8,59.7,27.2,50.4,28.5,45.4 M39,25.9v3.2l0.5,0.5h33.3v2.3
	H37.5l-0.5-0.5v-5.5H39z M15.8,23.7c1.6,0,2.5,1.2,2.7,3.5v0.5c-0.2,2.2-1,3.3-2.5,3.3c-1.8,0-2.9-1.1-3.3-3.3
	C12.8,25,13.8,23.7,15.8,23.7 M72.8,18.2v2.2H39.4L39,20.9v3.2h-2v-5.9H72.8z M6.3,23.4c0,7.6,3.2,11.5,9.5,11.5l3.7-0.5
	c3.3-1.5,5-3.9,5-7.2c-0.8-4.8-2.9-7.2-6.2-7.2h-1.8c-1.2,0-2.4,0.6-3.7,1.8v-0.3c0-3.6,1-5.5,3-5.5c0.9,0,1.6,0.8,2.2,2.5l6-1
	l-0.5-1.3c-1.3-2.6-3.8-4-7.4-4C9.6,12.2,6.3,15.9,6.3,23.4 M1.9,9.2c1.4-5.1,5-7.7,10.7-7.7h50.5c5.8,0,9.2,3.2,10.2,9.5v2.7h-9.4
	l-0.5,0.5v2.7h-2.2v-2.7l-0.5-0.5H33l-0.5,0.5v10.7l0.5,0.5h2.5l0.3,1.3v5.9l0.5,0.5h37.1v1.7h-40c-4.6,0-7.9,12.7-9.9,38.1v0.2
	H10.6c-6-1.1-8.9-4.5-8.9-10.2V11.7L1.9,9.2z M9.8,0C3.4,1.8,0.1,5.3,0.1,10.4v53.8L0.9,68c2,4.6,6.1,7,12.2,7h48.2
	C70.4,75,75,70.4,75,61.3V13l-0.3-4C72.8,3,69.3,0,64.3,0H9.8z"/>
<path class="st1" d="M42.1,16.4l3.8,1c9.6,4.8,14.5,11.9,14.5,21.2c0,2.9-0.5,5.7-1.5,8.5C54.2,57.1,46.9,62,37.1,62h-0.3
	c-2,0-4.4-0.4-7.4-1.2c-10.3-4.8-15.5-12.1-15.5-21.9c0-3.8,1.2-8.1,3.7-12.8h0.5l18.6,12.2h0.5l4.4-21.9H42.1z M24.2,18.4
	C17,24,13.4,30.5,13.4,37.9v2c0,3.8,1.1,7.5,3.3,11.2c5.2,7.8,11.9,11.7,20.1,11.7c3,0,6.1-0.6,9.2-1.7c10-5,15-12.4,15-22.2
	c0-2.8-0.7-6-2-9.5c-5-9.5-12-14.2-20.9-14.2h-2C32.4,15.2,28.4,16.3,24.2,18.4 M12.2,27.9c5.8-11,14-16.4,24.6-16.4
	c4.7,0,9.2,1.2,13.5,3.5c9.3,5.9,13.9,13.7,13.9,23.4c0,3.5-0.9,7.6-2.7,12.2c-6.1,10-13.9,14.9-23.4,14.9h-1.5
	c-4.5,0-8.9-1.3-13.2-3.8c-8.8-5.9-13.2-13.3-13.2-22.1v-2.2C10.2,34.8,10.9,31.6,12.2,27.9 M29.6,11.7C16.2,16.9,9.5,25.9,9.5,38.9
	c0,3.7,0.8,7.2,2.2,10.7c5.8,11.1,14.2,16.7,25.4,16.7c4.6,0,9.2-1.2,13.7-3.5c9.3-6.2,13.9-13.9,13.9-22.9v-2.3
	c0-4.4-1.2-8.8-3.7-13.2C54.9,15.5,47.4,11,38.6,11h-3L29.6,11.7z M1.8,9.2c1.4-5.1,5-7.7,10.7-7.7h50.6c5.9,0,9.2,3.2,10.2,9.5
	v52.8c0,5.3-3.1,8.5-9.4,9.4H10.4c-6-1.1-8.9-4.5-8.9-10.2V12.5L1.8,9.2z M9.7,0C3.2,1.8,0,5.3,0,10.4v53.8L0.8,68
	c2,4.6,6.1,7,12.2,7h48.3C70.4,75,75,70.4,75,61.3V13l-0.3-4C72.8,3,69.3,0,64.3,0H9.7z"/>
<path class="st1" d="M14.5,34.4l23.4,5h22.4c0,2.3-0.6,5.1-1.8,8.5C53.7,57.3,46.9,62,38.1,62h-1.8c-3,0-5.9-0.7-8.7-2
	c-9.1-4.9-13.7-11.8-13.7-20.9l0.5-4.4V34.4z M20.2,23.4l6.2,5.5c3.6-2.9,7.1-4.3,10.4-4.3c1.6,0,3.8,0.5,6.8,1.5
	c5,3.5,7.4,6.8,7.4,9.8l-2.5,0.5h-0.3v-0.5c-2-5.5-5.5-8.3-10.4-8.3h-1.8c-2.8,0-5.2,1.2-7.2,3.5v0.3l7.2,7l-21.4-4.7
	C15.4,30.2,17.2,26.8,20.2,23.4 M48.3,20.9v0.5l-2,2.5v-0.5L48.3,20.9z M36.9,21.4h-0.5v-3.5h0.5V21.4z M23.7,19.4
	c-7,5.3-10.4,11.8-10.4,19.7c0,3.8,1.1,7.7,3.2,11.7c5.1,8,11.7,11.9,19.7,11.9h2.8c2.1,0,5.1-0.7,8.9-2.2
	c8.8-5.5,13.2-12.4,13.2-20.9c0-3.5-0.7-6.8-2-10C54,20,46.8,15.2,37.6,15.2C32.4,15.2,27.7,16.6,23.7,19.4 M13,26.4
	c6.1-9.8,13.8-14.7,23.1-14.7h1.8c3.8,0,7.7,1,11.9,2.9c9.6,6,14.5,14,14.5,23.9c0,3.9-1.1,8.2-3.2,13c-6.2,9.5-14,14.2-23.5,14.2
	c-4.6,0-9-1.1-13.2-3.3C15,56.6,10.2,49,10.2,39.9v-2.5C10.2,34.3,11.1,30.6,13,26.4 M25.2,13.7C14.7,19.4,9.5,27.8,9.5,38.9v0.2
	c0,4.1,1.1,8.4,3.2,13c6.4,9.5,14,14.2,22.9,14.2h3c3.2,0,6.9-0.9,11-2.7c10.1-6,15.2-14,15.2-23.9v-1.8c0-2.8-0.6-6-1.7-9.5
	C57.2,16.8,48.7,11,37.4,11C32.8,11,28.8,11.9,25.2,13.7 M1.8,9.2c1.4-5.1,5-7.7,10.7-7.7h50.6c5.9,0,9.2,3.2,10.2,9.5v52.8
	c0,5.3-3.1,8.5-9.4,9.4H10.4c-6-1.1-8.9-4.5-8.9-10.2V12.5L1.8,9.2z M9.7,0C3.2,1.8,0,5.3,0,10.4v53.8L0.8,68c2,4.6,6.1,7,12.2,7
	h48.3C70.4,75,75,70.7,75,62V13l-0.3-4C72.8,3,69.3,0,64.3,0H9.7z"/>
<path class="st1" d="M44.6,49.3c-1.1,1-2.2,1.5-3.5,1.5h-8.5c-0.8,0-1.9-0.4-3.5-1.2v-0.3H44.6z M46.8,46.8l-1.2,2H28.7
	c-0.3,0-0.8-0.6-1.5-1.8v-0.3H46.8z M47.8,44.4c-0.4,1.3-0.7,2-1,2H26.7l-0.5-1.7v-0.3H47.8z M48.1,43.3l-0.5,0.5H25.9v-0.5H48.1z
	 M24.9,43.9h-7.7v0.5h8l0.5,2h-8.5v0.5h8.5l1.5,2h-10v0.5h10.4l1.8,1.2v0.3h-9.2c-0.4,0-0.5,0.2-0.5,0.8h-2.5v0.5h39.9v-0.5h-3.5
	c0-0.5-0.2-0.8-0.5-0.8h-8.7v-0.3l2-1.2h10.7v-0.5H46.8v-0.3l1.3-1.8h8.9v-0.5h-8.7c0.1-1.3,0.4-2,0.8-2h8v-0.5h-8.2
	c0-1-0.2-1.5-0.5-1.5H25.4C25.1,42.4,24.9,42.9,24.9,43.9 M17.2,41.8h39.9v-0.5H17.2V41.8z M17.2,38.9h39.9v-0.5H17.2V38.9z
	 M17.2,36.4h39.9v-0.5H17.2V36.4z M17.2,34.1h39.9v-0.5H17.2V34.1z M16.9,31.4h40.1v-0.5H16.9V31.4z M16.4,28.2h40.1
	c2,0.1,3,1,3,2.5v20.7c0,1.7-1.3,2.5-4,2.5H17.5c-2.7,0-4-1-4-3V30.6C13.4,29.1,14.4,28.3,16.4,28.2 M12.2,30.6v20.9
	c0,2.1,1.6,3.3,4.7,3.5h39.4c2.6,0,4.1-1.1,4.5-3.3V30.2c0-1.8-1.3-2.9-3.8-3.3H15.7C13.8,26.9,12.6,28.1,12.2,30.6 M60.1,24.9v1.5
	l0.5,0.5l0.5-0.5v-1.5l-0.5-0.5L60.1,24.9z M64.3,20.7l0.5,0.5h1.5l0.5-0.5l-0.5-0.5h-1.5L64.3,20.7z M54.1,20.7l0.5,0.5h1.7
	l0.5-0.5l-0.5-0.5h-1.7L54.1,20.7z M19.9,19.7h0.7c0.3,0,0.5,0.3,0.8,1c0,0.8-0.5,1.2-1.5,1.2l-0.8-0.8v-0.7L19.9,19.7z M26.1,19.4
	l1,1v0.7l-1,0.8c-0.5,0-0.9-0.3-1.2-1v-0.5C25,20.1,25.4,19.8,26.1,19.4 M14.5,19.4c0.8,0.4,1.2,0.8,1.2,1.2
	c-0.4,0.8-0.8,1.2-1.2,1.2l-1-0.8v-1C13.4,19.9,13.8,19.7,14.5,19.4 M23.9,20.9c0.3,1.1,1,1.7,2,1.7h1c0.9-0.4,1.3-1.1,1.3-2
	c0-1.3-0.7-2-2-2h-0.8C24.4,19.3,23.9,20.1,23.9,20.9 M18.2,20.2v1.2c0.6,1,1.3,1.5,2,1.5c0.9,0,1.6-0.4,2-1.2v-1.8
	c-0.5-0.8-1.1-1.2-1.8-1.2C19.5,18.7,18.8,19.2,18.2,20.2 M12.5,20.7c0,0.9,0.4,1.6,1.2,2h1.5l1.2-1.2v-1.5l-1.2-1.2h-0.8
	C13.1,18.7,12.5,19.4,12.5,20.7 M60.5,18.4c0.9,0,1.7,0.5,2.2,1.5v1.5c-0.6,1-1.2,1.5-2,1.5c-1.3,0-2.2-0.8-2.5-2.2
	C58.7,19.2,59.5,18.4,60.5,18.4 M57.5,20.4v0.5c0,1.4,0.9,2.4,2.8,3c2.3-0.3,3.5-1.3,3.5-3v-0.5c0-1.1-0.7-2-2-2.7h-1.7
	C58.7,17.7,57.9,18.6,57.5,20.4 M60.1,14.9v1.5l0.5,0.5l0.5-0.5v-1.5l-0.5-0.5L60.1,14.9z M68,61.1H7V13.7H68V61.1z M5.5,13v48.8
	L6,62.3h62.8l0.5-0.5V13l-0.5-0.5H6L5.5,13z M1.8,8.7c1.7-4.8,5.3-7.2,10.7-7.2h51.8c6,1.3,8.9,4.6,8.9,10v52.3
	c0,5.3-3.1,8.5-9.4,9.4H10.4c-6-1.1-8.9-4.5-8.9-10.2V11.7L1.8,8.7z M9.7,0C3.2,1.8,0,5.3,0,10.4v53.8L0.8,68c2,4.6,6.1,7,12.2,7H62
	c8.6,0,13-4.4,13-13.2V13.7l-0.3-4.8C72.8,3,69.3,0,64.3,0H9.7z"/>
<path class="st1" d="M59.6,55.3c0.9,0,1.5,0.3,1.7,1v0.3c0,0.3-0.5,0.6-1.5,1c-0.7,0-1.5-0.3-2.2-1C57.8,55.8,58.4,55.3,59.6,55.3
	 M56.6,56.3c0,1.3,0.8,2,2.5,2.3h0.5c2,0,2.9-0.7,2.9-2c0-1.3-0.8-2-2.5-2.2h-1C57.4,54.6,56.6,55.3,56.6,56.3 M56.1,44.4
	c0.8,0.3,1.2,0.7,1.2,1v0.5c-0.1,0.3-0.5,0.6-1.2,1c-0.7-0.2-1-0.7-1-1.4v-0.3L56.1,44.4z M54.1,45.6c0,1.3,0.7,2,2,2h0.2
	c1,0,1.7-0.6,2-1.7c0-1.5-0.7-2.3-2-2.3h-0.2C54.7,43.6,54.1,44.3,54.1,45.6 M31.1,42.1l1.5,0.3l1.3-0.3h9.7
	c-1.3,5.8-3.7,8.7-7.2,8.7h-8.2c-1.8-0.4-2.8-0.9-3-1.5c-1.3,0-2.5-2.3-3.8-7v-0.3H31.1z M31.1,41.4H20.7l-0.3,0.3
	c0,3.5,1.6,6.6,4.8,9.2H16l-0.5,0.5v0.3l0.5,0.5h32.6l0.5-0.5v-0.3l-0.5-0.5h-8.7c3.2-2.8,4.8-5.8,4.8-9l-0.5-0.5H33.9l-1.5-0.3
	L31.1,41.4z M59.8,41.1c0.4,0.1,0.7,0.5,1,1.3l-1,1h-0.5l-1-0.7C58.3,41.6,58.8,41.1,59.8,41.1 M57.5,42.1v0.3c0,1,0.6,1.7,1.8,2
	c1.5,0,2.3-0.7,2.3-2v-0.3c0-1.3-0.7-2-2-2C58.2,40.1,57.5,40.8,57.5,42.1 M62.8,37.6c0.8,0,1.2,0.5,1.2,1.5c-0.1,0.4-0.5,0.7-1.2,1
	v-0.3c-0.7,0-1-0.3-1-0.8C61.8,38.3,62.1,37.8,62.8,37.6 M60.8,38.6c0,1.5,0.7,2.2,2,2.2h0.3c1,0,1.7-0.6,2-1.8c0-1.5-0.7-2.3-2-2.3
	h-0.3C61.5,37,60.8,37.6,60.8,38.6 M59,30.9v1.5l0.5,0.5l0.5-0.5v-1.5l-0.5-0.5L59,30.9z M21.4,31.4v2.7c0,2.7-0.9,4-2.7,4
	c-1.1,0-1.9-0.6-2.5-1.8v-7.4l-0.5-0.5h-0.5l-0.5,0.5v7.2c0,1.9,1.3,3,4,3.5c2.6-0.5,4-1.6,4-3.5v-2.7c0-2.5,0.8-3.8,2.5-3.8h0.5
	c1.3,0,2,0.8,2.2,2.2v3.5c0,2.2,1.2,3.6,3.8,4.3c3,0,4.4-1.9,4.4-5.7c0-2.9,0.7-4.3,2.2-4.3h0.5c1.5,0,2.3,1,2.5,3v3.5
	c0,1.9,1.3,3.1,4,3.5c2.6-0.5,4-1.6,4-3.5v-7.2l-0.5-0.5h-0.5l-0.5,0.5v7c0,1.2-0.8,2-2.5,2.2c-1.1,0-1.9-0.6-2.5-1.8v-3.2
	c-0.3-3.3-1.4-5-3.5-5h-1.2c-2,0-3.2,1.5-3.5,4.4c0,3.7-0.7,5.5-2,5.5c-2.1,0-3.2-1-3.2-3v-3.5c0-1.7-1.2-2.8-3.5-3.5h-1.3
	C23.1,28.2,22,29.2,21.4,31.4 M63.5,26.1l-0.3,0.3l0.5,0.5h1.7l0.3-0.2l-0.5-0.5H63.5z M53.6,26.1l-0.3,0.3l0.5,0.5h1.7l0.3-0.2
	l-0.5-0.5H53.6z M15.7,25.2h32.6c1.7,0,2.5,1.4,2.5,4.2v20.2c0,2.8-1,4.2-3,4.2H16c-1.7,0-2.5-1-2.5-3V28.2
	C13.4,26.2,14.2,25.2,15.7,25.2 M59.6,24.4h0.2c1.5,0.3,2.3,0.9,2.3,2c0,1.1-0.8,2-2.3,2.5c-1.2,0-2-0.8-2.2-2.2v-0.3
	C57.5,25.1,58.2,24.4,59.6,24.4 M12.2,27.9v23.1c0,1.6,0.8,2.9,2.2,3.8h34.6c1.6,0,2.5-1.2,2.7-3.5V27.2c0-1.6-1.1-2.7-3.2-3.2H16
	C13.5,23.9,12.2,25.3,12.2,27.9 M56.6,26.4v0.3c0.5,2,1.4,2.9,2.7,2.9h0.8c1.5,0,2.4-0.9,2.7-2.7v-0.8c0-1.5-1.1-2.4-3.2-2.7
	C58,23.4,57,24.4,56.6,26.4 M59.3,20.7v2l0.3,0.3l0.5-0.5v-2l-0.3-0.2L59.3,20.7z M7.2,18.4H68v42.6H6.8V18.9L7.2,18.4z M5.7,17.9
	v43.8l0.5,0.5h62.6l0.5-0.5V17.9l-0.5-0.5H6.2L5.7,17.9z M1.8,9.2c1.4-5.1,5-7.7,10.7-7.7h52.1c5.8,1.5,8.7,4.6,8.7,9.5v52.8
	c0,5.3-3.1,8.5-9.4,9.4H11c-6.3-0.9-9.5-4.3-9.5-10.2V11.9L1.8,9.2z M9.7,0C3.2,1.8,0,5.3,0,10.4v53.8L0.8,68c2,4.6,6.1,7,12.2,7
	h48.3C70.4,75,75,70.7,75,62V13l-0.3-4C72.8,3,69.3,0,64.3,0H9.7z"/>
<path class="st1" d="M53.1,61.1c0.3,0,0.5,0.4,0.8,1.2c0,1.1-0.5,2-1.5,2.7h-1.2l-1-1v-0.5C50.1,61.9,51.1,61.1,53.1,61.1 M20.2,55
	h0.5c3.8,0,6,0.7,6.6,2.2c0,0.9-0.5,1.9-1.4,2.9c-6.8-1-10.2-2.2-10.2-3.6v-0.3C15.8,55.6,17.4,55.2,20.2,55 M53.1,53.8
	c1,0.3,1.6,0.7,1.7,1.2c-0.6,2.1-1.6,3.2-2.9,3.2h-1l-1-0.5v-0.2C49.9,56.1,51,54.9,53.1,53.8 M39.9,52.3l0.3,0.3
	c1.4,1.4,2.7,3.1,3.9,5.1c2.8,1.5,4.1,3.2,4.1,4.9l-0.3,1.2h-0.2L47,63.3c-3.5-3.2-5.9-6.8-7.3-10.5v-0.5H39.9z M29.2,50.6
	c-0.6,1.6-3.1,2.5-7.3,2.5H19c-2.6-0.1-3.9-0.4-3.9-1v-0.5c0-1.4,1-2.2,2.9-2.5l5.6,0.3h0.5c1.6-0.2,2.4-0.5,2.4-1
	C27.4,48.5,28.3,49.2,29.2,50.6 M28,41.4c1,0,1.7,0.6,2.2,1.7v0.2c-1.2,2.9-3.8,4.4-7.8,4.4h-0.5c-2.9,0-5-1.1-6.1-3.2
	c0.7-1.1,1.8-1.7,3.2-1.7l1,0.3h1.4C22.4,43.1,24.6,42.6,28,41.4 M14.1,43.6c0.7-2.1,1.6-3.2,2.9-3.2h0.3c0,1.2-1,2.2-2.9,3.2H14.1z
	 M20.7,38l3.7,1.9c0,0.6-0.9,1-2.7,1.2h-0.8c-1.1,0-1.9-0.6-2.2-1.9C19.2,38.4,19.9,38,20.7,38 M25.8,27.5H18l-3.9,0.2L8,29.9H7.6
	l-0.3-0.2v0.2l-0.2,0.3v3.6h0.2c3.7-2.5,5.8-4,6.1-4.7l2.7,0.5l4.9-0.3l1.7,1.4h0.5l3.9-1.2v0.2c0,2.5-2.2,4.2-6.6,5.1
	c-1.5,0-2.9-0.5-4.1-1.5l-0.8,0.8c0,0.8,0.2,1.6,0.8,2.4c-1,2.6-3.7,5.5-8.3,8.8v0.3L8.3,46l3.9-0.2c0.5,2,0.8,3.8,0.8,5.4v0.7
	c0,3.8-0.9,7.1-2.7,10l0.5,0.5h0.5c0.8-0.3,1.6-1.6,2.7-3.9c1.7,1,4.2,1.9,7.6,2.9c0,2.1-1.1,3.6-3.2,4.4v0.5H20l1.9-2.2
	c4.4-2.5,6.6-4.7,6.6-6.5L27.8,55l2-1.7l1.7-8.2h0.5c3.4,9.7,6.4,15.3,9.1,16.8v-0.5c-4.4-8.2-6.6-13.4-6.6-15.5v-0.8h0.2
	c4.4,10.6,8.2,17.3,11.3,20c2.4,0.2,3.6,0.6,3.6,1.2h5.8L55,63.8c0-2.1,1-4.2,2.9-6.3V55l-2.5-9.8v-0.7l0.3-1.7H56
	c0.4,0,0.5,0.3,0.5,1v0.3l1.7-0.5c1.3,0,2,0.6,2,1.9L58.9,47c-1.3,0-1.9-0.7-1.9-2.2h-0.5v1.5c0,0.9,0.3,1.4,1,1.7h0.2l2.2-0.5
	c0.8,0,1.8,1.2,2.9,3.7c2,9.1,4,13.6,5.8,13.6v-6.3c-1.3,0-2.5-2-3.6-6.1c-2.5-3.9-3.7-6-3.7-6.5c-0.4-3.6-1.6-5.4-3.6-5.4h-0.5
	c-1.2,0-2.5,1.1-3.6,3.2c0,3,0.4,5.3,1.2,7c-1.4-0.2-3-0.8-4.9-1.7L23.8,37c3.2-3.2,4.9-5.5,4.9-6.8c0-1-0.4-1.9-1.2-2.9L25.8,27.5z
	 M58.7,8.8L58.4,9v0.5L56.5,26v2.5c0.3,3.4,0.8,5.1,1.4,5.1h0.2l0.3-0.7l-0.3-7.8c0-4.7,1.1-10,3.2-16.1h-0.2l-0.3-0.2H58.7z
	 M33.4,8.8c-1.8,5.5-2.7,9.9-2.7,13.1v0.8h0.5c0.2-1.1,0.5-1.7,0.7-1.7c0.8-6.9,1.7-10.8,2.7-11.9h0.3l0.3,1.2v1.2l-2,12.9l0.3,0.2
	v0.3c-4.9-1.6-13.5-5-25.8-10l-0.5,0.5v2.2l0.2,0.3c14.3,5.2,34.6,13,60.9,23.4l0.5-0.5v-1.7L55,33.9l-0.2-9v-1.5
	c0-6.1,1-10.9,2.9-14.4V8.8H33.4z M12.6,1.2h49.7l3.2,0.2c5.4,1.6,8,4.7,8,9.3v55c-1.9,5.2-5,7.8-9.3,7.8H10.7l-2.9-0.5
	c-4.4-1.8-6.5-5.3-6.5-10.7V12.6C1.2,5,5,1.2,12.6,1.2 M8.5,0.3C2.8,2.3,0,5.7,0,10.4v55.3C2,71.9,5.5,75,10.7,75h53.1l1.9-0.3
	c6.2-1.6,9.3-5.2,9.3-10.9V10.7l-0.3-2.2C72.7,2.8,69.3,0,64.6,0H10.4L8.5,0.3z"/>
<path class="st1" d="M20.2,56.7c1.1-0.7,1.7-1.2,1.7-1.4c4.7-3.8,10.4-6.1,17.3-6.8c1.8,0,3.9,1.2,6.3,3.6
	c1.9,3.4,8.4,10.4,19.5,21.2H11.5c-1.8,0-3.2-0.3-4.4-1c-3.8-1.9-5.6-5.1-5.6-9.5V37.5C12.4,50.3,18.6,56.7,20.2,56.7 M55.8,42.1
	c-0.4,1.2-3.4,4.3-9,9.3c-3-2.8-5.4-4.1-7.3-4.1c-1.8,0-4.2,0.5-7,1.4h-0.3c9.5-9.1,14.4-14.4,14.8-15.8
	C50.1,35.6,53,38.6,55.8,42.1 M62.4,1.4c2.1,0,3.6,0.2,4.6,0.8c4.2,1.8,6.3,4.9,6.3,9.3v44.3h-0.2L60.4,44.6
	c-14.9-15-29-29.4-42.1-43.1H62.4z M1.9,8.5c1.6-4.7,5.2-7.1,10.7-7.1h2.7c1,0,2.8,1.5,5.4,4.4c16.8,17.2,25.1,26,25.1,26.3
	c0,1.2-5.4,6.9-16.1,17c-3.1,1.1-6.2,3.1-9.5,6.1c-0.6,0-1.4-0.7-2.4-2C7.5,42.9,2.1,36.7,1.4,34.6V12.6L1.9,8.5z M8.5,0.3
	C2.8,2.3,0,5.7,0,10.4v53.8l0.5,3.2c2.1,5,6.2,7.6,12.2,7.6h49.9c2.1,0,3.9-0.3,5.6-1c4.5-2.2,6.8-6,6.8-11.5V12.6l-0.3-3.9
	C72.6,2.9,69.1,0,64.3,0H10.4L8.5,0.3z"/>
<path class="st1" d="M39.6,65.5c0,1.4-0.8,2.1-2.4,2.2c-0.4,0-0.6-0.1-0.6-0.4v-3.9l0.2-0.2C38.6,63.3,39.6,64.1,39.6,65.5
	 M35.3,62.3v6.3l0.4,0.4h2.6c1.5,0,2.3-1,2.6-3v-1.3c0-1.6-1.1-2.5-3.2-2.8h-1.9L35.3,62.3z M42.8,61.2l-0.2,0.2l1.3,6.9h1.3
	l0.2-0.2c-0.9-4.6-1.4-6.9-1.7-6.9H42.8z M26.2,66.4c0.1,0.6,0.3,0.9,0.6,0.9h0.4c0.4,0,0.8-1.3,1.3-3.9c0.2,0,0.6,1,1.3,3.1
	c0.1,1.4,0.6,2.1,1.5,2.1c0.4,0,1.1-2.2,2.1-6.7v-0.4l-1.1-0.2c-0.4,0.5-0.9,1.9-1.3,4.1H31l-0.6-1.9c-0.3-2.1-0.9-3.2-1.9-3.2h-0.5
	L26.2,66.4z M49.7,59.1l1.7,3.6v0.2l-4.1-2.6h-0.9l-0.6,0.4l2.8,6.5l1.3-0.4c-0.2-1-0.7-2.2-1.5-3.7v-0.2c0.4,0,1.8,0.9,4.1,2.6
	l1.5-0.6l-3-6.4L49.7,59.1z M20,63.6v0.2l3,1.7c0.3,0,0.6-0.4,0.9-1.1L22,63.2l0.6-1.5l2.1,1.1c0.2,0,0.4-0.3,0.6-0.9
	c0-0.4-0.6-0.9-1.9-1.5l0.6-0.9h0.2l1.7,1.1l0.9-1.1c-1.6-1.3-2.7-1.9-3.4-1.9h-0.2C21.1,61.2,20,63.2,20,63.6 M19.2,55.7l0.6,0.6
	v0.4l-0.4,0.4h-0.2l-0.9-0.4v-0.2L19.2,55.7z M53.3,58c0.5,2.6,1.6,3.9,3.4,3.9h0.9c1.6,0,2.8-1.1,3.4-3.4c0-1.4-0.4-2.3-1.3-2.8
	L57.2,58l0.6,0.9c0.4,0,1-0.4,1.7-1.1v0.4c0,1.1-0.7,1.9-2.1,2.1c-1.7-0.1-2.6-0.9-2.6-2.4c0-0.6,0.4-1.2,1.1-1.9
	c1.4-0.3,2.1-0.8,2.1-1.5l-0.4-0.4h-0.4C55.1,54.2,53.9,55.4,53.3,58 M14.2,58.4v0.2l0.9,0.9l2.1-1.9c0.9,0.7,1.5,1.1,1.9,1.1
	c0.9,0,1.6-0.5,2.1-1.5v-1.3c-0.3-0.7-1-1.5-2.1-2.4L14.2,58.4z M31.9,37.4c0.5,3.9,2.4,5.8,5.6,5.8c3.9-0.5,5.8-2.4,5.8-5.6
	c-0.6-3.9-2.4-5.8-5.6-5.8C33.8,32.4,31.9,34.3,31.9,37.4 M18.3,27.9c4.7-7.9,10.8-11.8,18.3-11.8h1.9c2.7,0,5.5,0.7,8.6,2.1
	c8,4.6,12,11.1,12,19.3c0,2.1-0.6,4.9-1.7,8.4c-4.6,8.8-11.3,13.1-20,13.1c-2.4,0-5.5-0.7-9.2-2.1c-8-4.8-12-10.9-12-18.5v-1.9
	C16.2,33.9,16.9,31,18.3,27.9 M31.2,16.1c-10.6,4.1-15.9,11.3-15.9,21.5c0,3.1,0.6,5.9,1.7,8.4c4.3,9.2,11.2,13.8,20.8,13.8
	c2.3,0,4.7-0.4,7.5-1.3c9.6-4.6,14.4-11.5,14.4-20.6v-0.6c0-2.4-0.4-4.8-1.3-7.3C54,20.1,47.1,15.3,37.6,15.3
	C35.7,15.3,33.6,15.6,31.2,16.1 M22.6,11.4h0.2v0.9c0,0.2-0.3,0.4-0.9,0.6l-0.6-1.1L22.6,11.4z M19.4,11.2l3.2,6.2
	c0.5,0,1-0.2,1.5-0.6c-0.9-1.4-1.3-2.3-1.3-2.8c0.9,0,1.4-0.6,1.5-1.7v-0.4c0-0.9-0.5-1.5-1.5-1.9C21.8,9.9,20.7,10.3,19.4,11.2
	 M51.8,10.8V11l0.6,0.2c0,0.5-0.9,2.1-2.6,4.9c0,0.3,0.4,0.6,1.1,0.9c0.7-0.8,1.6-2.3,2.8-4.7l1.3,0.4l0.6-1.1
	c-1.6-1.3-2.7-1.9-3.4-1.9H52L51.8,10.8z M29.5,11.4l-1.6,0.4V9.7L29.5,11.4z M26.7,7.7l-0.4,7.6l0.2,0.2c0.9-0.2,1.3-0.6,1.3-1.1
	c0-0.9,0.9-1.5,2.6-1.7l1.1,1.1l1.3-0.2v-0.4l-4.5-5.8L26.7,7.7z M42.6,13.1c0,0.4,0.4,0.7,1.1,0.9c0.3,0,0.8-1.4,1.5-4.1h0.2
	c0.6,3.6,1.4,5.4,2.4,5.4c0.3,0,1.1-2.2,2.4-6.7l-0.4-0.4h-1.1l-1.1,3.9h-0.2v-0.2l-0.2-0.2c-0.4-3.3-1.2-5-2.4-5L42.6,13.1z
	 M37.9,6l-0.2,0.2l-0.2,6.7c0,0.3,0.5,0.4,1.5,0.4h1.9l0.4-0.4v-0.4c-0.1-0.4-0.6-0.6-1.7-0.6h-0.6v-1.7h2.1l0.2,0.2v-0.2l0.2-0.2
	V9.2c0-0.3-0.8-0.5-2.4-0.6V7.5h2.1l0.2,0.2V7.5l0.2-0.2V6.6c0-0.4-1.1-0.6-3.4-0.6H37.9z M31.6,6.6l0.4,1.3h0.2l0.2-0.2h0.6
	l0.6,5.8l1.3-0.4l-0.4-5.4V7.5c0.7,0,1.1-0.1,1.1-0.4V6.2L35.5,6C33.4,6.1,32.1,6.4,31.6,6.6 M6.7,20.2c7.9-12,18.2-18.1,30.7-18.1
	c5.6,0,11.4,1.5,17.4,4.5c12,7.8,18,18.1,18,30.7c0,5.3-1.3,10.7-3.9,16.3c-7.7,12.8-18.2,19.1-31.4,19.1c-7,0-13.6-2-19.7-6
	C7.4,59,2.2,49.3,2.2,37.6C2.2,32,3.7,26.2,6.7,20.2 M18.3,5.1C6.1,13.4,0.1,24,0.1,36.7v1.5c0,6.4,1.9,12.9,5.6,19.3
	C14.1,69.2,24.3,75,36.1,75h2.8c7.3,0,14.4-2.5,21.2-7.5C70.1,59.3,75,49.7,75,38.9v-2.8c0-5.6-1.6-11.4-4.9-17.6
	C61.7,6.2,51.1,0,38.3,0h-1.5C30.6,0,24.5,1.7,18.3,5.1"/>
<path class="st1" d="M40.7,61.5H40l-0.2,0.1l0.1,1.1v1.1c0,0.5,0,1.3,0.1,2.4h-0.1c-0.4-1.1-1.2-2.7-2.5-4.7h-0.6
	c-0.5,0-0.9,0.1-1.2,0.2c0.1,1.9,0.1,3.3,0.1,4.2v1.7c0,0.8,0.1,1.2,0.3,1.2h1.2l0.2-0.1l-0.2-5h0.1c0.7,1.6,1.6,3.3,2.6,5
	c0.6,0,1.1-0.1,1.4-0.1h0.1l0.2-0.1c-0.1-2.8-0.1-4.9-0.1-6.3v-0.8l-0.1-0.2L40.7,61.5z M29.4,67.6c0,0.1,1.4,0.4,4.2,0.9
	c0.2,0,0.4-0.4,0.5-1.1c0-0.2-0.9-0.5-2.7-0.8l0.3-1.5c0.6,0,1.4,0.1,2.4,0.4c0.2,0,0.4-0.5,0.4-1.4c-1.5-0.2-2.2-0.4-2.3-0.5
	l0.2-1.2c0.9,0,1.7,0.1,2.5,0.4c0.1,0,0.3-0.4,0.4-1.2c0-0.1-1.4-0.5-4.2-1L29.4,67.6z M41.5,61.5c0.2,0.7,0.3,1.1,0.5,1.3l1.7-0.5
	l1.5,5.7c0.9-0.2,1.4-0.4,1.5-0.5l-1.4-5.6c0.3,0,0.9-0.2,1.8-0.5l-0.4-1.3C43.3,60.9,41.6,61.4,41.5,61.5 M25.2,59.6
	c0,0.2,0.5,0.4,1.5,0.8h0.1c0,0.3-0.7,2-2.2,5.3c0,0.2,0.4,0.4,1.3,0.8c0.2,0,1-1.8,2.4-5.4c1,0.4,1.5,0.6,1.7,0.6h0.2
	c0.2-0.7,0.4-1.2,0.4-1.3l-4.8-1.9C25.6,58.6,25.4,59,25.2,59.6 M23.1,58.4c-0.6,1.6-0.8,2.4-0.8,2.5c-0.2,0-0.7-0.2-1.3-0.5
	C21,60.3,21.7,59.6,23.1,58.4 M46.9,59.9c0.3,0.8,1.4,3,3.3,6.5c2-0.9,3.3-1.6,3.9-2c0-0.1-0.2-0.5-0.5-1.2c-0.1,0-1,0.4-2.6,1.2
	c0,0-0.3-0.5-0.7-1.4c0-0.1,0.8-0.4,2.2-1.1c0-0.1-0.2-0.5-0.5-1.2h-0.1c-0.2,0-0.9,0.3-2.2,1c-0.1,0-0.3-0.4-0.7-1.2l2.4-1.2
	C51,58.4,50.8,58,50.6,58h-0.1C50.5,58.1,49.3,58.7,46.9,59.9 M17.4,61.6c0,0.1,0.4,0.4,1.3,1l1.4-1.2h0.1l1.5,1l-0.5,1.9l1.2,0.9
	h0.1c0.2-0.4,0.9-2.8,2.3-7.1c0-0.1-0.5-0.5-1.6-1.2C23,56.7,21.1,58.3,17.4,61.6 M54.9,56.6h0.4c1.1,0,1.8,0.8,2.3,2.5
	c0,0.7-0.4,1.3-1.2,2c-0.2-0.2-1.3-1.3-3.1-3.4v-0.1C53.9,57,54.4,56.6,54.9,56.6 M51.3,57.8v0.2c0,0,1.5,1.8,4.6,5.1h0.2
	c2.1-1.5,3.1-2.9,3.1-4.1c0,0,0-0.3-0.1-0.8c-0.9-2.1-2-3.2-3.3-3.2h-0.6C54.2,55,52.9,55.9,51.3,57.8 M19.5,55.8v0.1
	c0,0.5-0.3,0.8-0.9,0.9h-0.3c-0.4,0-0.7-0.2-1.1-0.8l1.3-1.5C19.1,54.9,19.5,55.3,19.5,55.8 M13.4,57.8c0.6,0.7,0.9,1,1,1h0.1
	c0.1,0,0.6-0.6,1.7-1.8c0.9,0.9,1.7,1.4,2.5,1.4C20.2,58,21,57.2,21,56c0-1-0.9-2.1-2.6-3.4h-0.2C15,55.9,13.4,57.6,13.4,57.8
	 M35.4,32.3c-2.4,1.2-3.6,2.9-3.6,5c0,0.4,0,0.8,0.1,1.3c1,3,2.9,4.5,5.5,4.5c1.1-0.1,1.8-0.3,2.2-0.5c2.3-1.2,3.5-2.9,3.5-5
	c0-0.6-0.1-1.2-0.3-2c-1.2-2.5-2.9-3.7-5-3.7h-0.7C36.6,31.9,36.1,32.1,35.4,32.3 M59.5,16.8c0.8,0.6,1.2,1.2,1.2,1.9v0.4
	c-0.6,1.4-1.5,2.1-2.6,2.1c-0.7,0-1.4-0.4-2.1-1.3C56.5,19.4,57.6,18.4,59.5,16.8 M19.8,25.2c4.6-6.1,10.5-9.2,17.7-9.2
	c4.5,0,8.6,1.3,12.3,3.8c6.1,4.7,9.2,10.5,9.2,17.6c0,4.4-1.3,8.5-3.8,12.4c-4.7,6.1-10.5,9.1-17.3,9.1h-0.7
	c-4.8,0-9.3-1.6-13.5-4.9C18.5,49.4,16,43.9,16,37.6C16,33.2,17.3,29.1,19.8,25.2 M16.9,16c0.5,0,0.9,0.3,1,1v0.1
	c0,0.3-0.3,0.7-0.8,1.3c-1-0.9-1.5-1.4-1.5-1.5C16.1,16.3,16.5,16,16.9,16 M24.5,19.4c-6.2,4.9-9.3,11-9.3,18.1
	c0,4.5,1.4,8.7,4.2,12.8c4.8,6.2,10.8,9.4,18.1,9.4c6.1,0,11.4-2.2,16-6.7c4.2-4.6,6.3-9.7,6.3-15.5c0-4.4-1.4-8.7-4.2-12.8
	c-4.9-6.2-10.9-9.4-18-9.4C33,15.3,28.6,16.7,24.5,19.4 M54,19.4L54,19.4c1.5,2.3,3,3.4,4.4,3.4h0.7c2.1-0.9,3.2-2.1,3.2-3.5
	c0-1.4-1-2.9-3-4.6h-0.1C59.2,14.7,57.4,16.3,54,19.4 M13.6,17.2L13.6,17.2c3.2,3.4,4.9,5,5,5h0.1c0.7-0.6,1-0.9,1-1v-0.1L18,19.3
	c1-1,1.5-1.9,1.5-2.6c-0.4-1.6-1.1-2.4-2.3-2.4C16.2,14.4,15,15.3,13.6,17.2 M23.5,14.2c0,0-0.4,0.3-1.2,0.8c-0.1,0-0.4-0.8-0.8-2.5
	v-0.1C22.3,13.1,23,13.7,23.5,14.2 M49.5,16.4c0.1,0.1,1.3,1,3.7,2.6c0.2-0.1,0.4-0.4,0.8-1.1c0-0.2-0.8-0.7-2.4-1.7
	c0.5-0.8,0.8-1.2,0.8-1.4h0.1l2.1,1.4h0.1c0.1,0,0.3-0.3,0.7-1c-0.2-0.3-0.9-0.8-2.2-1.5c0.5-0.7,0.7-1.1,0.7-1.2l2.4,1.5
	c0.5-0.5,0.7-0.9,0.7-1.2c-0.2-0.1-1.4-0.9-3.6-2.4C53.1,11.1,51.7,13.1,49.5,16.4 M19.8,11.6c1.2,4.4,1.8,6.8,1.9,7.2h0.1
	c0.2,0,0.7-0.3,1.5-0.9l-0.6-1.8c1.1-0.7,1.7-1,1.7-1c0.1,0,0.6,0.4,1.5,1.2c0.9-0.6,1.4-0.9,1.4-1v-0.1c0,0-1.9-1.7-5.6-4.9h-0.1
	L19.8,11.6z M46.1,8.6v0.2l1.7,0.5c0,0.2-0.7,2-2.1,5.4c0,0.1,0.5,0.4,1.4,0.8h0.1c0.1-0.2,0.8-2,2.2-5.4c0.2,0,0.8,0.2,1.8,0.7
	c0.4-0.8,0.6-1.2,0.6-1.2c-0.2-0.2-1.9-0.9-5.2-2.2C46.5,7.6,46.3,8,46.1,8.6 M24.1,9.1c0,0.1,0.2,0.6,0.5,1.3
	c0.1,0,0.7-0.2,1.9-0.6c1,3.1,1.7,4.9,1.9,5.5c0.4,0,0.9-0.2,1.5-0.6l-1.9-5.4c0-0.1,0.6-0.4,1.8-0.8c0-0.1-0.2-0.5-0.5-1.3
	C28.8,7.3,27.1,8,24.1,9.1 M31.4,6.9c0.6,4.5,0.9,6.9,0.9,7.1c2.9-0.3,4.4-0.5,4.6-0.6c-0.1-0.8-0.2-1.2-0.3-1.3l-2.8,0.4
	c-0.1-0.8-0.2-1.3-0.2-1.5v-0.1c1.5-0.2,2.4-0.4,2.6-0.5c-0.1-0.5-0.2-1-0.3-1.3l-2.5,0.4L33.3,8C35.1,7.8,36,7.6,36,7.4
	c0-0.5-0.1-0.9-0.2-1.2C33.1,6.5,31.6,6.7,31.4,6.9 M37.6,13.1c0,0.2,0.4,0.3,1.3,0.4H39c0.1,0,0.4-1.7,0.6-5.1h0.1
	c0,0.5,0.7,2.2,1.9,5.1c0,0.4,0.6,0.6,1.8,0.6C43.6,13.4,44,11,44.4,7c-0.1-0.1-0.6-0.3-1.4-0.3c-0.2,0-0.4,1.6-0.6,4.8h-0.1
	c-0.3-1.2-0.8-2.8-1.7-4.6c0-0.5-0.7-0.8-2.1-0.8C38.4,6.1,38.1,8.4,37.6,13.1 M11.6,13.6C18.9,6,27.5,2.2,37.4,2.2
	c8.3,0,15.8,2.7,22.7,8.1c8.5,7.6,12.8,16.7,12.8,27.2c0,8.6-3,16.4-9,23.6C56.3,68.9,47.6,72.8,38,72.8H37c-6.7,0-13-1.9-19-5.8
	c-3.8-2.5-7-5.6-9.7-9.5c-4.1-6.2-6.2-12.8-6.2-20C2.2,28.6,5.3,20.7,11.6,13.6 M10,11.9C3.3,19.6,0,27.8,0,36.6v1.9
	c0,3.4,0.7,7.2,2,11.3c1.7,4.8,4.4,9.4,8.3,13.6C18.2,71.1,27.1,75,37,75H38c3.7,0,7.3-0.6,10.9-1.8c7.4-2.3,13.7-6.7,18.7-13.2
	c4.9-7,7.4-14.1,7.4-21.2v-2.2c0-5.3-1.4-10.7-4.2-16.3c-1.6-3.2-4.1-6.5-7.4-9.9C55.9,3.5,47.2,0,37.6,0C27.1,0,17.9,4,10,11.9"/>
<path class="st1" d="M33.8,61.1v2.4l0.5,0.5h2.1l0.3-0.2l-0.5-0.5h-1.7l0.2-1.5v-0.2l1.5,0.2h0.2l0.3-0.2c0-0.4-0.7-0.6-2-0.7v-1.3
	h2l0.2-0.2l-0.5-0.4h-2.4L33.8,61.1z M30.4,63.2v0.2h0.2c0.4-0.1,0.6-0.6,0.6-1.7v-0.4l1.6,0.2H33l0.2-0.2c-0.1-0.5-0.7-0.7-1.7-0.7
	l0.2-1.5l1.5,0.2h0.4v-0.6L31,58.4L30.4,63.2z M41.5,58.4c-3,0-4.6,0.9-4.6,2.6v0.4c0.3,1.6,1,2.4,2.2,2.4h0.7l1.1-0.2V63l-1.1,0.2
	c-1.3,0-2-0.6-2-1.7v-0.4c0-1.3,1.3-2,3.9-2c0.5,2.8,0.9,4.1,1.3,4.1h0.3l0.2-0.2l-0.9-3.9v-0.2l0.2-0.2c0.7,0,1.1-0.2,1.1-0.5V58
	C42.3,58,41.5,58.2,41.5,58.4 M29.7,59.1v0.4L29.3,60H28l0.4-1.8C29,58.2,29.4,58.5,29.7,59.1 M26.4,61.9l0.4,0.5
	c0.2,0,0.5-0.7,0.9-2c0.8,0,1.2,0.9,1.3,2.8c0.3,0,0.5-0.4,0.6-1.3l-0.2-1.1l1.1-1.3c0-1.3-0.9-1.9-2.6-1.9
	C27.7,57.5,27.2,59,26.4,61.9 M22.9,60.8l2.4,1.1h0.2l0.2-0.2c-0.1-0.4-0.6-0.7-1.7-1.1l0.4-1.3v-0.2l1.8,0.7h0.2l0.2-0.3
	c-0.1-0.3-0.6-0.7-1.7-1.1l0.4-1.3l1.9,0.6h0.3v-0.2c0-0.3-0.8-0.7-2.4-1.3L22.9,60.8z M46.3,56.9l1.7,4.6h0.2l2.6-1.1v-0.2L50.7,60
	L49,60.6c-0.2,0-0.5-0.4-0.9-1.3c0-0.3,0.5-0.5,1.5-0.6V58h-0.2l-1.7,0.5l-0.4-1.1c1.2-0.5,1.7-0.9,1.7-1.1V56h-0.2L46.3,56.9z
	 M22.7,55.6l0.9,0.7c0,0.7-0.2,1.2-0.7,1.3h-0.6l-0.7-0.4l0.7-1.6H22.7z M19.7,58.7v0.2l0.4,0.4c0.2,0,0.5-0.4,0.9-1.3v-0.2l1.5,0.4
	h0.8c0.6-0.2,0.9-0.7,0.9-1.5v-0.4c-0.3-0.6-1-1.1-1.9-1.5C21.7,55.2,20.9,56.5,19.7,58.7 M54.6,51.4l1.3,3.7v0.2l-3.3-1.9
	c-0.6,0.1-0.9,0.3-0.9,0.6c0,0.6,0.5,1.5,1.5,2.8v0.3l-3.7-1.8L49,55.8c1.4,2.6,2.4,4,2.8,4.1H52v-0.7l-1.5-2.4
	c0.7,0,1.9,0.5,3.7,1.6l0.6-0.5l-2.1-3.5l3.5,1.9h0.7l0.2-0.2l-1.5-4.4v-0.3l3.3,2.9l0.5-0.5c-1.2-1.4-2.4-2.5-3.5-3.3h-0.2
	L54.6,51.4z M57.9,49h0.4l0.7,0.5c0,0.5-0.2,1-0.7,1.5L57,50.1v-0.2L57.9,49z M56.1,49.9v0.2c0.4,0.5,1.6,1.6,3.7,3.1l0.5-0.5
	c0-0.2-0.5-0.7-1.6-1.3l0.7-0.8l1.9,0.6l0.5-0.4c0-0.4-0.7-0.7-2-0.9c-0.4-1-0.8-1.6-1.3-1.7h-0.2C57.5,48.2,56.7,48.7,56.1,49.9
	 M60.8,45.3c1.6,0.3,2.4,1,2.4,1.9c0,1-0.4,1.5-1.3,1.5c-1,0-1.8-0.5-2.4-1.5v-0.4C59.5,45.8,59.9,45.3,60.8,45.3 M58.8,46.6v1.1
	c0.7,1.2,1.5,1.8,2.4,1.8h0.7c1.1,0,1.8-0.7,1.9-2v-0.4c0-1.2-0.9-2-2.6-2.4h-0.4C59.6,44.6,59,45.3,58.8,46.6 M61.4,40.7
	c0.4,0.5,1.5,0.9,3.3,1.3v0.2c-2.9,0.4-4.4,0.8-4.4,1.3V44l4.1,1.5l0.6-0.2c0-0.5-1.1-1-3.3-1.6v-0.2c2.9-0.4,4.4-0.8,4.4-1.3
	c-0.2-0.4-1.7-1-4.4-1.9L61.4,40.7z M62.3,36.1l3.5,2.4c-2.8,0-4.1,0.4-4.1,1.1c0,0.3,1.6,0.8,4.8,1.5v-0.2l0.2-0.2
	c0-0.4-1.2-0.8-3.5-1.1v-0.2c2.6-0.1,3.9-0.4,3.9-0.9c-1.7-1.3-2.8-1.9-3.3-1.9v-0.2H64l3.1,0.4l0.4-0.4c0-0.4-1.5-0.6-4.6-0.9
	L62.3,36.1z M62.5,32.6v1.9L63,35h4.1l0.2,0.2l0.4-2.6v-0.2l-0.2-0.2c-0.3,0-0.5,0.7-0.6,2.2h-1.6v-1.7l-0.2-0.2
	c-0.2,0-0.5,0.6-0.6,1.9l-1.3-0.2v-1.7L63,32.2L62.5,32.6z M61.7,24.5l-0.3,0.2c0.5,2.5,0.8,3.8,1.1,4.1l3.3-0.4H66v0.2
	c-0.4,0-1.6,0.9-3.5,2.6v0.4l0.2,0.2c2.5-0.1,4.2-0.3,5-0.6l-0.4-0.4l-3,0.2H64l3.3-2.8v-0.5l-0.2-0.2L63.2,28
	c-0.2,0-0.5-0.4-0.7-1.3c2.9-0.5,4.4-0.9,4.4-1.3v-0.2L66.6,25l-4.4,1.1l-0.4-1.5H61.7z M53.3,10.1c-5.7,7.1-9.5,13.3-11.3,18.6
	C38.5,43,31.2,50.1,20.1,50.1l-4.6-0.4c-5.6-0.9-10.3-2.4-14-4.6v-0.2l8.1-5.2l17.9,3.1v-0.3l0.2-0.2v-0.4L10.7,39l8.1-5.7
	c0-0.9,5.5-1.3,16.4-1.3c1-0.1,1.6-0.3,1.6-0.6v-0.2l-0.3-0.2l-14.2,0.4h-0.5v-0.2c5.8-3.6,9.1-5.8,10.1-6.8
	c7.6-0.3,11.4-0.7,11.4-1.1V23L43,22.8l-8.9,0.5h-0.3V23L53.3,10.1z M52.5,9.2h0.2v0.2L27.5,26.3l2.6-9.4l-0.5-0.4
	c-0.4,0-1.5,3.3-3.3,10c-0.5,0.9-4.4,3.7-11.6,8.3L19.2,18l-0.4-0.5h-0.2C18,19,16.4,24.6,14,34.4c0,1.1-2.6,3.1-7.7,6.1l2.9-14.2
	l-0.5-0.4H8.5L5.2,40.7c0,0.6-1.2,1.6-3.7,3v-2.1c0-4.2,0.6-8.6,1.9-13.1c3.4-10.1,10.1-15.1,19.9-15.1h7.9
	C37.4,13.4,44.5,12,52.5,9.2 M30.2,12.5h-7.2c-2.9,0-5.6,0.4-8.3,1.3c-9.3,5.1-14,14.2-14,27.3v4.2c0.5,1.7,1.5,4,3,7
	C12,64.5,22.8,70.7,36,70.7c9.3,0,17.8-3.3,25.3-9.9c8.5-8.7,12.7-17.3,12.7-26v-2.9l-0.2-2.1c0-2.9-1.1-4.4-3.3-4.4h-0.2l-0.2,0.3
	c0.9,2.5,1.3,4.8,1.3,7.2c0,5.5-1.7,11.4-5,17.7C58.7,62.2,48.5,68,36,68c-4.9,0-10.1-1.2-15.7-3.7c-7.4-4.1-12.7-9.6-16-16.6
	c6.3,2.2,11.6,3.3,15.7,3.3c5.5,0,10.1-1.6,13.7-4.8c4.1-4,7.3-9.9,9.4-17.9c1.3-5.2,6-12.2,14-21V6.8L57,6.6
	C46.7,10.6,37.7,12.5,30.2,12.5"/>
<path class="st1" d="M123.8,38.2v2.2c-0.4,0.9-1.1,1.3-2,1.3c-0.9,0-1.5-0.3-1.8-1v-0.3C120.1,39,121.3,38.2,123.8,38.2 M95,34.2
	c1.8,0,2.7,1,2.7,3H93C93,35.7,93.7,34.7,95,34.2 M85.2,34.2h0.3c0.9,0,1.6,1.3,2,4c0,1.6-0.7,2.8-2.2,3.5c-2,0-2.9-1.2-2.9-3.5
	C82.3,35.6,83.3,34.2,85.2,34.2 M55.4,34.2c1.3,0,2,0.7,2.2,2.2v0.7h-4.7C53.4,35.2,54.2,34.2,55.4,34.2 M21.5,34
	c1.3,0,2.1,1.2,2.5,3.5v0.7c-0.3,2.5-1.2,3.7-2.7,3.7c-1.7,0-2.7-1.3-3-4C18.7,35.3,19.8,34,21.5,34 M119.1,34.8v0.5l0.3,0.2
	l2.2-1.2c1.3,0,2,0.7,2.2,2.2v0.3l-0.5,0.5c-3.3,0.4-5,1.5-5,3.2c0,1.3,0.7,2,2.2,2.2h1c0.6,0,1.4-0.3,2.2-1l1,0.7h1.5l0.2-0.3v-0.3
	l-0.2-0.2c-0.5,0-0.7-0.2-0.7-0.5v-5.5c0-1.3-0.7-2-2.2-2.2h-1.5C120,33.7,119.1,34.2,119.1,34.8 M91,37.5v1c0.3,2.8,1.7,4.2,4,4.2
	h1.5c1.6-0.4,2.5-0.8,2.5-1.2v-0.7h-0.5c-1,0.7-1.7,1-2.2,1c-2.1,0-3.2-1-3.2-3V38h6.2v-1.2c-0.6-2.2-1.6-3.3-3-3.3h-1.8
	C92.6,33.5,91.4,34.8,91,37.5 M51.1,37v2c0.7,2.5,1.8,3.7,3.5,3.7h2l2.5-1l-0.3-1h-0.2c-1,0.7-1.7,1-2.2,1c-2.3,0-3.5-1.2-3.5-3.5
	h0.3l0.2-0.3h6v-0.7c-0.4-2.5-1.4-3.7-3-3.7h-1.8C53,33.5,51.8,34.6,51.1,37 M105.9,35.7v0.5l0.5,1.5c2.6,1.1,4,1.9,4,2.5
	c0,0.7-0.7,1.3-2,1.7c-1.2-0.7-1.8-1.2-1.8-1.5l-0.7,0.7v1l2.5,0.5c2.3-0.2,3.5-1.2,3.5-2.7v-0.2c0-0.6-0.2-1.2-0.7-1.8
	c-2.5-1.1-3.7-1.7-3.7-2v-0.3c0-1.1,0.5-1.7,1.5-1.7c1,0.3,1.6,0.7,1.8,1.2c0.3,0,0.5-0.4,0.7-1.2c0-0.4-0.5-0.6-1.5-0.7h-1.2
	C106.8,33.6,105.9,34.4,105.9,35.7 M61.6,33.8v8.2l0.5,0.5h0.7l0.5-0.5v-8.2l-0.5-0.5h-0.7L61.6,33.8z M47.5,34.5c0-0.7-0.2-1-0.5-1
	h-1.2v8.5l0.5,0.5h0.7l0.5-0.5v-5c0-1.1,0.6-1.8,1.7-2.2l0.3,0.2h0.2l0.5-0.5v-1.2h-1L47.5,34.5z M27.5,35.7v0.5l0.5,1.5
	c2.6,1.1,4,1.9,4,2.5c-0.2,0.7-0.6,1.2-1.2,1.5h-1.2l-1.3-1.3l-0.7,0.7v0.7c0,0.4,0.8,0.7,2.5,0.7c2.3-0.2,3.5-1.2,3.5-2.7v-0.2
	c0-0.6-0.2-1.2-0.7-1.8c-2.5-1.1-3.7-1.7-3.7-2v-1c0-0.3,0.5-0.6,1.5-1c1,0.3,1.6,0.7,1.8,1.2c0.3,0,0.5-0.4,0.7-1.2
	c0-0.4-0.5-0.6-1.5-0.7h-1C28.5,33.4,27.5,34.2,27.5,35.7 M16.6,37.7V39c0,2.1,1.5,3.3,4.5,3.7h0.5c2.6,0,4.1-1.6,4.5-4.7
	c-0.4-3.1-1.8-4.7-4.2-4.7h-0.7C18.5,33.3,17,34.8,16.6,37.7 M113.4,32v1.3c-0.7,0-1,0.2-1,0.5c0,0.3,0.3,0.5,1,0.5v5
	c0,1.9,0.5,3.1,1.5,3.5h1.7l0.7-0.5v-0.3l-0.2-0.2l-0.3,0.2c-1.2,0-1.8-0.7-1.8-2.2v-5.5h1.5l0.5-0.5l-0.5-0.5h-1.5v-2l-0.2-0.2
	C113.9,31.3,113.4,31.7,113.4,32 M35,32v1.3c-0.7,0-1,0.2-1,0.5c0,0.3,0.3,0.5,1,0.5v6.2c0,0.9,0.5,1.7,1.5,2.2h1.8l0.7-0.5v-0.3
	l-0.2-0.2l-0.3,0.2c-1.1,0-1.7-0.7-1.7-2.2v-5.5h1.5l0.5-0.5l-0.5-0.5h-1.5v-2L36.5,31C35.5,31.3,35,31.7,35,32 M10.1,30.3
	c1.7,0.2,2.5,1,2.5,2.2v0.2c0,1.6-1.2,2.5-3.5,2.7h-1v-5.2H10.1z M72.1,30v11.9l0.5,0.5h6l0.5-0.5v-0.5l-0.2-0.3l-2.5,0.3h-2
	L73.8,41v-4.8h4.4V35h-4.4v-4.2h5v-1.2h-6.3L72.1,30z M6.1,29.7v12.2l0.5,0.5h1l0.5-0.5v-5.7h0.2l5.2,6.3h2v-0.3l-4.4-5.7V36
	c2.3-0.5,3.5-1.5,3.5-3v-0.7c0-2-1.5-3-4.5-3H6.6L6.1,29.7z M61.4,30c0.4,0.8,0.8,1.2,1.2,1.2l1-1v-0.5L62.9,29h-0.7L61.4,30z
	 M87.5,28.8v5.5h-0.2c-0.9-0.6-1.6-1-2.2-1h-1c-1.7,0-2.8,1.2-3.5,3.7v2.5c0,1.7,1.3,2.7,4,3.2c0.8,0,1.8-0.5,3-1.5
	c0,0.9,0.2,1.3,0.5,1.3h0.7l0.5-0.5V28.8l-0.5-0.5H88L87.5,28.8z M41.2,30.8c0,1.9-0.6,2.9-1.7,3c0,0.3,0.4,0.5,1.2,0.5v7.7l0.5,0.5
	h0.5l0.5-0.5v-7.4l0.3-0.3h0.2l0.3,0.3h1.2v-1h-2v-2c0-0.9,0.4-1.5,1.2-1.8l1,0.3l0.5-0.5v-0.7l-0.5-0.5h-0.3
	C43.2,28.3,42.2,29.1,41.2,30.8 M139.3,41.9l0.5,0.5h0.7l0.5-0.5V28h-1.7V41.9z M128.3,28.5v13.4l0.5,0.5h0.7l0.5-0.5v-4.7
	c0.2-2,1-3,2.2-3c1.3,0,2,0.7,2.2,2.2v5.5l0.5,0.5h0.7l0.5-0.5V36c-0.5-2-1.4-3-2.7-3c-1.4,0-2.6,0.5-3.5,1.5v-6l-0.5-0.5h-0.7
	L128.3,28.5z M101.7,41.9l0.5,0.5h0.7l0.5-0.5V28h-1.8V41.9z M3.3,6.1c1.6-3,5.3-4.5,11-4.5h119c3.1,0,5.4,0.3,7,1
	c3.8,1.7,5.7,5.4,5.7,10.9v48.1c0,8-3.8,11.9-11.5,11.9H13.1l-3.3-0.3c-5.3-1.5-7.9-4.5-7.9-8.9V10.8C1.9,9.2,2.4,7.6,3.3,6.1
	 M9.8,0.1C3.4,1.9,0.1,5.4,0.1,10.6v54.8c1.8,6.5,5.3,9.7,10.4,9.7h127.7c6.1-2,9.2-5.5,9.2-10.4V9.8c-1.8-6.5-5.3-9.7-10.4-9.7H9.8
	z"/>
<path class="st1" d="M86.8,52.2v0.3c0,0.9-0.4,1.5-1.3,1.8c-0.6,0-1-0.3-1-0.8v-0.3C84.5,52.7,85.3,52.4,86.8,52.2 M116.8,52h-0.3
	v-0.8h0.3V52z M49.2,50.5l0.3,1.2v0.5c0,1.2-0.5,1.8-1.5,1.8h-0.3l1.3-3.5H49.2z M116.5,50.7h-0.3v-0.5h0.3V50.7z M68.5,50h1
	c0.6,0.3,1,0.9,1,1.8c0,1.3-0.3,2-1,2.3h-0.8c-0.9-0.5-1.3-1.2-1.3-2.3C67.9,50.6,68.2,50,68.5,50 M47.5,50h1l-1.2,3.7
	c-0.4,0-0.6-0.5-0.8-1.5V51L47.5,50z M40,50h0.2l1.5,1c-0.5,2-1,3-1.5,3c-1.1,0-1.7-0.6-1.7-1.8v-0.8C38.5,50.5,39,50,40,50
	 M78.8,49v6l0.5,0.5H80l0.5-0.5v-6L80,48.5h-0.8L78.8,49z M92.8,49.2c0-0.5-0.2-0.8-0.5-0.8h-0.7L91,49v6l0.5,0.5h0.7l0.5-0.5v-3.3
	c0-0.9,0.3-1.5,1-1.8h0.8l0.8,0.8V55l0.5,0.5h1l0.5-0.5v-4c-0.1-1.8-0.9-2.7-2.3-2.7C94.3,48.3,93.5,48.6,92.8,49.2 M82.8,50
	c0,0.3,0.4,0.5,1.2,0.8l1.8-1V50c0.7,0,1,0.3,1,0.8c-2.9,0.5-4.3,1.5-4.3,2.8s0.7,2,2,2h0.8c0.5,0,1.1-0.3,1.7-0.8
	c0,0.5,0.2,0.8,0.5,0.8h1.2l0.3-0.3c-0.4-0.6-0.5-1.6-0.5-2.7v-2.2c0-1.3-0.9-2-2.7-2C83.8,48.6,82.8,49.1,82.8,50 M67.5,49.2
	c0-0.5-0.2-0.8-0.5-0.8h-0.8L65.7,49v8.5l0.5,0.5H67l0.5-0.5v-2.7c0.6,0.5,1.2,0.8,1.8,0.8h1.2c1.4-0.7,2-1.8,2-3.5v-0.3
	c-0.3-2.3-1.3-3.5-2.8-3.5C69,48.3,68.3,48.6,67.5,49.2 M55.2,49l-0.5-0.5h-1L53.2,49v6l0.5,0.5h1l0.5-0.5v-3c0-1.3,0.3-1.9,0.8-2
	h1.3l0.2,1.3V55l0.5,0.5h0.8l0.5-0.5v-2c0-2,0.3-3,1-3h1l0.3,1.3V55l0.5,0.5h1l0.5-0.5v-4c0-1.8-0.8-2.7-2.5-2.7
	c-1.2,0.4-1.8,0.7-1.8,1l-2-1L55.2,49z M99.8,47c-0.1,0.9-0.5,1.6-1,2v0.5c0,0.3,0.2,0.5,0.7,0.5v2.3c0,2.2,0.6,3.3,1.7,3.3h1.5
	l0.3-0.3l-0.5-1.5h-0.3L102,54l-0.5-0.5V50c0.8,0,1.2-0.2,1.2-0.5V49c0-0.4-0.4-0.5-1.2-0.5v-2l-0.3-0.3L99.8,47z M78.8,46.5v0.8
	l0.5,0.5H80l0.5-0.5v-0.8L80,46h-0.8L78.8,46.5z M74.5,46.5V55l0.5,0.5h0.7l0.5-0.5v-8.5L75.8,46H75L74.5,46.5z M113.5,51.5V52
	c0,3.7,1.6,6.9,4.8,9.5c0.9,0.1,2.2,1.1,4,3h0.3c-2.9-3-4.8-7-5.7-12v-0.3h0.2l0.8,2.5c2.2,6,3.8,9,4.8,9c0.5,1.2,0.9,1.8,1.2,1.8
	l0.3-0.3l-3-3.7l1.5-4.8v-1c0-3-2.4-6.9-7.2-11.8H115C114,46.6,113.5,49.1,113.5,51.5 M13.5,32.5l1,0.5v7l0.5,0.5h4.2l0.5-0.5v-3
	c4.7,3.6,9.4,7.6,14,12c2.2,2,3.3,3.8,3.3,5.2l3.2,2c1.9-1.4,2.8-2.3,2.8-2.7c0-0.3-0.3-0.5-1-0.8L46.8,41h1.5
	c1.8,0,3.4-0.5,4.7-1.5h0.3l-4,9l-1-0.2c-2.5,0.4-3.7,1.4-3.7,3v1.5c0,0.9,0.6,1.8,1.7,2.5h0.3c-3.5,10.9-6.5,16.3-9,16.3H37l-1-1
	c0-2.2-1.1-4.6-3.3-7.2c-6.5-7.1-12.5-12.7-18-16.8c-4.6-2.9-7-4.9-7-6v-0.7C8.9,34.9,10.9,32.5,13.5,32.5 M52,31.2v0.5
	c0,2.5-0.9,4.2-2.8,5H49l2.7-5.5H52z M47.5,26.2H48c1.8,0,3.2,1.3,4,3.7l-3.7,7h-0.5c-2.4,0-3.8-1.5-4.2-4.5v-1.8
	C43.9,27.8,45.2,26.2,47.5,26.2 M25.5,20c2.8,0,4.2,0.9,4.2,2.8v0.5c0,2-2.1,3-6.2,3h-3.7V20H25.5z M60.8,18v7.8
	c0,0.6-1.3,2.8-3.7,6.5v-1.5c0-2-0.6-3.6-1.8-4.8C56.9,22.9,58.7,20.2,60.8,18 M117.5,17.5V18c-1.5,7-3,12.2-4.5,15.8
	c-0.7,2.6-3.6,6.4-8.5,11.3v-0.3c2.4-3.1,3.9-4.8,4.5-5.2c3.8-7.5,6.6-14.8,8.3-22H117.5z M117.8,17.3h-0.2v-1h0.2V17.3z M90,16
	c-3.1,1.2-4.7,3.3-4.7,6.2s1.7,5.2,5,6.8c6.2,1.2,9.3,2.6,9.3,4.3c-0.4,2.3-1.9,3.5-4.5,3.5l-2.5-0.3c-2.2-1.5-3.3-3-3.3-4.5
	l-3.7,0.3h-0.2l-0.8,0.5v0.8c1,5,4.1,7.5,9.2,7.5H96c5.9-0.6,8.8-3.1,8.8-7.7c0-2.7-1.2-4.9-3.7-6.5c-7.2-2-10.8-3.4-10.8-4.2V22
	c0-1.7,1.3-2.5,4-2.5c2.5,0,4.1,1.3,4.7,3.8l1.8-0.3h3l0.3-0.2l-0.5-2.5c-1.4-3.3-4.4-5-9-5C92.6,15.3,91.1,15.5,90,16 M118,15.7
	h-0.3v-0.5h0.3V15.7z M115.8,9.7c-6.7,6.1-10,12.1-10,18c0,2.4,0.9,5.8,2.8,10c0,0.7-1.9,3.4-5.8,8V46h0.5c0.9,0,2.7-1.3,5.2-3.7
	c0.9-1.7,1.8-2.5,2.7-2.5C119.1,35.1,123,28.9,123,21v-3c0-4.4-1.1-8.9-3.2-13.5L115.8,9.7z M81,3c1,0,1.5,0.5,1.5,1.5v0.8
	c0,2.4-1.3,4.8-4,7c-4,0.9-8.3,3.4-12.8,7.7v-3.7l-0.5-0.5h-2.7C67.2,9.5,73.3,5.2,81,3 M67.8,9.3l-6.5,6.5L54.8,25
	c-1.8-1.9-3.9-2.8-6.3-2.8H47c-4.8,0-7.6,2.8-8.5,8.5V32c0,4.9,2.6,7.9,7.7,9l-3.5,8v0.2l-3-1c-1.6,0-2.7,0.9-3.3,2.7l-3-3.3
	L19.8,36v-5.7h1c1.4,0,2.7,0.3,3.7,1l6.5,9.3h5.7c-2.2-4.6-4.9-8.3-8-11c3.5,0,5.5-2.2,6.2-6.5c0-4.8-2.9-7.2-8.7-7.2H15l-0.5,0.5
	v16L13.2,32h-0.5c-2.2,0-4.1,2.4-5.5,7.3v1.5c0,1.1,2,2.9,6,5.5c10.2,7.6,17.3,14.5,21.3,20.5c0.6,3.7,1.6,5.5,3,5.5
	c2.8,0,5.9-5.6,9.5-16.8h1.5c1.6,0,2.6-1,3-3v-1c0-0.8-0.5-1.7-1.5-2.7c1.9-5.1,3.6-8.9,5.2-11.3c1.6-3.6,3.4-6.9,5.5-9.7V40
	l0.5,0.5h4l0.5-0.5V29.7h9.8V40l0.5,0.5h4l0.5-0.5V16.2L80,15.7h-4l-0.5,0.5v9.3h-9.8V21c5.3-5.2,9.3-7.8,12.1-7.8
	C81.3,11.4,83,8.6,83,5V3.7l-1.3-1.2C78.4,2.5,73.7,4.8,67.8,9.3 M133.3,73.8H1.2V1.2h132.1V73.8z M0,0.5v74L0.5,75H134l0.5-0.5v-74
	L134,0H0.5L0,0.5z"/>
</svg>
