<svg id="Слой_1" data-name="Слой 1" xmlns="http://www.w3.org/2000/svg" viewBox="0 0 75 75"><title>microwave-proof</title><path d="M59.57,55.34a1.63,1.63,0,0,1,1.72,1v.27c0,.32-.5.64-1.5,1a3.48,3.48,0,0,1-2.25-1q.32-1.23,2-1.23m-3,1q0,1.93,2.47,2.25h.53q2.95,0,2.95-2t-2.46-2.25H59q-2.47.43-2.47,2m-.48-11.95c.75.32,1.16.66,1.23,1v.48c-.07.32-.48.64-1.23,1a1.42,1.42,0,0,1-1-1.44v-.27Zm-2,1.23a1.78,1.78,0,0,0,2,2h.21a2,2,0,0,0,2-1.71q0-2.25-2-2.25h-.21a1.78,1.78,0,0,0-2,2M31.12,42.11l1.5.27,1.28-.27h9.7q-1.93,8.73-7.23,8.73h-8.2q-2.73-.64-3-1.5-1.93,0-3.75-7v-.27Zm0-.75H20.68l-.27.27q0,5.25,4.77,9.21H16l-.54.48v.27l.54.48H48.59l.48-.48v-.27l-.48-.48H39.86q4.77-4.23,4.77-9l-.54-.48H33.91l-1.5-.27Zm28.66-.27q.54.11,1,1.29l-1,1H59.3l-1-.75a1.33,1.33,0,0,1,1.5-1.5m-2.25,1v.27c0,1,.59,1.66,1.77,2q2.25,0,2.25-2v-.27a1.75,1.75,0,0,0-2-2,1.78,1.78,0,0,0-2,2m5.25-4.5q1.23,0,1.23,1.5c-.07.36-.48.7-1.23,1v-.27c-.68,0-1-.25-1-.75a1.36,1.36,0,0,1,1-1.5m-2,1q0,2.25,2,2.25h.27q1.5,0,2-1.77,0-2.25-2-2.25h-.27q-2,.22-2,1.77M59,30.91v1.5l.53.48.48-.48v-1.5l-.48-.53Zm-37.61.48v2.73q0,4-2.73,4a2.79,2.79,0,0,1-2.52-1.77V28.93l-.48-.54h-.48l-.54.54v7.18q0,2.78,4,3.53,4-.69,4-3.53V33.38q0-3.75,2.52-3.75h.48q1.93,0,2.25,2.25v3.48q0,3.32,3.75,4.28,4.45,0,4.45-5.73,0-4.28,2.25-4.28h.54q2.19,0,2.46,3v3.48q0,2.84,4,3.53,4-.69,4-3.53V28.93l-.48-.54h-.54l-.48.54v7q0,1.87-2.46,2.25a2.78,2.78,0,0,1-2.52-1.77V33.16q-.43-5-3.48-5H38.14q-3.05,0-3.48,4.45,0,5.52-2,5.52-3.22,0-3.21-3V31.66q0-2.52-3.48-3.48H24.64q-2.3,0-3.21,3.21m42.11-5.25-.27.27.54.48h1.71l.27-.21-.48-.54Zm-10,0-.27.27.54.48h1.72l.27-.21-.48-.54Zm-37.88-1H48.32q2.52,0,2.52,4.23V49.61q0,4.24-3,4.23H16q-2.52,0-2.52-3V28.18q0-3,2.25-3m43.88-.75h.21c1.5.25,2.25.91,2.25,2s-.75,2-2.25,2.52q-1.82,0-2.25-2.25v-.27a1.78,1.78,0,0,1,2-2M12.21,27.91V51.05a4.09,4.09,0,0,0,2.25,3.75H49.07q2.35,0,2.73-3.48V27.16q0-2.41-3.21-3.21H16q-3.75,0-3.75,4m44.36-1.5v.27q.69,2.94,2.73,2.95h.75q2.31,0,2.73-2.73v-.75q0-2.31-3.21-2.73-2.41,0-3,3m2.73-5.73v2l.27.27.48-.48v-2l-.27-.21ZM7.23,18.43H68V61.07H6.75V18.91Zm-1.5-.48V61.77l.48.53H68.79l.48-.53V17.95l-.48-.48H6.21Zm-4-8.73Q3.91,1.5,12.48,1.5H64.56Q73.23,3.7,73.23,11V63.81q0,8-9.43,9.43H11Q1.5,71.84,1.5,63.05V11.95ZM9.7,0Q0,2.68,0,10.45V64.29L.75,68Q3.8,75,13,75H61.29Q75,75,75,62V13l-.27-4Q71.79,0,64.29,0Z"/></svg>