<svg id="Слой_1" data-name="Слой 1" xmlns="http://www.w3.org/2000/svg" viewBox="0 0 75 75"><title>oven-proof</title><path d="M44.63,49.34a5.06,5.06,0,0,1-3.54,1.5H32.63a8.39,8.39,0,0,1-3.48-1.23v-.27Zm2.19-2.52-1.23,2H28.66c-.32,0-.82-.59-1.5-1.77v-.27Zm1-2.46c-.39,1.32-.73,2-1,2H26.68l-.54-1.71v-.27Zm.27-1-.54.54H25.93v-.54Zm-23.2.54H17.2v.48h8l.48,2H17.2v.48h8.46l1.5,2h-10v.48H27.64l1.77,1.23v.27H20.2c-.36,0-.54.25-.54.75H17.2v.48H57.05v-.48H53.57c0-.5-.16-.75-.48-.75H44.36v-.27l2-1.23H57.05v-.48H46.82v-.27l1.29-1.77h8.95v-.48H48.32q.16-2,.75-2h8v-.48H48.86c0-1-.18-1.5-.54-1.5H25.39q-.48,0-.48,1.5m-7.71-2H57.06v-.48H17.2Zm0-2.95H57.06v-.54H17.2Zm0-2.52H57.06v-.48H17.2Zm0-2.25H57.06v-.48H17.2Zm-.27-2.73H57.05v-.48H16.93Zm-.48-3.21H56.57q3,.22,3,2.46V51.32q0,2.52-4,2.52H17.46q-4,0-4-3V30.64q0-2.25,3-2.46m-4.23,2.46V51.59q0,3.16,4.72,3.48H56.3q3.91,0,4.5-3.27V30.16q0-2.67-3.75-3.27H15.7q-2.89,0-3.48,3.75m47.84-5.73v1.5l.48.48.54-.48v-1.5l-.54-.48Zm4.23-4.23.48.48h1.5l.54-.48-.54-.48h-1.5Zm-10.23,0,.54.48H56.3l.48-.48-.48-.48H54.59Zm-34.12-1h.75c.25,0,.5.34.75,1q0,1.23-1.5,1.23l-.75-.75v-.75Zm6.21-.21,1,1v.75l-1,.75c-.47,0-.88-.32-1.23-1v-.53q.11-.48,1.23-1m-11.68,0c.82.39,1.23.8,1.23,1.23-.39.82-.8,1.23-1.23,1.23l-1-.75v-1c0-.25.34-.5,1-.75m9.48,1.5a2,2,0,0,0,2,1.72h1a2.1,2.1,0,0,0,1.28-2,1.78,1.78,0,0,0-2-2h-.75a2.64,2.64,0,0,0-1.45,2.25m-5.73-.75v1.23q1,1.5,2,1.5a2.1,2.1,0,0,0,2-1.23V19.93a2.12,2.12,0,0,0-1.77-1.23,2.52,2.52,0,0,0-2.2,1.5m-5.73.48a2.1,2.1,0,0,0,1.23,2h1.5l1.23-1.23v-1.5L15.21,18.7h-.75a1.75,1.75,0,0,0-2,2m48.05-2.25a2.55,2.55,0,0,1,2.25,1.5v1.5c-.57,1-1.23,1.5-2,1.5a2.48,2.48,0,0,1-2.52-2.25q.64-2.25,2.25-2.25m-3,2v.53q0,2.09,2.79,3,3.48-.43,3.48-3v-.53a3.14,3.14,0,0,0-2-2.73H60.05q-2,0-2.52,2.73m2.52-5.47v1.5l.48.48.54-.48v-1.5l-.54-.48Zm8,46.13H7V13.72H68ZM5.46,13V61.77L6,62.3H68.79l.48-.53V13l-.48-.48H6ZM1.77,8.73Q4.34,1.5,12.48,1.5H64.29q8.95,1.88,8.95,10V63.81q0,8-9.43,9.43H10.45Q1.5,71.58,1.5,63.05V11.73ZM9.7,0Q0,2.68,0,10.45V64.29L.75,68Q3.8,75,13,75H62q13,0,13-13.23V13.72l-.27-4.77Q71.79,0,64.29,0Z"/></svg>