<svg id="Слой_1" data-name="Слой 1" xmlns="http://www.w3.org/2000/svg" viewBox="0 0 74.94 75"><title>patent pending</title><path d="M39.56,65.52q0,2-2.36,2.19c-.43,0-.64-.14-.64-.43V63.37l.21-.21q2.78.27,2.78,2.36M35.28,62.3v6.27l.43.43h2.57q2.19,0,2.57-3V64.66q0-2.35-3.21-2.78H35.71Zm7.49-1.07-.21.21,1.28,6.91h1.29l.21-.21q-1.28-6.91-1.71-6.91Zm-16.54,5.2c.07.57.28.86.64.86h.43q.54,0,1.34-3.91.32,0,1.29,3.05.11,2.14,1.5,2.14.54,0,2.14-6.7v-.43l-1.07-.21a11.41,11.41,0,0,0-1.29,4.07H31l-.64-1.93q-.43-3.22-1.93-3.21h-.48Zm23.44-7.34,1.71,3.64v.21l-4.07-2.57h-.91l-.64.43,2.84,6.48,1.28-.43a12.48,12.48,0,0,0-1.5-3.7v-.21q.64,0,4.07,2.57l1.5-.64-3-6.43ZM20,63.59v.21l3,1.72c.32,0,.61-.39.86-1.07L22,63.16l.64-1.5,2.14,1.07c.21,0,.43-.29.64-.86,0-.43-.64-.93-1.92-1.5l.64-.86h.21L26,60.59l.86-1.07q-2.41-1.93-3.43-1.93h-.21Q20,63.05,20,63.59m-.86-7.93.64.65v.43l-.43.43h-.21l-.86-.43v-.21ZM53.32,58q.7,3.86,3.43,3.86h.86q2.46,0,3.43-3.43a2.88,2.88,0,0,0-1.28-2.79L57.18,58l.64.86q.59,0,1.71-1.07v.43q0,1.72-2.14,2.14-2.57-.11-2.57-2.36a2.81,2.81,0,0,1,1.07-1.93c1.43-.32,2.14-.82,2.14-1.5l-.43-.43h-.43q-3.05,0-3.86,3.86m-39.07.43v.21l.86.86,2.14-1.93a3.73,3.73,0,0,0,1.92,1.07,2.33,2.33,0,0,0,2.14-1.5V55.87a6.91,6.91,0,0,0-2.14-2.35ZM31.86,37.39q.8,5.79,5.57,5.79,5.78-.75,5.78-5.57-.86-5.79-5.57-5.79-5.78.91-5.78,5.57M18.31,27.91q7.07-11.78,18.25-11.78H38.5a20.51,20.51,0,0,1,8.62,2.14q12,7,12,19.34A28.77,28.77,0,0,1,57.39,46q-7,13.13-20,13.13a26.89,26.89,0,0,1-9.21-2.14q-12-7.13-12-18.48V36.54a20.59,20.59,0,0,1,2.14-8.63m12.9-11.78q-15.9,6.21-15.9,21.48A19.86,19.86,0,0,0,17,46q6.42,13.77,20.82,13.77a25.32,25.32,0,0,0,7.5-1.29q14.4-6.91,14.4-20.62v-.65a22.13,22.13,0,0,0-1.29-7.28Q51.82,15.27,37.64,15.27a27.46,27.46,0,0,0-6.42.86M22.6,11.41h.22v.86c0,.21-.29.43-.86.64l-.64-1.07Zm-3.21-.21,3.21,6.21a2.32,2.32,0,0,0,1.5-.64A7,7,0,0,1,22.81,14q1.34,0,1.5-1.72v-.43a2,2,0,0,0-1.5-1.93,6.42,6.42,0,0,0-3.43,1.29m32.44-.43V11l.64.21q0,.69-2.57,4.93.05.43,1.07.86a23.58,23.58,0,0,0,2.78-4.72L55,12.7l.64-1.07Q53.27,9.7,52.25,9.7H52Zm-22.32.64-1.55.43V9.7Zm-2.84-3.7-.43,7.55.21.21c.86-.21,1.28-.57,1.28-1.07q0-1.39,2.62-1.72l1.07,1.07,1.29-.21v-.43l-4.5-5.84Zm15.9,5.41c0,.43.36.72,1.07.86q.43,0,1.5-4.07h.21q.86,5.36,2.41,5.36.48,0,2.35-6.7l-.43-.43H48.61l-1.07,3.91h-.21v-.21l-.21-.21q-.64-5-2.41-5ZM37.85,6l-.21.21-.21,6.7q0,.43,1.5.43h1.92l.43-.43v-.43q-.11-.64-1.71-.64h-.64V10.12h2.14l.22.22v-.22l.21-.21v-.7q0-.43-2.36-.64V7.5h2.14l.21.21V7.5l.21-.21V6.65q0-.65-3.43-.65Zm-6.21.65.43,1.28h.21l.22-.21h.64l.64,5.84,1.28-.43-.43-5.41V7.5c.72,0,1.07-.14,1.07-.43V6.21L35.5,6a11.27,11.27,0,0,0-3.86.65M6.7,20.2Q18.58,2.15,37.42,2.14a38.8,38.8,0,0,1,17.4,4.5q18,11.73,18,30.75A39.1,39.1,0,0,1,69,53.73Q57.39,72.86,37.64,72.86a35.69,35.69,0,0,1-19.75-6Q2.2,55.07,2.2,37.61A38.88,38.88,0,0,1,6.7,20.2M18.31,5.14Q.06,17.57.06,36.75v1.5A38.55,38.55,0,0,0,5.63,57.59Q18.31,75,36.14,75h2.78q11,0,21.25-7.5Q75,55.18,75,38.89V36.11q0-8.36-4.93-17.63Q57.55,0,38.28,0h-1.5A37.56,37.56,0,0,0,18.31,5.14" transform="translate(-0.06)"/></svg>