<svg id="Слой_1" data-name="Слой 1" xmlns="http://www.w3.org/2000/svg" viewBox="0 0 75 75"><title>patented</title><path d="M40.71,61.5H40l-.16.05.05,1.12v1.13q0,.8.11,2.35h-.11a20.84,20.84,0,0,0-2.52-4.66h-.58a3.52,3.52,0,0,0-1.21.16q.11,2.89.11,4.23v1.71q0,1.18.26,1.18h1.16l.16-.05-.16-5h.1q1.11,2.41,2.63,5c.63,0,1.09-.05,1.37-.05h.1l.21-.11q-.1-4.13-.1-6.32v-.75l-.11-.16ZM29.4,67.61a21.56,21.56,0,0,0,4.15.91c.21,0,.37-.37.47-1.12q0-.32-2.74-.75l.26-1.5a10.16,10.16,0,0,1,2.37.37c.24,0,.37-.46.37-1.39A13.19,13.19,0,0,1,32,63.64l.16-1.23a8.52,8.52,0,0,1,2.52.37c.14,0,.28-.41.42-1.23,0-.14-1.39-.48-4.16-1ZM41.55,61.5A3.5,3.5,0,0,0,42,62.79l1.68-.48L45.23,68a5.16,5.16,0,0,0,1.47-.48l-1.42-5.63a6,6,0,0,0,1.79-.48l-.37-1.34a31.16,31.16,0,0,0-5.15,1.45M25.19,59.63q0,.27,1.47.8h.1a46.56,46.56,0,0,1-2.15,5.3c0,.18.44.43,1.31.75q.32,0,2.37-5.36a9.08,9.08,0,0,0,1.68.64h.21a6.22,6.22,0,0,0,.37-1.34L25.77,58.5a4.08,4.08,0,0,0-.58,1.12m-2.05-1.23q-.84,2.41-.84,2.52A3.1,3.1,0,0,1,21,60.37a20.77,20.77,0,0,1,2.1-2m23.77,1.5q.52,1.23,3.26,6.48,3-1.39,3.95-2a6.12,6.12,0,0,0-.53-1.23A18.34,18.34,0,0,0,51,64.39,10.28,10.28,0,0,1,50.28,63a16.43,16.43,0,0,1,2.15-1.12A6.36,6.36,0,0,0,52,60.64h-.1a9.15,9.15,0,0,0-2.16,1A4.65,4.65,0,0,1,49,60.43l2.37-1.18C51,58.43,50.79,58,50.65,58h-.11q-.05.11-3.63,1.88M17.41,61.55c0,.11.44.43,1.31,1l1.37-1.23h.1l1.53,1-.47,1.88,1.21.91h.11q.26-.59,2.26-7.12a9.77,9.77,0,0,0-1.63-1.23q-.32,0-5.78,4.88m37.5-4.93h.37q1.58,0,2.31,2.52a2.64,2.64,0,0,1-1.21,2q-.37-.27-3.11-3.37v-.11a2.4,2.4,0,0,1,1.63-1m-3.58,1.12v.16s1.52,1.75,4.58,5.14h.21q3.1-2.25,3.1-4.12s0-.29-.1-.75Q57.8,55,55.8,55h-.63q-1.47,0-3.84,2.73m-31.87-2v.11c0,.5-.32.8-.95.91h-.26A1.31,1.31,0,0,1,17.2,56l1.32-1.5q.95.54.95,1.23m-6.1,2a5.34,5.34,0,0,0,1,1h.11A15.24,15.24,0,0,0,16.15,57a3.75,3.75,0,0,0,2.47,1.39Q21,57.86,21,56q0-1.45-2.63-3.37h-.16a64.38,64.38,0,0,0-4.89,5.09M35.45,32.3q-3.58,1.77-3.58,5a10.78,10.78,0,0,0,.1,1.34q1.52,4.5,5.52,4.5a5.87,5.87,0,0,0,2.15-.48q3.47-1.82,3.47-5a9.55,9.55,0,0,0-.26-2q-1.84-3.75-5-3.75h-.73a4.66,4.66,0,0,0-1.68.37m24-15.48a2.49,2.49,0,0,1,1.16,1.88v.37q-.89,2.14-2.58,2.14A2.61,2.61,0,0,1,56,19.88a44.14,44.14,0,0,1,3.47-3.05M19.83,25.23q6.94-9.16,17.67-9.16a21.53,21.53,0,0,1,12.31,3.81q9.2,7,9.2,17.57a22.14,22.14,0,0,1-3.84,12.37q-7.1,9.11-17.3,9.11h-.73A21.2,21.2,0,0,1,23.67,54Q16,47.09,16,37.55a21.72,21.72,0,0,1,3.84-12.32M16.94,16q.79,0,1,1v.11q0,.48-.84,1.28a8,8,0,0,1-1.47-1.5c.49-.61.93-.91,1.32-.91m7.57,3.48Q15.2,26.84,15.2,37.55A22.17,22.17,0,0,0,19.36,50.3q7.15,9.37,18.14,9.37a22.09,22.09,0,0,0,18.14-35q-7.31-9.37-18-9.38a23.28,23.28,0,0,0-13.1,4.13m29.45,0v.05q2.31,3.33,4.42,3.32h.74q3.2-1.39,3.21-3.48t-3-4.61h-.11S57.43,16.3,54,19.45M13.62,17.19v.05q4.84,5,5,5h.11a5.4,5.4,0,0,0,1-1v-.11L18,19.34a4.1,4.1,0,0,0,1.52-2.63Q19,14.36,17.3,14.36t-3.68,2.84m9.89-3a7.74,7.74,0,0,1-1.16.75,12.86,12.86,0,0,1-.84-2.46v-.11q1.21,1,2,1.82m26,2.25a36.51,36.51,0,0,0,3.73,2.62c.18-.07.44-.43.79-1.07q0-.27-2.37-1.66a8.91,8.91,0,0,0,.84-1.39h.1l2.05,1.39h.11c.07,0,.31-.34.73-1a9.24,9.24,0,0,0-2.15-1.5,5.34,5.34,0,0,0,.74-1.23l2.36,1.5a2.05,2.05,0,0,0,.74-1.23q-.26-.11-3.58-2.36a66.19,66.19,0,0,0-4.1,5.95M19.83,11.62q1.79,6.59,1.89,7.23h.1A3.59,3.59,0,0,0,23.3,18l-.58-1.77a15.11,15.11,0,0,1,1.73-1,10.5,10.5,0,0,1,1.47,1.23,6.61,6.61,0,0,0,1.42-1v-.11s-1.88-1.66-5.63-4.88h-.11Zm26.3-3v.21l1.73.54q0,.27-2.1,5.36,0,.22,1.42.75h.11q.16-.32,2.15-5.36a6.23,6.23,0,0,1,1.79.7c.39-.79.58-1.2.58-1.23A33.45,33.45,0,0,0,46.6,7.39a4.07,4.07,0,0,0-.47,1.23m-22,.48a5.52,5.52,0,0,0,.47,1.29,15.85,15.85,0,0,0,1.89-.65q1.53,4.61,1.95,5.47A4.13,4.13,0,0,0,30,14.62L28.08,9.27q0-.16,1.79-.75a7.35,7.35,0,0,0-.47-1.29,53.34,53.34,0,0,0-5.26,1.88M31.4,6.86q.84,6.81.95,7.12a32.4,32.4,0,0,0,4.58-.64A3.36,3.36,0,0,0,36.66,12l-2.84.37c-.1-.82-.16-1.32-.16-1.5v-.05a15.34,15.34,0,0,0,2.63-.48c-.1-.54-.21-1-.31-1.34l-2.52.37L33.29,8Q36,7.71,36,7.39a3.47,3.47,0,0,0-.16-1.18,38.05,38.05,0,0,0-4.42.64m6.21,6.27c0,.21.44.34,1.31.37H39q.21,0,.63-5.14h.11a27.84,27.84,0,0,0,1.89,5.09c0,.43.61.64,1.84.64q.21-1,.94-7.12c-.1-.14-.58-.25-1.42-.32q-.32,0-.63,4.82h-.1A25.81,25.81,0,0,0,40.6,6.86c0-.5-.68-.75-2.05-.75q-.21,0-.94,7m-26,.48q11-11.36,25.82-11.36a35.75,35.75,0,0,1,22.67,8.09Q72.84,21.75,72.84,37.55q0,12.86-9,23.57Q52.49,72.75,38,72.75H37a34.28,34.28,0,0,1-19-5.84,35.64,35.64,0,0,1-9.68-9.48,35.23,35.23,0,0,1-6.2-20q0-13.23,9.41-23.84M10,11.95Q0,23.41,0,36.59v1.88a37,37,0,0,0,2,11.3,40.1,40.1,0,0,0,8.26,13.61Q22.14,75,37,75H38a34.25,34.25,0,0,0,10.89-1.77A37.47,37.47,0,0,0,67.58,60Q75,49.45,75,38.79V36.54a36.69,36.69,0,0,0-4.16-16.29,39.45,39.45,0,0,0-7.41-9.86Q52.07,0,37.61,0,21.78,0,10,11.95"/></svg>