<svg id="Слой_1" data-name="Слой 1" xmlns="http://www.w3.org/2000/svg" viewBox="0 0 73.46 64.07"><title>perfect environment</title><path d="M33.85,61.07v2.36l.47.47h2.15l.26-.21-.47-.47H34.53l.21-1.52v-.21l1.52.21h.21l.26-.21q0-.53-2-.68V59.49h2l.21-.21-.47-.42H34.11Zm-3.46,2.15v.21h.21c.42-.07.63-.65.63-1.73v-.42l1.57.21H33l.21-.21c-.11-.46-.68-.68-1.73-.68l.21-1.52,1.52.21h.42v-.63L31,58.44Zm11.12-4.78q-4.57,0-4.57,2.63v.42q.42,2.41,2.15,2.41h.68l1.1-.21V63l-1.1.21q-2,0-2-1.73v-.42q0-2,3.94-2,.73,4.15,1.31,4.15h.26L43.5,63l-.89-3.94v-.21l.21-.21c.74,0,1.1-.16,1.1-.47V58q-2.41.06-2.41.47m-11.81.63v.42l-.42.47H28l.42-1.78a1.38,1.38,0,0,1,1.31.89M26.44,61.9l.42.47q.37,0,.89-2,1.15,0,1.31,2.83.42,0,.63-1.31l-.21-1.1,1.1-1.31q0-1.94-2.62-1.94-.42,0-1.52,4.36m-3.51-1.1,2.41,1.1h.21l.21-.21c-.07-.35-.65-.72-1.73-1.1l.42-1.31v-.21l1.78.68h.21l.21-.26c-.07-.32-.65-.67-1.73-1.05l.42-1.31,1.94.63h.26v-.21c0-.28-.81-.72-2.42-1.31Zm23.4-3.94,1.73,4.62h.21l2.62-1.1v-.21L50.69,60,49,60.59q-.37,0-.89-1.31.05-.42,1.52-.63V58h-.21l-1.73.47-.42-1.1Q49,56.55,49,56.24V56h-.21ZM22.72,55.56l.89.68q0,1.1-.68,1.31H22.3l-.68-.42.68-1.57Zm-3,3.09v.21l.42.42c.24,0,.54-.43.89-1.31v-.21l1.52.42h.84a1.42,1.42,0,0,0,.89-1.52v-.42a3.43,3.43,0,0,0-1.94-1.52,17.75,17.75,0,0,0-2.63,3.93m34.95-7.24,1.31,3.73v.21L52.68,53.4c-.6.07-.9.28-.9.63a6.14,6.14,0,0,0,1.52,2.83v.26l-3.73-1.78-.63.47Q51.11,59.7,51.79,60H52v-.68l-1.52-2.41a9.89,9.89,0,0,1,3.73,1.57l.63-.47-2.15-3.46,3.46,1.94h.68l.21-.21-1.52-4.36v-.26l3.25,2.89.47-.47a19.6,19.6,0,0,0-3.52-3.25h-.21ZM57.93,49h.42l.68.47A2.38,2.38,0,0,1,58.35,51L57,50.1v-.21Zm-1.78.89v.21a19.59,19.59,0,0,0,3.73,3.09l.47-.47q0-.37-1.57-1.31l.68-.84,1.94.63.47-.42c0-.38-.67-.68-2-.89q-.58-1.47-1.31-1.73h-.21q-1.31,0-2.21,1.73m4.62-4.57q2.41.47,2.41,1.94t-1.31,1.52a2.78,2.78,0,0,1-2.41-1.52v-.42c0-1,.43-1.52,1.31-1.52m-2,1.31v1.05a2.85,2.85,0,0,0,2.41,1.78h.68q1.68,0,1.94-2v-.42c0-1.19-.87-2-2.62-2.41h-.42q-1.68,0-2,2m2.62-5.93q.53.73,3.3,1.31v.21q-4.36.58-4.35,1.31V44l4.14,1.52.63-.21q0-.73-3.25-1.57v-.21q4.36-.58,4.36-1.31-.31-.53-4.36-1.94Zm.89-4.57L65.8,38.5q-4.15,0-4.15,1.1,0,.47,4.78,1.52v-.21l.21-.21q0-.58-3.46-1.1v-.21q3.94-.15,3.94-.89-2.57-1.94-3.31-1.94v-.21H64l3.1.42.42-.42q0-.53-4.57-.89Zm.21-3.52v1.94L63,35h4.15l.21.21.42-2.63v-.21l-.21-.21q-.47,0-.63,2.15H65.33V32.62l-.21-.21q-.37,0-.63,1.94l-1.31-.21V32.41L63,32.2Zm-.84-8.08-.26.21q.68,3.68,1.1,4.15l3.31-.42H66v.21q-.63,0-3.52,2.62v.42l.21.21a23.1,23.1,0,0,0,5-.63l-.42-.42-3,.21H64l3.31-2.84V27.8l-.21-.21L63.18,28q-.37,0-.68-1.31Q66.9,26,66.9,25.38v-.21L66.64,25l-4.36,1.1-.42-1.52ZM53.31,10.11Q44.7,20.76,42,28.69,36.73,50.1,20.1,50.1l-4.62-.42a39.84,39.84,0,0,1-14-4.62v-.21L9.6,39.6l17.95,3.1v-.26l.21-.21v-.42L10.7,39l8.08-5.72q0-1.31,16.37-1.31,1.57-.1,1.57-.63V31.1l-.26-.21-14.17.42h-.47V31.1q8.66-5.35,10.07-6.77,11.39-.47,11.39-1.1V23L43,22.76l-8.92.47h-.26V23Zm-.84-.89h.21v.21L27.55,26.27l2.62-9.39-.47-.42q-.63,0-3.25,10-.73,1.37-11.59,8.34L19.2,18l-.42-.47h-.21Q17.68,19.72,14,34.36,14,36,6.29,40.49L9.18,26.27l-.47-.42H8.5L5.25,40.71q0,.94-3.72,3V41.6A47.44,47.44,0,0,1,3.46,28.48Q8.6,13.37,23.35,13.37h7.87q9.24,0,21.25-4.14m-22.3,3.3H22.93a26.38,26.38,0,0,0-8.29,1.31q-14,7.72-14,27.29v4.2a39.82,39.82,0,0,0,3,7Q16.21,70.67,36,70.67q14,0,25.34-9.86,12.7-13,12.7-26V31.94l-.21-2.15q0-4.41-3.31-4.41h-.21l-.21.26a21.26,21.26,0,0,1,1.31,7.19q0,8.24-5,17.74Q54.78,68,36,68a38.94,38.94,0,0,1-15.74-3.73,36,36,0,0,1-16-16.63Q13.85,51,20.1,51a20.11,20.11,0,0,0,13.75-4.83Q40,40.23,43.29,28.27q2-7.82,14-21V6.81L57,6.6Q41.5,12.53,30.17,12.53" transform="translate(-0.63 -6.6)"/></svg>