<svg id="Слой_1" data-name="Слой 1" xmlns="http://www.w3.org/2000/svg" viewBox="0 0 134.52 75"><title>RoHS</title><path d="M86.79,52.23v.27a1.67,1.67,0,0,1-1.29,1.77c-.64,0-1-.25-1-.75v-.27q0-.75,2.25-1m30-.22h-.27v-.75h.27Zm-67.55-1.5.27,1.23v.48Q49.5,54,48,54h-.27L49,50.52Zm67.29.22h-.27v-.48h.27Zm-48-.75h1a1.73,1.73,0,0,1,1,1.77q0,1.93-1,2.25h-.75a2.37,2.37,0,0,1-1.29-2.25q.59-1.77,1-1.77m-21,0h1l-1.23,3.75c-.4,0-.65-.5-.75-1.5V51ZM40,50h.22l1.5,1q-.8,3-1.5,3a1.54,1.54,0,0,1-1.71-1.77v-.75A1.33,1.33,0,0,1,40,50m38.73-1v6l.54.48H80l.48-.48V49L80,48.48h-.75Zm14,.21c0-.5-.18-.75-.54-.75H91.5L91,49v6l.48.48h.75l.54-.48V51.75a1.73,1.73,0,0,1,1-1.77h.75l.75.75V55l.54.48h1l.54-.48V51q-.21-2.74-2.25-2.73a3.46,3.46,0,0,0-2.25,1m-10,.75c0,.29.41.54,1.23.75l1.77-1V50c.68,0,1,.25,1,.75q-4.29.8-4.29,2.79a1.78,1.78,0,0,0,2,2h.75A2.77,2.77,0,0,0,87,54.75c0,.5.18.75.54.75h1.23l.27-.27a5.69,5.69,0,0,1-.54-2.73V50.25q0-2-2.73-2-3,.43-3,1.71M67.5,49.23c0-.5-.16-.75-.48-.75h-.75l-.54.54v8.46l.54.54H67l.48-.54V54.75a2.82,2.82,0,0,0,1.77.75H70.5a3.58,3.58,0,0,0,2-3.48v-.27q-.48-3.48-2.79-3.48a3.47,3.47,0,0,0-2.25,1M55.23,49l-.48-.54h-1l-.48.54v6l.48.48h1l.48-.48V52q0-1.88.75-2h1.29l.22,1.29V55l.54.48h.75l.48-.48V53q0-3,1-3h1l.27,1.29V55l.48.48h1l.48-.48V51q0-2.74-2.46-2.73-1.77.59-1.77,1l-2-1Zm44.52-2a3.43,3.43,0,0,1-1,2v.48c0,.32.25.48.75.48v2.25q0,3.27,1.72,3.27h1.5l.27-.27-.48-1.5h-.27L102,54l-.48-.48V50c.82,0,1.23-.16,1.23-.48V49c0-.36-.41-.54-1.23-.54v-2l-.27-.27Zm-21-.48v.75l.54.48H80l.48-.48V46.5L80,46h-.75Zm-4.23,0V55l.48.48h.75l.54-.48V46.5L75.75,46H75Zm39,5V52a11.77,11.77,0,0,0,4.77,9.48q1.34.21,4,3h.27a23.33,23.33,0,0,1-5.73-12v-.27H117l.75,2.52q3.37,9,4.77,9c.5,1.18.91,1.77,1.23,1.77l.27-.27-3-3.75,1.5-4.77v-1q0-4.5-7.23-11.79H115a20.62,20.62,0,0,0-1.5,7.5m-100-19,1,.48v7l.48.48h4.23l.54-.48V37a147.73,147.73,0,0,1,14,12q3.27,3,3.27,5.25l3.21,2Q43,54.16,43,53.52c0-.25-.34-.5-1-.75L46.77,41h1.5A7.74,7.74,0,0,0,53,39.48h.27l-4,9-1-.21q-3.75.59-3.75,3v1.5a3,3,0,0,0,1.71,2.46h.27q-5.31,16.29-9,16.29H37l-1-1q0-3.27-3.27-7.23a130.17,130.17,0,0,0-18-16.77q-7-4.34-7-6v-.75q1.77-7.23,5.73-7.23M52,31.23v.54q0,3.75-2.78,5H49l2.73-5.52Zm-4.5-5H48q2.74,0,4,3.75l-3.75,7h-.54q-3.54,0-4.23-4.5V30.75q.54-4.5,4-4.5M25.5,20q4.23,0,4.23,2.79v.48q0,3-6.22,3H19.77V20Zm35.25-2v7.77q0,1-3.75,6.48v-1.5A6.44,6.44,0,0,0,55.23,26a38,38,0,0,1,5.52-8m56.79-.48V18A86.63,86.63,0,0,1,113,33.75Q112,37.66,104.52,45v-.27q3.53-4.61,4.5-5.25a96.67,96.67,0,0,0,8.25-22Zm.22-.27h-.22v-1h.22ZM90,16q-4.72,1.77-4.71,6.22t5,6.75q9.27,1.82,9.27,4.28-.59,3.49-4.5,3.48l-2.52-.27q-3.27-2.3-3.27-4.5l-3.75.27h-.22l-.75.48v.75Q86.09,41,93.75,41H96q8.78-.86,8.78-7.72A7.42,7.42,0,0,0,101,26.73Q90.27,23.68,90.27,22.5V22q0-2.52,4-2.52A4.42,4.42,0,0,1,99,23.25l1.77-.27h3l.27-.22-.54-2.52q-2-5-9-5A11.41,11.41,0,0,0,90,16m28-.27h-.27v-.48H118Zm-2.25-6q-10,9.21-10,18,0,3.64,2.79,10,0,1.12-5.79,8V46h.54q1.39,0,5.25-3.75,1.39-2.52,2.73-2.52Q123,32.78,123,21V18a32.12,32.12,0,0,0-3.21-13.5ZM81,3a1.33,1.33,0,0,1,1.5,1.5v.75q0,3.64-4,7-6,1.29-12.8,7.71V16.23l-.48-.48H62.52A34.09,34.09,0,0,1,81,3M67.77,9.27l-6.54,6.48L54.75,25a8.44,8.44,0,0,0-6.27-2.79H47q-7.23,0-8.46,8.52V32q0,7.4,7.71,9l-3.48,8v.21l-3-1q-2.36,0-3.27,2.73l-3-3.27L19.77,36V30.27h1a7.14,7.14,0,0,1,3.75,1L31,40.5h5.73a33.67,33.67,0,0,0-8-11Q34,29.52,35,23q0-7.23-8.73-7.23H15l-.48.48v16L13.23,32h-.48q-3.32,0-5.52,7.29v1.5q0,1.61,6,5.47Q28.61,57.7,34.5,66.75q.91,5.52,3,5.52,4.18,0,9.48-16.77h1.5q2.41,0,3-3v-1A4.48,4.48,0,0,0,50,48.75,54.76,54.76,0,0,1,55.23,37.5a55.53,55.53,0,0,1,5.52-9.75V40l.48.48h4l.48-.48V29.73h9.8V40l.48.48h4l.48-.48V16.23L80,15.75H76l-.48.48V25.5h-9.8V21q7.93-7.77,12.05-7.77Q83,10.44,83,5V3.75L81.75,2.52q-5.09,0-14,6.75m65.52,64.5H1.23V1.23H133.29ZM0,.48v74L.48,75H134l.48-.48V.48L134,0H.48Z"/></svg>