<svg id="Слой_1" data-name="Слой 1" xmlns="http://www.w3.org/2000/svg" viewBox="0 0 147.37 74.94"><title>stainless steel</title><path d="M123.84,38.25v2.19a2.09,2.09,0,0,1-2,1.29,1.71,1.71,0,0,1-1.76-1v-.27q0-2.19,3.74-2.19M95,34.23q2.73,0,2.73,3H93a2.91,2.91,0,0,1,2-3m-9.74,0h.27q1.39,0,2,4a3.61,3.61,0,0,1-2.25,3.48q-2.94,0-2.94-3.48,0-4,2.94-4m-29.87,0q1.93,0,2.25,2.25v.75H52.91q.69-3,2.46-3M21.54,34q2,0,2.46,3.48v.75q-.48,3.69-2.73,3.69-2.62,0-3-4,.64-4,3.26-4m97.58.75v.48l.27.22,2.2-1.23q1.93,0,2.25,2.25v.27l-.48.48q-5,.59-5,3.21,0,1.93,2.25,2.25h1a4.16,4.16,0,0,0,2.25-1l1,.75h1.5l.21-.27v-.27l-.21-.21c-.5,0-.75-.18-.75-.54V35.73q0-1.93-2.25-2.25h-1.5q-2.73.37-2.73,1.29M91,37.5v1q.48,4.23,4,4.23h1.5c1.64-.39,2.46-.8,2.46-1.23v-.75h-.48a4.52,4.52,0,0,1-2.25,1q-3.21,0-3.21-3V38h6.21V36.75q-.86-3.27-3-3.27H94.45q-2.78,0-3.48,4M51.15,37v2q1,3.69,3.48,3.69h2l2.46-1-.27-1h-.22a4.5,4.5,0,0,1-2.25,1q-3.48,0-3.48-3.48h.27L53.4,38h6v-.75q-.59-3.75-3-3.75H54.63q-2.46,0-3.48,3.48m54.76-1.23v.48l.53,1.5q4,1.61,4,2.52,0,1.12-2,1.71-1.77-1.07-1.76-1.5l-.75.75v1l2.51.48q3.48-.37,3.48-2.73v-.21a2.81,2.81,0,0,0-.75-1.77q-3.74-1.61-3.74-2v-.27q0-1.71,1.5-1.71,1.55.48,1.76,1.23.43,0,.75-1.23,0-.59-1.5-.75h-1.23q-2.78.48-2.78,2.46m-44.27-2v8.19l.48.54h.75l.48-.54V33.75l-.48-.48h-.75Zm-14.19.75c0-.68-.18-1-.53-1H45.69v8.46l.48.54h.75l.53-.54V37a2.15,2.15,0,0,1,1.71-2.19l.27.21h.21l.54-.48V33.27h-1ZM27.54,35.73v.48l.48,1.5q4,1.66,4,2.52a2.46,2.46,0,0,1-1.23,1.5H29.52l-1.28-1.29-.7.75v.75q0,.64,2.46.75,3.48-.37,3.48-2.73v-.21A2.81,2.81,0,0,0,32.73,38Q29,36.37,29,36V35c0-.32.5-.64,1.5-1q1.55.48,1.76,1.23.43,0,.75-1.23,0-.59-1.5-.75h-1q-2.95.22-2.95,2.46m-11,2V39q0,3.16,4.5,3.69h.48q3.91,0,4.5-4.71-.64-4.71-4.23-4.71h-.75q-3.86,0-4.5,4.44M113.4,32v1.28c-.68,0-1,.16-1,.48s.34.48,1,.48v5q0,2.89,1.5,3.48h1.71l.75-.48v-.27l-.22-.21-.27.21q-1.77,0-1.76-2.19V34.23h1.5l.53-.48-.53-.48h-1.5v-2L114.9,31q-1.5.48-1.5,1M35,32v1.28c-.68,0-1,.16-1,.48s.34.48,1,.48v6.21a2.54,2.54,0,0,0,1.5,2.25h1.77l.69-.48v-.27l-.21-.21-.27.21q-1.71,0-1.71-2.19V34.23h1.5l.48-.48-.48-.48h-1.5v-2L36.48,31Q35,31.5,35,32M10.09,30.27q2.52.32,2.51,2.25v.21q0,2.36-3.53,2.73h-1V30.27Zm62-.27V41.94l.48.54h6l.48-.54v-.48l-.21-.27-2.52.27h-2L73.84,41V36.21h4.44V35H73.84V30.75h5V29.52H72.56ZM6.13,29.74v12.2l.48.54h1l.48-.54V36.21h.21l5.25,6.27h2v-.27l-4.44-5.73V36q3.48-.69,3.48-3v-.75q0-3-4.49-3H6.61ZM61.37,30c.39.82.8,1.23,1.23,1.23l1-1v-.53l-.75-.7h-.75Zm26.12-1.23v5.46h-.21a4.18,4.18,0,0,0-2.25-1H84q-2.52,0-3.48,3.69v2.52q0,2.52,4,3.21a5.28,5.28,0,0,0,3-1.5c0,.86.18,1.29.54,1.29h.75l.48-.54V28.77l-.48-.48H88Zm-46.3,2q0,2.84-1.71,3c0,.32.41.48,1.23.48v7.71l.48.54h.54l.48-.54V34.5l.27-.27h.21l.27.27h1.23v-1h-2v-2a1.65,1.65,0,0,1,1.23-1.76l1,.27.48-.48v-.75l-.48-.48h-.27q-1.5,0-3,2.46m98.12,11.19.48.54h.75l.48-.54V28h-1.71Zm-11-13.44V41.94l.48.54h.75l.48-.54V37.23q.37-3,2.25-3t2.25,2.25v5.46l.48.54h.75l.54-.54V36q-.7-3-2.73-3A4.73,4.73,0,0,0,130,34.5v-6l-.48-.48h-.75ZM101.68,41.94l.53.54H103l.48-.54V28h-1.77ZM3.34,6.13q2.41-4.5,11-4.5h119a18.09,18.09,0,0,1,7,1Q146,5.22,146,13.57V61.64q0,11.94-11.46,11.94H13.09l-3.26-.27Q1.9,71.06,1.9,64.37V10.84A8.42,8.42,0,0,1,3.34,6.13m6.48-6Q.13,2.81.13,10.57V65.39q2.68,9.69,10.44,9.69H138.29q9.21-3,9.21-10.44V9.82Q144.82.14,137.06.14Z" transform="translate(-0.13 -0.14)"/></svg>