<svg id="Слой_1" data-name="Слой 1" xmlns="http://www.w3.org/2000/svg" viewBox="0 0 75 75"><title>thermo knob</title><path d="M14.46,34.39l23.41,5H60.32a26.59,26.59,0,0,1-1.77,8.46Q51.21,62,38.14,62H36.38a20.61,20.61,0,0,1-8.73-2Q13.93,52.77,13.93,39.11l.53-4.45Zm5.73-11,6.21,5.52q5.35-4.28,10.44-4.29a22.86,22.86,0,0,1,6.75,1.5q7.45,5.25,7.45,9.75l-2.46.48h-.27v-.48q-3-8.25-10.45-8.25H36.11a9.18,9.18,0,0,0-7.18,3.48v.27l7.18,7L14.68,33.64A21.84,21.84,0,0,1,20.2,23.41m28.12-2.47v.48l-2,2.52v-.53Zm-11.47.48h-.48V17.95h.48Zm-13.18-2Q13.23,27.37,13.23,39.11a25.17,25.17,0,0,0,3.21,11.73q7.72,11.95,19.66,11.95h2.79q3.16,0,8.95-2.25,13.23-8.19,13.23-20.89a25.54,25.54,0,0,0-2-10Q51.43,15.22,37.61,15.21a23.7,23.7,0,0,0-13.93,4.23M13,26.41q9.11-14.68,23.14-14.68h1.77a28.38,28.38,0,0,1,11.95,2.95q14.47,9.06,14.47,23.95a32.23,32.23,0,0,1-3.21,13q-9.32,14.2-23.47,14.19a28.33,28.33,0,0,1-13.18-3.27Q10.23,53.63,10.23,39.86V37.39a28.17,28.17,0,0,1,2.73-11m12.21-12.7Q9.48,22.23,9.48,38.89v.21a30.61,30.61,0,0,0,3.21,13q9.54,14.2,22.93,14.19h3a27.32,27.32,0,0,0,11-2.73q15.16-9.05,15.16-23.89V37.88a30.87,30.87,0,0,0-1.72-9.48Q54.32,11,37.39,11a26.51,26.51,0,0,0-12.21,2.73M1.77,9.21Q3.91,1.5,12.48,1.5H63.05q8.78,0,10.18,9.48V63.81q0,8-9.43,9.43H10.45Q1.5,71.58,1.5,63.05V12.48ZM9.7,0Q0,2.68,0,10.45V64.29L.75,68Q3.8,75,13,75H61.29Q75,75,75,62V13l-.27-4Q71.79,0,64.29,0Z"/></svg>