<svg id="Слой_1" data-name="Слой 1" xmlns="http://www.w3.org/2000/svg" viewBox="0 0 75 75"><title>vitro-ceramic</title><path d="M44.62,63.05q-6.27,1-6.27,1.5v1.23l.53.48q8.36,0,15.91-6.48l-1.5-1.5h-.22a29.88,29.88,0,0,1-8.46,4.77M18.91,59.3v.27q8.46,6.7,15.48,6.7l.48-.48V64.55l-.75-.75q-5.95,0-13.72-6Zm24.7-2.52q-5.25,1.13-5.25,1.5v1.77l.27.27q5.41,0,11.73-4.77v-.22l-1.5-1.5a25.85,25.85,0,0,1-5.25,2.95m-20.41-2q5.89,5.25,10.93,5.25c.5,0,.75-.16.75-.48v-1.5q-6.59-1.71-10-4.5h-.27Zm20.14-4.72q-4.88,1.45-5,2v1.77l.27.22q3.16,0,7.45-3l-1.45-1.72q-1.28.16-1.28.75m-15.7.48q3.64,3.27,6.75,3.27l.48-.53V51.59a25.66,25.66,0,0,1-5.47-2.52c-.53,0-1.13.5-1.77,1.5m10.71-5v1.77l.27.22,2.73-.75v-.48l-1.5-1.5h-.75Zm-6.22.48q0,.43,2,1.28c.5,0,.75-.18.75-.53V45.11l-1-.75Zm29.14-1q0,3.11-5.19,10.45,0,.8,1.23,1.5h.48l.27-.27q6.48-8.73,6.48-15.7h-.27L64,40.87h-1.5q-.38,0-1.23,4.23m-5.19-4.23a23.93,23.93,0,0,1-4.5,10.45l1.5,1.5q5.19-6.26,5.2-11.73h-.22l-.27-.22Zm-6.27,0-.21.22a15.54,15.54,0,0,1-2.52,5.52v.22l1.5,1.5h.27q3.22-4.13,3.21-7.23H51.8l-.22-.22Zm-7.23,1.5,1.5,1.5h.53l1-2.52-.48-.48H43.34c-.39,0-.64.5-.75,1.5m-13.66-1.5-.27.22q.38,2.25,1,2.25l1.77-1.72v-.27l-.48-.48Zm-6.48,0-.27.22a10.23,10.23,0,0,0,3,6.75l1.5-1.23q-2-5.46-2.52-5.73Zm-6.27,0-.22.22q0,5.41,4.72,11.25l1.5-1.5v-.27a27.66,27.66,0,0,1-3-5.2q-.86-4.5-1.23-4.5Zm-6.21,0-.27.22q0,7.61,6.48,15.48h.27l1.23-1v-.48a33.87,33.87,0,0,1-4.71-9q-.81-5.19-1.23-5.2Zm18.69-4.5c0,.5.16.75.48.75h1.77l.48-.48v-.27l-1.77-1.72q-.38,0-1,1.72m13.93-.75c0,.82.25,1.32.75,1.5h2l.21-.27q-.75-2.73-1.5-2.73ZM32.14,31.88l1.5,1.77q1.23-.16,1.23-.75v-2l-.22-.27q-2.52.64-2.52,1.23m6.22-1v1.5l.75.75h.75l1.5-1.5q0-.69-2.46-1.28ZM22.18,36.64l.48.48h1.77l2.25-5.25q0-.75-1.5-1.72-3,3.54-3,6.48m24.91-5.52v.27l1.77,2.73q.48,3,1,3h2l.27-.27q-1-5-3.21-7.23h-.27ZM16,36.64l.48.48h1.77q1.13-6.38,4-9.7v-.27l-1.5-1.5q-4.72,6-4.72,11M51.59,26.41a39.86,39.86,0,0,1,4,8c0,1.82.25,2.73.75,2.73h1.77l.22-.27q0-5.41-5.2-11.68Zm-23.95,1,1.5,1.5h.48l1.28-1q3.86-1.18,4-1.77V24.43l-.22-.27q-3.27,0-7,3.27m11-3.27-.27.27v2a17.84,17.84,0,0,1,6,2.25l1.72-1.5q-3.81-3.22-7.45-3.22ZM9.7,36.64l.53.48h1.72A26.41,26.41,0,0,1,17.68,23.2v-.53l-1.23-1.23h-.27q-6.48,8-6.48,15.21M56.09,21.91l.21.75a34.07,34.07,0,0,1,5,9.48q.7,5,1.23,5h1.77l.27-.27-1-5q-2.09-7.45-6-10.93h-.22Zm-17.73-2q7.23,1.44,10.5,4.23l1.5-1.5a16.47,16.47,0,0,0-11.25-4.71h-.75Zm-14.95,3v.27l1,1.23,5.47-3q4.87-1.18,5-1.77V18.21l-.22-.27q-5.52,0-11.25,5M38.36,12.22v1.5l.27.21q4,.37,4,.75,4.76.54,10.5,5h.22l1.5-1.45q-7.66-6.48-15.91-6.48Zm-7.23,0A24.36,24.36,0,0,0,18.91,18.7l1.5,1.5a32.49,32.49,0,0,1,8.52-5q5.95-1.13,5.95-1.77v-1.5l-.22-.21Zm-29.36-3Q3.91,1.5,12.48,1.5H63.05q8.79,0,10.18,9.48V63.8q0,8-9.43,9.43H10.45Q1.5,71.57,1.5,63.05V12.48ZM9.7,0Q0,2.68,0,10.45V64.29L.75,68Q3.8,75,13,75H61.28Q75,75,75,61.29V13l-.27-4Q71.79,0,64.29,0Z"/></svg>